<?xml version="1.0" encoding="UTF-8"?>
<svg id="_レイヤー_1" data-name="レイヤー_1" xmlns="http://www.w3.org/2000/svg" version="1.1" viewBox="0 0 24 24"><g transform="translate(12 12) scale(0.209267) translate(-47.7300 -43.3700)">
  <!-- Generator: Adobe Illustrator 30.3.0, SVG Export Plug-In . SVG Version: 2.1.3 Build 182)  -->
  <defs>
    <style>
      .st0 {
        fill: #60676a;
      }

      .st1 {
        fill: #6e7477;
      }

      .st2 {
        fill: #fff;
      }

      .st3 {
        fill: #526972;
      }

      .st4 {
        fill: #898888;
      }

      .st5 {
        fill: #adbbc0;
      }

      .st6 {
        fill: #7299a8;
      }

      .st7 {
        fill: #97c3d3;
      }

      .st8 {
        fill: #6a92a2;
      }

      .st9 {
        fill: #fdfdfd;
      }
    </style>
  </defs>
  <path class="st7" d="M17.2,5.66c.4.06.8.1,1.19.13.05-.09.11-.1.15,0,.26.04.5.09.75.14h.15c.07-.08.15-.11.22-.02.28.05.55.09.83.12.02.01.05,0,.06-.01.47.25.51.95.5,1.63.09.07.07.12-.04.16-.13.28-.13,1.29-.01,1.82.06.02.06.05,0,.1.09.58.06,1.39,0,2.02,0,.03,0,.08-.03.09.02,1.46-.02,2.89-.13,4.32v.24c0,.93-.06,1.93-.15,2.86v.22c0,.36-.02.73-.05,1.09-.17,1.87-.37,2.91-1.73,2.82-.04.27-.21.25-.29,0-.39.06-.79.11-1.2.14-.02.1-.05.1-.07,0-1.23.05-2.48.08-3.74.09,0,.26-.1.25-.13,0-.1-.06-.22-.07-.31.03-.02.05-.04.05-.06-.01-.18-.09-.36-.09-.54-.01,0,.11-.03.1-.06,0-.03-.06-.06-.06-.09,0,0,.11-.03.1-.05,0-.07-.06-.16-.07-.24,0,0,.26-.1.25-.13,0-.03-.05-.06-.05-.09,0,0,.26-.1.26-.13,0-1.27-.01-2.55-.04-3.81-.1l-.06-.02c-.06-.03-.12-.06-.18,0-.15,0-.29-.01-.44,0-.51-.02-1.01-.05-1.5-.11h-.15c-.05.07-.1.11-.14,0-.02,0-.04,0-.05-.01-1.2.14-1.83-.57-1.88-2.51v-.09c-.06-.55-.11-1.1-.14-1.67,0-.06.01-.15,0-.22-.06-.39-.09-.8-.08-1.21v-.23c-.04-.43-.06-.87-.07-1.34,0-.02-.01-.06-.01-.09-.03-.66-.06-1.33-.09-2.01l.02-.25c-.08-1.28-.07-2.68,0-3.94l.11-.25c.06-.67.02-1.21-.11-1.63-.1.04-.12-.05-.04-.27-.09-.84.05-1.38.43-1.63.01,0,.05,0,.06,0,.5-.09,1-.16,1.51-.23.01-.01.05,0,.06,0,.29-.05.59-.09.89-.11.02,0,.04,0,.06.03.45-.06.9-.12,1.35-.17.8-.11,1.63-.16,2.47-.16l3.48-.03c.23.15.44.15.64.01l.26.12,2.87.17Z"/>
  <path class="st7" d="M15.41,2.7c.01-.12.12-.12.15,0,.07.09.15.09.22,0,0-.16.13-.16.15,0,.03.06.05.07.08,0,.02,0,.06,0,.07.06.66-.04,1.31,0,1.95.1-.03-.29.17-.29.21-.01.82.07,1.64.12,2.46.15l.31.16c.06.07.05.11-.02.13,0,1.1-.23,2.08-1.02,1.67-.03.13-.21.18-.22,0l-3.98-.18-.05-.1v.1c-1.17-.05-2.32-.12-3.45-.19l-.09-.05-8.76.09c-.72-1.3-.15-1.82.71-1.62l1.73-.16h.29c.67-.07,1.34-.11,2.02-.12h.74c.72-.09,1.46-.12,2.22-.09.05-.15.09-.12.11.06l.05.38h1.52s.14.12.14.12l.07-.39c-.07-.03-.06-.07,0-.12-.07-.03-.06-.07,0-.11.8.03,1.59.07,2.39.12Z"/>
  <path class="st4" d="M2.1,6.63l.06.02c.41-.01.53.54.39,1.03.06.04.06.08,0,.13-.12.59-.19,1.27-.15,1.89.13-.06.13-.01.01.15.05.22-.16.32-.29.36-.38.11-1.63.17-1.82-.36-.15-.4-.38-2.81-.09-3.14.39-.46,1.43-.23,1.9-.08Z"/>
  <path class="st2" d="M17.43,5.67c-.02.11-.16.07-.23-.01-.65-.04-1.32-.06-2.01-.09l-2.62-.12h-2.17s-2.91.09-2.91.09c-.05.06-.11.1-.15,0,0-.05.03-.12.08-.12h1.39c.23-.32.46-.23.73-.19l.42.06,3.2-.02c.19,0,.32-.21.51.13.08.13.34-.03.41-.19l.22.23,1.33-.04c.22,0,.28-.01.48.08.58.27,1.3-.23,1.32.18Z"/>
  <path class="st5" d="M2.78,7.83h.05s.22.03.22.03c.03-.24.06-.16.11.08.17.07.14,1.73.1,1.8-.03.04-.06.06-.1.08l-.05.12c-.16-.23-.39-.26-.69-.09v-.15c-.05-.02-.05-.05-.01-.09l.07-.14s-.07-.02-.1-.05c-.04-.05.12-1.41.18-1.61v-.13c0-.14.07-.1.22.14Z"/>
  <path class="st9" d="M5.86,2.85c-.43.13-.91.07-1.59.21-.33.07-.8-.18-1.07.21-.17.24.03,1.21.26,1.29l2,.02.64-.06,6.09-.03c.06,0,.09.08.08.11-.11.17-.36.08-.52,0l-5.64.05-.59.04-2.16.03c-.18-.48-.44-1.13-.21-1.53.24-.42.73-.18,1.05-.24.59-.11,1.12-.08,1.66-.09Z"/>
  <path class="st2" d="M15.72,4.67c.2.03.19.13,0,.21-.26,0-.58.24-.85-.17l-2.52.03c-.22,0-.44.08-.6-.15h.52c.14-.01.27,0,.45,0l3,.08Z"/>
  <path class="st9" d="M10.25.19c.1-.08.13-.02.08.13-.06.16-.15.29-.29.39-.07.42-.03.68.12.78l.87.02c.3.15.44.86.21,1.18l-2.33.03c-.01-.06.02-.15.07-.15h2.17s-.1-.71-.1-.71h-.87c-.28-.01-.39-.44-.39-.83-.01-.51.19-.86.46-.84Z"/>
  <path class="st9" d="M11.52.32c.03-.19.25-.18.3,0h2.09c.12,0,.3.11.34.27.07.31.02.64.03.91l-.07.11c0,.36-.23.31-.36.41-.14,0-.15-.1,0-.18.16-.31.31-.63.2-1.13-.87-.04-1.74-.06-2.61-.04-.16,0-.21-.13-.13-.36h.23Z"/>
  <path class="st9" d="M2.1,6.63l-.43-.02c-.52-.22-1.34-.05-1.48.24-.24.49,0,1.99.16,3.06.16.36.61.29.85.27l1.01-.06c.16-.01.16-.2.21-.27.2-.26.52-.15.74-.04v3.94s-.08-.03-.08-.12v-3.78c-.62-.25-.67.44-.99.44H.71c-.28,0-.47-.31-.51-.74L0,7.46c-.03-.3,0-.53.11-.73.18-.36,1.44-.5,1.99-.1Z"/>
  <path class="st9" d="M13.26,2.58l2.07-.03c.1.02.12.07.08.15h-2.17c-.09,0-.17-.07-.22-.12-.25-.11-.1-.89.15-.74.18.04.18.25,0,.63.02-.17.05-.14.08.11Z"/>
  <path class="st9" d="M19.74,4.96c.01.2-.15.12-.22,0h-1.57c-.18.04-.33,0-.45-.12l-1.79.04v-.21s2.26.11,2.26.11l1.69.06c.05,0,.08.07.08.12Z"/>
  <path class="st2" d="M13.31,1.83h.48c.01-.1.03-.09.05.01v.18c-.47.37-.65.02-.59.55-.29,0-.07-.14-.09-.74,0-.34.11-.34.15,0Z"/>
  <path class="st9" d="M8.17,2.73s-.08.09-.15.09l-1.87.02s.02-.15.08-.15l1.95.03Z"/>
  <path class="st9" d="M17.88,2.68c.12-.17.23-.08.15.18l-1.95-.1,1.8-.08Z"/>
  <path class="st2" d="M18.54,2.8c-.04.11-.14.12-.3.05h-.21s-.15-.16-.15-.16c.07-.24.23-.27.39-.2.1.05.22.13.28.32Z"/>
  <path class="st9" d="M21.11,6.87c-.04.17-.02.41-.03.58.15.08.29.05.38-.11v-.24s.07-.12.07-.12c.06-.1.14-.19.22-.24l.08-.11h.23c.03-.19.2-.24.3-.16.19.06.56.08.74,0,.13-.1.32-.04.38.19.14,0,.48.1.49.38l.04,1.74-.08.24v.36c.06.25,0,.52-.13.82-.36.38-1.62.34-2.25.01.02-.21,0-.43-.06-.47-.06-.04-.22-.03-.37,0l-.02,1.89c0,.09-.03.14-.08.12v-2.02c0-.41.46-.56.53-.16.16.02.21.14.24.38.23.2,1.78.19,1.83.07.07-.17.18-1.79.19-2.12,0-.16,0-.6-.05-.7-.13-.3-1.02-.31-1.26-.29-.42.04-.7.07-.94.65-.03.4-.36.62-.52.27l-.03-.9c-.01-.44-.23-.67-.43-.89.29-.14.52.44.55.86Z"/>
  <path class="st9" d="M7.34,5.55h.15c-.02.11-.12.13-.22.13l-1.13.03c.07-.11.17-.17.3-.17h.9Z"/>
  <path class="st9" d="M18.54,2.8l.9.04c.22,0,.43.12.67.11h.6c.08-.01.23.11.29.21-.37-.21-.78-.06-1.2-.11s-.78-.18-1.2-.1c-.14.03-.29,0-.38-.1l.3-.05Z"/>
  <path class="st9" d="M3.24,16.01s-.08-.03-.08-.12v-1.89c.06.15.08.35.08.58v1.43Z"/>
  <path class="st9" d="M17.43,5.67h.95c.07.01.07.06,0,.12h-1.04c-.09,0-.14-.04-.15-.13h.23Z"/>
  <path class="st2" d="M16.01,2.7c-.03.07-.05.06-.08,0h-.15c-.06.1-.17.09-.22,0h-.15s-.08-.15-.08-.15c.1,0,.27-.02.41-.05l.23-.04s.06.17.04.25Z"/>
  <path class="st9" d="M3.55,6.04c-.19.15-.39.41-.39.82v1.08c-.11.01-.23-.02-.33-.1.07.02.22,0,.24-.1.08-.32-.19-1.48.48-1.7Z"/>
  <path class="st9" d="M6.08,5.69c-.02.06-.08.1-.16.1h-.74c-.02-.06,0-.12.07-.12h.83Z"/>
  <path class="st2" d="M21.11,6.87c-.2-.43-.29-.93-.55-.86.14-.22.32.03.44.21.11.17.16.42.11.65Z"/>
  <path class="st9" d="M5.42,23.37c-.39.03-.84.11-1.22-.23-.51-.45-.67-1.45-.66-2.28l.14.98c.23,1.85,1.46,1.28,1.74,1.53Z"/>
  <path class="st9" d="M3.32,17.45s-.09-.02-.08-.12l.02-1.22c.11.42.06.9.07,1.34Z"/>
  <path class="st9" d="M20.5,6.03h-.62c-.1.01-.18-.03-.21-.12h.75c.05,0,.09.05.08.12Z"/>
  <path class="st9" d="M5.12,5.81c-.47.17-1.01.23-1.51.23.1-.24.34-.09.51-.12.37-.06.67-.22,1-.11Z"/>
  <path class="st9" d="M19.29,5.93l-.6-.02c-.08,0-.14-.05-.14-.12.02-.09.04-.09.07,0h.6c.06,0,.08.08.07.14Z"/>
  <path class="st2" d="M22.36,6.46c-.05.2-.2.17-.3.17,0-.14.02-.28.11-.35.11-.08.13.16.19.18Z"/>
  <path class="st9" d="M2.78,7.83l-.22-.14c0-.21.04-.55-.06-.76-.06-.13-.22-.2-.33-.27.17-.07.48.05.47.43,0,.33,0,.58.15.74Z"/>
  <path class="st2" d="M19.74,4.96h.22c.14-.03.14.07,0,.13-.08.02-.16.13-.26.11-.09-.02-.16-.08-.19-.24h.22Z"/>
  <path class="st2" d="M17.95,4.97l-.25.12c-.08.04-.17-.09-.19-.25.15,0,.34-.06.45.13Z"/>
  <path class="st9" d="M3.4,18.89c-.15-.36-.07-.81-.08-1.21l.08,1.21Z"/>
  <path class="st9" d="M21.02,3.52c.02.16-.02.32,0,.5-.16.38-.22.84-.47,1.09-.15-.04-.43-.06-.59-.02v-.14s.66-.02.66-.02c.25-.48.26-1.13.36-1.65l.04.23Z"/>
  <path class="st2" d="M21.46,7.34s0,.14-.01.17c-.04.05-.14.03-.21.08l-.12.09s-.04-.17-.03-.23l.38-.11Z"/>
  <path class="st9" d="M3.54,20.77c-.13-.08-.07-.38-.08-.57-.03-.43-.12-.74-.06-1.1.1.54.14,1.11.14,1.67Z"/>
  <path class="st2" d="M18.62,5.79s-.06-.01-.07,0l-.07.05s-.06-.01-.08-.05v-.13s.1-.13.16-.05c.03.05.06.11.07.18Z"/>
  <path class="st9" d="M13.47,23.61l-.15.02h-.16c.03-.08.06-.12.12-.13.08-.01.15.02.19.1Z"/>
  <path class="st2" d="M19.67,5.91l-.22.03c.02-.07.06-.14.11-.15s.09.05.11.12Z"/>
  <path class="st2" d="M21.46,7.1c0-.06.05-.09.07-.12l-.07.12Z"/>
  <path class="st2" d="M21.76,6.74c0-.05.04-.11.08-.11-.02.04-.05.1-.08.11Z"/>
  <path class="st5" d="M21.54,7.66c.19-.07.18,1.31.15,1.37-.04.08-.08.14-.15.17.04.15.04.27,0,.36-.18.02-.37.02-.53.16v-.1s-.07-.02-.07-.04c0-.24-.02-1.63,0-1.7.02-.04.04-.06.07-.08.14-.03.38-.13.52-.27.07.03.07.07,0,.12Z"/>
  <path class="st8" d="M3.16,9.81v-1.88c.07,0,.22.04.22.23v1.64c-.1.03-.17.04-.22.01Z"/>
  <path class="st6" d="M21.02,7.8v1.82s-.08.08-.16.09v-1.78c0-.15.11-.12.16-.13Z"/>
  <path class="st9" d="M13.1,23.63h-.54c.15-.17.4-.19.54,0Z"/>
  <path class="st9" d="M12.35,23.61h-.24c.02-.08.07-.09.12-.09.05,0,.11.02.12.09Z"/>
  <path class="st9" d="M11.98,23.61h-.09c.01-.1.08-.1.09,0Z"/>
  <path class="st9" d="M12.5,23.62h-.09c0-.13.09-.13.09,0Z"/>
  <path class="st4" d="M10.33.32s.05.03.08,0l.37.02c.1,0,.2.02.29.02,0-.1.06-.09.09,0l.14-.05c.02.07.07.13.15.13h2.47c.11,0,.22.06.26.13.08.16.08.76-.04,1.1-.05.15-.16.19-.29.17h-.05s-.48-.01-.48-.01c-.05-.03-.1-.03-.15,0-.1.22-.14.49-.15.74v.11s-.09.24-.09.24h-1.49s-.16.15-.16.15c-.06-.11-.04-.25-.05-.38l-.11-.94-.93-.02c-.26,0-.35-.31-.33-.7.01-.24,0-.46.13-.58.09-.08.21-.14.33-.12Z"/>
  <path class="st3" d="M13.02,2.69v.12s-.07.39-.07.39c-.07.1-.17.14-.3.14l-1.21-.03c-.06,0-.11-.05-.13-.09-.03-.04-.01-.11-.02-.14,0-.1-.02-.23,0-.39h1.73Z"/>
  <path class="st9" d="M15.78,2.7c0,.11-.05.13-.11.13s-.11-.02-.11-.13h.22Z"/>
  <path class="st4" d="M12.95,3.2c-.02-.14-.01-.31.07-.39,0,.15,0,.29-.07.39Z"/>
  <path class="st9" d="M15.93,2.7h.08c.01.15-.09.14-.08,0Z"/>
  <path class="st1" d="M2.48,9.47l-.07.14v.09c-.08,0-.16-.14-.13-.33l.18-1.39c.01-.1.07-.16.1-.17l-.08,1.66Z"/>
  <path class="st4" d="M2.41,9.61c.02-.06.04-.11.07-.14,0,.06-.03.12-.07.14Z"/>
  <path class="st9" d="M13.79,1.84c-.15.18-.32.08-.48,0,.14-.11.33-.03.48,0Z"/>
  <path class="st4" d="M21.54,9.55c-.02-.12,0-.25,0-.36.09-.08.15-.09.18.06.03-.28-.02-1.42-.18-1.59,0-.04,0-.08,0-.12-.04-.32.05-.49.15-.62.31-.4,2.12-.43,2.21.23.13,1-.04,2.04-.19,3-.59.27-1.48.25-2.04-.03l-.12-.57Z"/>
  <path class="st9" d="M11.16.37h-.09c-.02-.21.12-.17.09,0Z"/>
  <path class="st0" d="M21.54,9.19v-1.53s.24-.12.24,0l.1,1.82c0,.1-.22.14-.25.04l-.09-.32Z"/>
</g></svg>