<?xml version="1.0" encoding="UTF-8"?>
<svg id="_レイヤー_1" data-name="レイヤー_1" xmlns="http://www.w3.org/2000/svg" version="1.1" viewBox="0 0 24 24">
  <!-- Generator: Adobe Illustrator 30.3.0, SVG Export Plug-In . SVG Version: 2.1.3 Build 182)  -->
  <defs>
    <style>
      .st0 {
        fill: #fff;
      }

      .st1 {
        fill: #4f5659;
      }

      .st2 {
        fill: #eb423f;
      }

      .st3 {
        fill: #dadcde;
      }

      .st4 {
        fill: #e9eef2;
      }

      .st5 {
        fill: #fdfdfd;
      }
    </style>
  </defs>
  <path class="st0" d="M12.37-1.86h12.4s.02,0,.02.03V.16s0,15.41,0,15.41v10.29s0,.04,0,.04h-.59s-1.3,0-1.3,0H-1.08s0-3.46,0-3.46l.02-.06,7.23-7.74h.05s1.58,1.69,1.58,1.69l.02.06c0,.69.01,1.38,0,2.08,0,.05.03.07.09.07,0-.01,0-.03.01-.03.03,0,.26,0,.27.01,0,0,0,.01,0,.02.04,0,.03.02,0,.03,0,0-.01.01-.03.02,0,.01,0,.01-.01,0h-.05s0,.03-.01.01h-.04s0,.03-.01.01h-.04s0,.03-.01.01l-.08.03s0,.01-.01,0h-.03s0,.03-.01.01h-.03s0,.03-.01.01c-.08.03-.17.07-.24.12.01.04-.02.05-.04.01-.21.12-.4.26-.58.42l-.1.1c-.15.19-.29.4-.4.62.01,0,.01,0,0,.01-.05.09-.09.19-.12.29.01,0,.01,0,0,.01v.03s0,0-.01.01v.03s0,0-.01.01l-.03.09s.01,0,0,.01v.05s0,0-.01.01v.05s0,0-.01.01v.06s0,0-.01.01v.06s.02.02-.01.03c0,.02-.01.05-.01.07.03,0,.03.02,0,.03v.12s.02.05-.01.05l-.02.03c0,.07,0,.15.02.23.04,0,.04.04,0,.05,0,.05,0,.09.01.13.03,0,.03.02,0,.03v.07s.02,0,.01.01v.07s.02,0,.01.01v.06s.02,0,.01.01v.05s.02,0,.01.01v.05s.02,0,.01.01l.04.13s.01,0,0,.01l.04.1s.01,0,0,.01l.03.06s.01,0,0,.01c.04.09.08.19.13.28.01,0,.01,0,0,.01.26.48.66.86,1.12,1.08-.01-.03,0-.03.01,0,.04.03.08.05.12.06,0-.01,0-.01.01,0,.05.03.1.05.15.06,0-.01,0-.01.01,0l.1.03s0-.01.01,0h.04s0,0,.01.01h.06s0,0,.01.01h.06s.02-.02.02.01c.02,0,.05.01.07.01,0-.03.02-.02.02,0,.04,0,.09.01.14.01,0-.04.06-.04.06,0,.01,0,.03.02.04.02.01-.02.05-.01.07,0,.02,0,.03,0,.04-.02,0-.04.05-.04.06,0,.05,0,.09,0,.14-.01,0-.01,0-.01.01,0h.08c0-.05.01-.05.02-.02h.06s0-.03.01-.01h.06s0-.03.01-.01h.04s0-.03.01-.01c.01,0,.03-.01.04,0h.01s.04-.03.04-.03c0-.01,0-.01.01,0h.03s0-.03.01-.01c.04,0,.08-.02.11-.04,0-.01,0-.01.01,0,.04-.01.09-.03.12-.06,0-.01,0-.01.01,0,.07-.03.14-.07.2-.11,0-.01.01-.01.01,0,.38-.24.7-.58.93-.99-.02,0-.02,0,0-.01.04-.07.08-.14.11-.22-.01,0-.01,0,0-.01.03-.04.04-.09.05-.13-.01,0-.01,0,0-.01.02-.03.03-.08.04-.12-.01,0-.01,0,0-.01v-.03s0,0,.01-.01v-.04s0,0,.01-.01v-.04s0,0,.01-.01v-.05s0,0,.01-.01v-.06s0,0,.01-.01v-.06s-.02-.02.01-.03c0-.02.01-.05.01-.08-.02,0-.02-.02,0-.03,0-.05,0-.1.01-.15-.04,0-.04-.05,0-.06.01-.06.01-.14,0-.2-.04,0-.04-.04,0-.05,0-.05,0-.09-.01-.13-.03,0-.03-.02,0-.03v-.07s-.04-.02-.01-.03v-.06s-.04-.02-.01-.02v-.05s-.02,0-.01-.01v-.06s-.03,0-.01-.01l-.03-.09s-.01,0,0-.01c-.02-.07-.04-.14-.07-.2-.01,0-.01,0,0-.01-.05-.12-.09-.24-.16-.35-.01,0-.01,0,0-.01-.26-.49-.67-.87-1.15-1.1,0,.02,0,.02-.01,0-.04-.03-.08-.05-.12-.06,0,.01,0,.01,0,0h-.03s0,0-.01-.01h-.03s0,0,0-.01l-.08-.03s0,.01-.01,0h-.04s0,0-.01-.01h-.04s0,0-.01-.01h-.06s0,0-.01-.01h-.06s0,0-.01-.01l-.03-.02s-.03,0,0-.02v-.03c.35,0,.7,0,1.04,0l.02.03s.06.02.09,0v-.03c1.04,0,1.56,0,1.56,0l.02.03s.04.02.07,0c0-.01.01-.01.01,0h.07s.87.01.87.01h.04c.01-.06.15-.06.16-.02.01,0,.02,0,.03,0,0-.05.06-.04.07,0h.03s2.23.01,2.23.01h.03c0-.05.02-.05.03-.02.1.03.23.03.33,0,0-.04.15-.03.16-.03,0,0,.02.02.02.03.02.02.04.02.05,0,0-.04.07-.04.08,0l.04.02h.37s.04-.02.04-.02c0-.01,0-.02.01-.03,0,0,.16-.01.16.03.03.02.06.02.09,0,0-.04.02-.04.03,0,.04.02.07.02.11,0,.01-.03.05-.04.11-.03.04,0,.06,0,.07.03.03.02.05.02.08,0,0-.04.02-.04.03,0h.03c.57.01,1.15.01,1.72.01h.08c0-.05.03-.05.04-.01.03.03.12.02.17,0,0-.04.03-.04.04,0,.01,0,.03,0,.04,0,0-.04.02-.04.03,0,.02.02.05.02.08,0,.1.01.19.01.28,0v-.03c.37,0,.74,0,1.1,0l.02.03s.03.02,0,.03c0,.01,0,.01-.01,0h-.05s0,.03-.01.02h-.05s0,.03-.01.01h-.04s0,.03-.01.01h-.04s0,.03-.01.01l-.08.03s0,.01-.01,0h-.03s0,.03-.01.01h-.03s0,.03-.01.01c-.08.03-.17.07-.24.12.01.04-.02.05-.04.01-.46.25-.84.65-1.07,1.15.04.01.03.04-.01.04-.04.08-.08.17-.11.26.01,0,.01,0,0,.01v.03s0,0-.01.01v.03s0,0-.01.01l-.03.09s.01,0,0,.01v.05s0,0-.01.01v.05s0,0-.01.01v.06s0,0-.01.01v.06s.02.02-.01.03c0,.02-.01.05-.01.07.02,0,.02.02,0,.03v.12s.02.03-.01.04c-.01.09-.01.2,0,.29.04,0,.04.04,0,.05v.12s.04.02.01.03v.08s.04.02.01.02v.06s.02,0,.01.01v.06s.02,0,.01.01v.05s.02,0,.01.01v.05s.02,0,.01.01l.03.09s.01,0,0,.01v.03s.02,0,.01.01l.04.1s.01,0,0,.01l.03.06s.01,0,0,.01c.04.1.08.19.13.28.01,0,.01,0,0,0,0,.02.02.05.04.06.03,0,.03.02,0,.01.26.44.64.79,1.09,1.01,0-.02,0-.02.01,0l.08.04s0-.01,0,0h.03s0,0,.01.01c.05.03.1.05.15.06,0-.01,0-.01.01,0l.1.03s0-.01.01,0h.04s0,0,.01.01h.06s0,0,.01.01h.06s.02-.02.02.01c.02,0,.05.01.07.01,0-.03.02-.02.02,0,.04,0,.09.01.14.01,0-.04.06-.04.06,0,.04.02.11.02.15,0,0-.04.05-.04.06,0,.04,0,.08,0,.12-.01,0-.04.01-.04.03,0h.08c0-.05.01-.05.02-.02h.06s0-.02.01-.01h.06s0-.03.01-.01h.04s0-.03.01-.01l.1-.03s0-.01.01,0h.03s0-.03.01-.01c.04,0,.08-.02.11-.04,0-.01,0-.01.01,0,.04-.01.09-.03.12-.06,0-.01,0-.01.01,0,.07-.03.14-.07.2-.11,0-.01.01-.01.01,0,.38-.24.7-.58.93-.99-.02,0-.02,0,0-.01.04-.07.08-.14.11-.22-.01,0-.01,0,0-.01.03-.04.04-.08.05-.13-.01,0-.01,0,0-.01.02-.04.03-.08.04-.12-.01,0-.01,0,0-.01v-.03s0,0,.01-.01v-.04s0,0,.01-.01v-.04s0,0,.01-.01v-.05s0,0,.01-.01v-.06s0,0,.01-.01v-.06s-.02-.02.01-.03c.01-.02.01-.05.01-.08-.04,0-.03-.03,0-.04,0-.04.01-.09.01-.13-.04,0-.04-.06,0-.07.01-.05.01-.11,0-.16-.04,0-.04-.06,0-.07,0-.05,0-.09-.01-.13-.04,0-.04-.03,0-.04,0-.03,0-.05-.01-.08-.04,0-.03-.01,0-.03v-.06s-.02,0-.01-.01v-.06s-.02,0-.01-.01v-.06s-.03,0-.02-.01l-.02-.09s-.01,0,0-.01c-.02-.07-.03-.14-.07-.2-.01,0-.01,0,0-.01l-.03-.06s-.02-.02,0-.01c-.25-.62-.71-1.11-1.29-1.38,0,.02,0,.02-.01,0-.04-.03-.08-.05-.12-.06,0,.01,0,.01,0,0h-.03s0,0-.01-.01h-.03s0,0,0-.01l-.08-.03s0,.01-.01,0h-.04s0,0-.01-.01h-.04s0,0-.01-.01h-.06s0,0-.01-.01h-.06s-.02.02-.02-.01c-.08-.02-.12-.03-.01-.04v-.03c.44,0,.86,0,1.29,0l.02.03s.06,0,.08-.01c0-.01,0-.01.01,0h.04s0-.03.01-.01h.04s0-.03.01-.01l.06-.03s0-.01.01,0c.03,0,.05-.02.07-.04,0-.01,0-.01.01,0,.03-.01.05-.03.07-.06,0-.01,0-.01.01,0,.08-.06.15-.14.2-.23-.01,0-.01,0,0-.01.03-.04.05-.08.07-.13-.01,0-.01,0,0-.01v-.03s0,0,.01-.01v-.03s0,0,.01-.01v-.04s-.02-.02.01-.03c.01-.02.01-.05,0-.07-.04,0-.04-.15,0-.17v-.06s-.05-.01-.01-.03v-.04s-.02,0-.01-.01l-.03-.07s-.01,0,0-.01l-.03-.06s-.01,0,0-.01c-.01-.04-.04-.08-.06-.11-.01,0-.01,0,0-.01-.04-.06-.08-.11-.13-.16,0,.01,0,.01-.01,0-.04-.04-.08-.07-.12-.1-.01.04-.07.01-.06-.03l-.06-.03s0,.01,0,0h-.03s0,0-.01-.01h-.04s-.01.02-.02-.01c-.02,0-.04-.01-.06-.01,0,.04-.03.04-.04,0-4.44,0-8.88-.01-13.32,0-.04,0-.07,0-.07-.04h-.03c0-.71,0-1.42,0-2.12l.03-.02v-.03s10.39-.74,10.39-.74l.02.03s.07,0,.11,0c0-.04.03-.04.04,0,.06,0,.12,0,.18-.01,0-.04.08-.04.09,0h.1c0-.06.06-.05.06-.01.05,0,.11,0,.16-.01,0-.04.06-.04.06,0h.12c0-.05.07-.06.08-.01h.12c0-.05.04-.05.05-.01.05,0,.1,0,.15-.01,0-.04.08-.04.09,0h.1c0-.06.08-.06.09-.02h.12s0-.02.01,0c.14-.01.27-.09.34-.22-.03-.03-.02-.08.03-.07v-.03s0,0,.01-.01v-.04s-.02-.02.01-.03v-.05s-.02-.02.01-.03v-.04s-.02-.02.01-.03v-.05s-.02-.02.01-.03v-.05s-.02-.02.01-.03v-.05s-.02-.02.01-.03v-.05s-.02-.02.01-.03v-.05s-.02-.02.01-.03v-.05s-.02-.02.01-.03v-.05s-.02-.02.01-.03v-.04s-.02-.02.01-.03v-.05s-.02-.02.01-.03v-.05s-.02-.02.01-.03v-.05s-.02-.02.01-.03v-.05s-.02-.02.01-.03v-.05s-.02-.02.01-.03v-.05s-.02-.02.01-.03v-.04s-.02-.02.01-.03v-.06s0,0,.01-.01v-.04s-.02-.02.01-.03v-.05s-.02-.02.01-.03v-.06s0,0,.01-.01v-.04s-.02-.02.01-.03v-.05s-.02-.02.01-.03v-.04s-.02-.02.01-.03v-.05s-.02-.02.01-.03v-.05s-.02-.02.01-.03v-.05s-.02-.02.01-.03v-.05s-.02-.02.01-.03v-.05s-.02-.02.01-.03v-.05s-.02-.02.01-.03v-.05s-.02-.02.01-.03v-.05s-.02-.02.01-.03v-.05s-.02-.02.01-.03v-.05s-.02-.02.01-.03v-.05s-.02-.02.01-.03v-.05s-.02-.02.01-.03v-.05s-.02-.02.01-.03v-.04s-.02-.02.01-.03v-.05s-.02-.02.01-.03v-.05s-.02-.02.01-.03v-.05s-.02-.02.01-.03v-.05s-.02-.02.01-.03v-.05s-.02-.02.01-.03v-.05s-.02-.02.01-.03v-.05s-.02-.02.01-.03v-.05s-.02-.02.01-.03v-.05s-.02-.02.01-.03v-.05s-.02-.02.01-.03v-.05s-.02-.02.01-.03v-.06s0,0,.01-.01v-.05s-.02-.02.01-.03v-.05s-.02-.02.01-.03v-.04s-.02-.02.01-.03v-.05s-.02-.02.01-.03v-.05s-.02-.02.01-.03v-.05s-.02-.02.01-.03v-.05s-.02-.02.01-.03v-.05s-.02-.02.01-.03v-.05s-.02-.02.01-.03v-.04s-.02-.02.01-.03v-.05s-.02-.02.01-.03v-.05s-.02-.02.01-.03v-.05s-.02-.02.01-.03v-.05s-.02-.02.01-.03v-.05s-.02-.02.01-.03v-.06s0,0,.01-.01v-.04s-.02-.02.01-.03v-.05s-.02-.02.01-.03v-.05s-.02-.02.01-.03v-.05s-.02-.02.01-.03v-.05s-.02-.02.01-.03v-.05s-.02-.02.01-.03v-.05s-.02-.02.01-.03v-.05s-.02-.02.01-.03v-.05s-.02-.02.01-.03v-.05s-.02-.02.01-.03v-.05s-.02-.02.01-.03v-.05s-.02-.02.01-.03v-.05s-.02-.02.01-.03v-.04s-.02-.02.01-.03v-.05s-.02-.02.01-.03v-.05s-.02-.02.01-.03v-.05s-.02-.02.01-.03v-.05s-.02-.02.01-.03v-.05s-.02-.02.01-.03v-.05s-.02-.02.01-.03v-.05s-.02-.02.01-.03v-.05s-.02-.02.01-.03v-.05s-.02-.02.01-.03v-.04s-.02-.02.01-.03v-.05s-.02-.02.01-.03v-.05s-.02-.02.01-.03v-.05s-.02-.02.01-.03v-.05s-.02-.02.01-.03v-.06s0,0,.01-.01v-.04s-.02-.02.01-.03v-.06s0,0,.01-.01v-.05s-.02-.02.01-.03v-.05s-.02-.02.01-.03v-.06s0,0,.01-.01v-.05s-.02-.02.01-.03l.03-.12s-.03-.02,0-.03l.03-.12s-.03-.02,0-.03v-.05s-.02-.02.01-.03v-.05s-.02-.02.01-.03v-.05s-.02-.02.01-.03v-.05s-.02-.02.01-.03v-.05s-.02-.02.01-.03v-.05s-.02-.02.01-.03v-.05s-.02-.02.01-.03v-.05s-.02-.02.01-.03v-.05s-.02-.02.01-.03v-.05s-.02-.02.01-.03v-.05s-.02-.02.01-.03v-.05s-.02-.02.01-.03v-.05s-.02-.02.01-.03v-.05s-.02-.02.01-.03v-.05s-.02-.02.01-.03v-.06s-.03-.08.01-.1v-.05s-.05-.01-.01-.03v-.03c-.05.02-.08-.05-.04-.07l-.03-.03s-.01,0,0-.01c-.05-.07-.12-.11-.19-.14,0,.01,0,.01-.01,0h-.04s0,0-.01-.01c-5.47,0-10.94-.01-16.41-.01l-.02-.02s-.01,0,0-.01v-.03s-.02,0-.01-.01c0-.04,0-.07.01-.09L12.31-1.84l.06-.02Z"/>
  <path class="st5" d="M12.37-1.86l-5.53,5.94s-.03.04-.03.07h-.03s-.85-3.23-.85-3.23c-.14-.38-.35-.52-.72-.56h-1.81s-.02-.03-.02-.03v.03s-2.42,0-2.42,0c-1.02.03-1.06,1.6-.04,1.67h2.44s.02.03.02.03v-.03s.67,0,.67,0c.37.05.62.25.74.64l.74,2.78-.02.02h-.02S-1.05,12.49-1.05,12.49h-.03s0-14.35,0-14.35h13.45Z"/>
  <path class="st0" d="M5.5,5.48s0,0,0,.01v.03s.03,0,.01.01v.05s.02,0,.01.01v.03s.02,0,.01.01v.04s.02,0,.01.01v.03s.02,0,.01.01v.04s.02,0,.01.01v.03s.02,0,.01.01v.04s.03,0,.01.01v.03s.02,0,.01.01v.04s.03,0,.01.01v.03s.02,0,.01.01v.04s.03,0,.01.01v.03s.02,0,.01.01v.04s.02,0,.01.01v.03s.02,0,.01.01v.04s.02,0,.01.01v.03s.02,0,.01.01v.04s.02,0,.01.01v.03s.02,0,.01.01v.04s.03,0,.01.01v.03s.02,0,.01.01v.04s.02,0,.01.01v.03s.02,0,.01.01v.04s.03,0,.01.01v.03s.02,0,.01.01v.04s.02,0,.01.01v.03s.02,0,.01.01v.04s.02,0,.01.01v.03s.02,0,.01.01v.04s.02,0,.01.01v.03s.02,0,.01.01v.04s.02,0,.01.01v.03s.02,0,.01.01v.04s.02,0,.01.01v.03s.02,0,.01.01v.04s.02,0,.01.01v.03s.02,0,.01.01v.04s.02,0,.01.01v.03s.02,0,.01.01v.04s.02,0,.01.01v.03s.02,0,.01.01v.04s.02,0,.01.01v.03s.02,0,.01.01v.04s.03,0,.01.01v.03s.02,0,.01.01v.04s.03,0,.01.01v.03s.02,0,.01.01v.04s.02,0,.01.01v.03s.02,0,.01.01v.04s.02,0,.01.01v.03s.02,0,.01.01v.04s.02,0,.01.01v.03s.02,0,.01.01v.04s.02,0,.01.01v.03s.02,0,.01.01v.04s.02,0,.01.01v.03s.02,0,.01.01v.04s.02,0,.01.01v.03s.02,0,.01.01v.04s.03,0,.01.01v.03s.02,0,.01.01v.04s.03,0,.01.01v.03s.02,0,.01.01v.04s.03,0,.01.01v.03s.02,0,.01.01v.04s.03,0,.01.01v.03s.02,0,.01.01v.04s.02,0,.01.01v.03s.02,0,.01.01v.04s.03,0,.01.01v.03s.02,0,.01.01v.05s.02,0,.01.01v.03s.02,0,.01.01v.05s.02,0,.01.01v.03s.02,0,.01.01v.04s.02,0,.01.01v.03s.02,0,.01.01v.04s.02,0,.01.01v.03s.02,0,.01.01v.04s.03,0,.01.01v.03s.02,0,.01.01v.04s.03,0,.01.01v.03s.02,0,.01.01v.04s.02,0,.01.01v.03s.02,0,.01.01v.04s.02,0,.01.01v.03s.02,0,.01.01v.04s.02,0,.01.01v.03s.02,0,.01.01v.04s.02,0,.01.01v.03s.02,0,.01.01v.04s.03,0,.01.01v.03s.02,0,.01.01v.04s.03,0,.01.01v.03s.02,0,.01.01v.04s.02,0,.01.01v.03s.02,0,.01.01v.04s.02,0,.01.01v.03s.02,0,.01.01v.04s.02,0,.01.01v.03s.02,0,.01.01v.04s.03,0,.01.01v.03s.02,0,.01.01v.04s.03,0,.01.01v.03s.02,0,.01.01v.04s.02,0,.01.01v.03s.02,0,.01.01v.04s.02,0,.01.01v.03s.02,0,.01.01v.04s.02,0,.01.01v.03s.02,0,.01.01v.04s.02,0,.01.01v.03s.02,0,.01.01v.04s.03,0,.01.01v.03s.02,0,.01.01v.04s.03,0,.01.01v.03s.02,0,.01.01v.04s.02,0,.01.01v.03s.02,0,.01.01v.04s.02,0,.01.01v.03s.02,0,.01.01v.04s.02,0,.01.01v.03s.02,0,.01.01v.04s.02,0,.01.01v.03s.02,0,.01.01v.04s.02,0,.01.01v.03s.02,0,.01.01v.04s.02,0,.01.01v.03s.02,0,.01.01v.04s.02,0,.01.01v.03s.02,0,.01.01v.04s.02,0,.01.01v.03s.02,0,.01.01v.04s.02,0,.01.01v.03s.02,0,.01.01v.04s.02,0,.01.01v.03s.02,0,.01.01v.04s.03,0,.01.01v.03s.02,0,.01.01v.04s.03,0,.01.01v.03s.02,0,.01.01v.04s.03,0,.01.01v.03s.02,0,.01.01v.04s.02,0,.01.01v.03s.02,0,.01.01v.04s.02,0,.01.01v.03s.02,0,.01.01v.04s.02,0,.01.01v.03s.02,0,.01.01v.04s.02,0,.01.01v.03s.02,0,.01.01v.04s.03,0,.01.01v.03s.02,0,.01.01v.04s.03,0,.01.01v.03s.02,0,.01.01v.04s.02,0,.01.01v.03s.02,0,.01.01v.04s.02,0,.01.01v.03s.02,0,.01.01v.04s.02,0,.01.01v.03s.02,0,.01.01v.04s.02,0,.01.01v.03s.02,0,.01.01v.04s.02,0,.01.01v.03s.02,0,.01.01v.04s.02,0,.01.01v.03s.02,0,.01.01v.04s.02,0,.01.01v.03s.02,0,.01.01v.04s.02,0,.01.01v.03s.02,0,.01.01v.04s.02,0,.01.01v.03s.04,0,.02.02c0,.74,0,1.48-.01,2.21l-1.62-1.73-7.27,7.79v-9.96s6.56-7.03,6.56-7.03c.01,0,.02.02.03.03Z"/>
  <path class="st4" d="M23.25,4.23h.01s.04.01.04.01h.01c.07.03.14.08.19.14,0,0,0,.01,0,.01l.03.03s.01.05.03.07v.03s.01.03.01.03v.05s0,.07.01.1v.06s-.01.03-.01.03v.05s-.01.03-.01.03v.05s-.01.03-.01.03v.05s-.01.03-.01.03v.05s-.01.03-.01.03v.05s-.01.03-.01.03v.05s-.01.03-.01.03v.05s-.01.03-.01.03v.05s-.01.03-.01.03v.05s-.01.03-.01.03v.05s-.01.03-.01.03v.05s-.01.03-.01.03v.05s-.01.03-.01.03v.05s-.01.03-.01.03v.05s-.01.03-.01.03v.05s-.01.03-.01.03l-.03.12v.03s-.03.12-.03.12v.03s-.01.05-.01.05h0s-.01.07-.01.07v.03s-.01.05-.01.05v.03s-.01.05-.01.05h0s-.01.07-.01.07v.03s-.01.04-.01.04h0s-.01.07-.01.07v.03s-.01.05-.01.05v.03s-.01.05-.01.05v.03s-.01.05-.01.05v.03s-.01.05-.01.05v.03s-.01.04-.01.04v.03s-.01.05-.01.05v.03s-.01.05-.01.05v.03s-.01.05-.01.05v.03s-.01.05-.01.05v.03s-.01.05-.01.05v.03s-.01.05-.01.05v.03s-.01.05-.01.05v.03s-.01.05-.01.05v.03s-.01.05-.01.05v.03s-.01.04-.01.04v.03s-.01.05-.01.05v.03s-.01.05-.01.05v.03s-.01.05-.01.05v.03s-.01.05-.01.05v.03s-.01.05-.01.05v.03s-.01.05-.01.05v.03s-.01.05-.01.05v.03s-.01.05-.01.05v.03s-.01.05-.01.05v.03s-.01.05-.01.05v.03s-.01.05-.01.05v.03s-.01.05-.01.05v.03s-.01.04-.01.04h0s-.01.07-.01.07v.03s-.01.05-.01.05v.03s-.01.05-.01.05v.03s-.01.05-.01.05v.03s-.01.05-.01.05v.03s-.01.05-.01.05v.03s-.01.04-.01.04v.03s-.01.05-.01.05v.03s-.01.05-.01.05v.03s-.01.05-.01.05v.03s-.01.05-.01.05v.03s-.01.05-.01.05v.03s-.01.05-.01.05v.03s-.01.04-.01.04v.03s-.01.05-.01.05v.03s-.01.05-.01.05h0s-.01.07-.01.07v.03s-.01.05-.01.05v.03s-.01.05-.01.05v.03s-.01.05-.01.05v.03s-.01.05-.01.05v.03s-.01.05-.01.05v.03s-.01.05-.01.05v.03s-.01.05-.01.05v.03s-.01.05-.01.05v.03s-.01.05-.01.05v.03s-.01.05-.01.05v.03s-.01.05-.01.05v.03s-.01.04-.01.04v.03s-.01.05-.01.05v.03s-.01.05-.01.05v.03s-.01.05-.01.05v.03s-.01.05-.01.05v.03s-.01.05-.01.05v.03s-.01.05-.01.05v.03s-.01.05-.01.05v.03s-.01.05-.01.05v.03s-.01.05-.01.05v.03s-.01.05-.01.05v.03s-.01.05-.01.05v.03s-.01.05-.01.05v.03s-.01.05-.01.05v.03s-.01.04-.01.04v.03s-.01.05-.01.05v.03s-.01.04-.01.04h0s-.01.07-.01.07v.03s-.01.05-.01.05v.03s-.01.04-.01.04h0s-.01.07-.01.07v.03s-.01.04-.01.04v.03s-.01.05-.01.05v.03s-.01.05-.01.05v.03s-.01.05-.01.05v.03s-.01.05-.01.05v.03s-.01.05-.01.05v.03s-.01.05-.01.05v.03s-.01.04-.01.04v.03s-.01.05-.01.05v.03s-.01.05-.01.05v.03s-.01.05-.01.05v.03s-.01.05-.01.05v.03s-.01.05-.01.05v.03s-.01.05-.01.05v.03s-.01.05-.01.05v.03s-.01.04-.01.04v.03s-.01.05-.01.05v.03s-.01.04-.01.04h0s-.01.04-.01.04c-.02.02-.02.05-.03.07-.07.13-.2.2-.34.22,0,0,0,0-.01,0h-.12s-.09.01-.09.01h-.1s-.09.02-.09.02c-.05,0-.1,0-.15.01h-.05s-.12.01-.12.01h-.08s-.12.01-.12.01h-.06c-.05,0-.11.01-.16.01h-.06s-.1.01-.1.01h-.09c-.06,0-.12.01-.18.02h-.04s-.07.01-.11,0l-10.17.73h-.23s-.03,0-.03,0v-.41s-.1-.39-.1-.39l.02-.03.03-.03c.55-.04,1.09-.08,1.64-.13l-.28-1.56h-1.82s-.02-.02-.02-.02c-.01,0-.03,0-.03,0-.07-.24-.15-.53-.2-.77-.02-.04-.02-.08,0-.09v-.03c.64,0,1.28,0,1.91-.01l-.45-2.54c-.7,0-1.45,0-2.13,0h-.03c-.08-.3-.15-.59-.23-.88l.02-.02.02-.02c.73,0,1.46,0,2.19,0l-.45-2.54c-.8,0-1.63,0-2.43,0h-.03c-.08-.3-.15-.59-.23-.88l.02-.02c5.47,0,10.95,0,16.43.01Z"/>
  <path class="st3" d="M6.81,4.15h0s.01.04.01.04c0,0,0,0,0,.01h0s.24.92.24.92h.03c.22.85.44,1.69.66,2.54l-.02.02.24.91h.03c.22.85.45,1.7.67,2.55l-.02.02.23.87h.03c.15.57.3,1.14.45,1.72l-.02.02.1.42v.43s0,2.14,0,2.14l.02.03c4.46,0,8.92,0,13.38.01h.04s.04,0,.06.02h.02s.04.01.04.01h.01s.03.01.03.01h0s.06.03.06.03l.06.03s.09.06.12.1c0,0,0,0,.01,0,.05.05.09.1.13.16h0s.05.08.06.12h0s.03.07.03.07h0s.03.09.03.09h0s.01.06.01.06v.03s.01.06.01.06v.17s0,.05-.01.07v.03s-.01.04-.01.04h0s-.01.04-.01.04c0,0,0,0,0,.01v.03s-.01.01-.01.01c-.01.05-.04.09-.07.13,0,0,0,0,0,.01-.06.09-.12.17-.2.23,0,0,0,0-.01,0-.02.02-.04.04-.07.06h-.01s-.04.04-.07.04h-.01s-.06.03-.06.03h-.01s-.04.01-.04.01h-.01s-.04.01-.04.01h-.01s-.05.01-.08.01h-1.31c-.07,0-.14,0-.21,0h-.02s0,.04-.01.04c-.11.01-.26.02-.37.01l-.02-.03s-.07-.01-.12,0v-.02s-1.13,0-1.13,0h-.02c-.11.01-.21.01-.32.02h-.02s-.03-.01-.03-.01c-.01.01-.03.01-.04,0,0,0-.03,0-.04,0-.05.02-.14.03-.17,0h-.04s-.07.01-.07.01c-.58,0-1.16,0-1.74,0h-.02s-.03-.01-.03-.01c-.02.02-.06.02-.08,0h-.17s-.08.02-.11,0h-.03s-.07.02-.09,0h-.17s0,0-.02.01c-.03,0-.4,0-.43,0,0,0,0,0,0,0h-.08s-.04.02-.05,0h-.17c-.1.03-.23.02-.33,0h-.03s-.04.02-.04.02h-2.22s-.01,0-.04-.01c-.02,0-.05,0-.07,0,0,0-.02,0-.03,0h-.16s-.05.02-.05.02h-.87s-.07-.01-.07-.01c0,0-.01,0-.01,0-.02.02-.05.02-.07,0h-1.58s-.07.02-.09,0h-1.06s-.09,0-.11.02c-.08.02-.17.03-.27.01-.09.01-.18,0-.27-.01l-.03-.02s-.09.02-.13.01c0,0,0,0,0-.02h-.29s-.07-.01-.09-.04c0-1.44,0-2.88,0-4.32-.02,0-.01-.02-.01-.02v-.03s-.01-.01-.01-.01v-.04s-.01-.01-.01-.01v-.03s-.01-.01-.01-.01v-.04s-.01-.01-.01-.01v-.03s-.01-.01-.01-.01v-.04s-.01-.01-.01-.01v-.03s-.01-.01-.01-.01v-.04s-.01-.01-.01-.01v-.03s-.01-.01-.01-.01v-.04s-.01-.01-.01-.01v-.03s-.01-.01-.01-.01v-.04s-.01-.01-.01-.01v-.03s-.01-.01-.01-.01v-.04s-.01-.01-.01-.01v-.03s-.01-.01-.01-.01v-.04s-.01-.01-.01-.01v-.03s-.01-.01-.01-.01v-.04s-.01,0-.01-.01v-.03s-.01-.01-.01-.01v-.04s-.01,0-.01-.01v-.03s-.01-.01-.01-.01v-.04s-.01,0-.01-.01v-.03s-.01-.01-.01-.01v-.04s-.01-.01-.01-.01v-.03s-.01-.01-.01-.01v-.04s-.01,0-.01-.01v-.03s-.01-.01-.01-.01v-.04s-.01,0-.01-.01v-.03s-.01-.01-.01-.01v-.04s-.01,0-.01-.01v-.03s-.01-.01-.01-.01v-.04s-.01,0-.01-.01v-.03s-.01-.01-.01-.01v-.04s-.01,0-.01-.01v-.03s-.01-.01-.01-.01v-.04s-.01,0-.01-.01v-.03s-.01-.01-.01-.01v-.04s-.01-.01-.01-.01v-.03s-.01-.01-.01-.01v-.04s-.01,0-.01-.01v-.03s-.01-.01-.01-.01v-.04s-.01,0-.01-.01v-.03s-.01-.01-.01-.01v-.04s-.01,0-.01-.01v-.03s-.01-.01-.01-.01v-.04s-.01,0-.01-.01v-.03s-.01-.01-.01-.01v-.04s-.01,0-.01-.01v-.03s-.01-.01-.01-.01v-.04s-.01,0-.01-.01v-.03s-.01-.01-.01-.01v-.04s-.01-.01-.01-.01v-.03s-.01-.01-.01-.01v-.04s-.01,0-.01-.01v-.03s-.01-.01-.01-.01v-.04s-.01,0-.01-.01v-.03s-.01-.01-.01-.01v-.04s-.01,0-.01-.01v-.03s-.01-.01-.01-.01v-.04s-.01,0-.01-.01v-.03s-.01-.01-.01-.01v-.04s-.01,0-.01-.01v-.03s-.01-.01-.01-.01v-.04s-.01,0-.01-.01v-.03s-.01-.01-.01-.01v-.04s-.01,0-.01-.01v-.03s-.01-.01-.01-.01v-.04s-.01,0-.01-.01v-.03s-.01-.01-.01-.01v-.04s-.01,0-.01-.01v-.03s-.01-.01-.01-.01v-.04s-.01,0-.01-.01v-.03s-.01-.01-.01-.01v-.04s-.01,0-.01-.01v-.03s-.01-.01-.01-.01v-.04s-.01,0-.01-.01v-.03s-.01-.01-.01-.01v-.04s-.01,0-.01-.01v-.03s-.01-.01-.01-.01v-.04s-.01,0-.01-.01v-.03s-.01-.01-.01-.01v-.04s-.01,0-.01-.01v-.03s-.01-.01-.01-.01v-.04s-.01,0-.01-.01v-.03s-.01-.01-.01-.01v-.04s-.01,0-.01-.01v-.03s-.01-.01-.01-.01v-.04s-.01,0-.01-.01v-.03s-.01-.01-.01-.01v-.04s-.01,0-.01-.01v-.03s-.01-.01-.01-.01v-.04s-.01,0-.01-.01v-.03s-.01-.01-.01-.01v-.04s-.01,0-.01-.01v-.03s-.01-.01-.01-.01v-.04s-.01-.01-.01-.01v-.03s-.01-.01-.01-.01v-.04s-.01,0-.01-.01v-.03s-.01-.01-.01-.01v-.05s-.01,0-.01-.01v-.03s-.01-.01-.01-.01v-.05s-.01,0-.01-.01v-.03s-.01-.01-.01-.01v-.04s-.01,0-.01-.01v-.03s-.01-.01-.01-.01v-.04s-.01,0-.01-.01v-.03s-.01-.01-.01-.01v-.04s-.01,0-.01-.01v-.03s-.01-.01-.01-.01v-.04s-.01,0-.01-.01v-.03s-.01-.01-.01-.01v-.04s-.01,0-.01-.01v-.03s-.01-.01-.01-.01v-.04s-.01,0-.01-.01v-.03s-.01-.01-.01-.01v-.04s-.01,0-.01-.01v-.03s-.01-.01-.01-.01v-.04s-.01,0-.01-.01v-.03s-.01-.01-.01-.01v-.04s-.01,0-.01-.01v-.03s-.01-.01-.01-.01v-.04s-.01-.01-.01-.01v-.03s-.01-.01-.01-.01v-.04s-.01-.01-.01-.01v-.03s-.01-.01-.01-.01v-.04s-.01,0-.01-.01v-.03s-.01-.01-.01-.01v-.04s-.01,0-.01-.01v-.03s-.01-.01-.01-.01v-.04s-.01,0-.01-.01v-.03s-.01-.01-.01-.01v-.04s-.01,0-.01-.01v-.03s-.01-.01-.01-.01v-.04s-.01,0-.01-.01v-.03s-.01-.01-.01-.01v-.04s-.01,0-.01-.01v-.03s-.01-.01-.01-.01v-.04s-.01,0-.01-.01v-.03s-.01-.01-.01-.01v-.04s-.01,0-.01-.01v-.03s-.01-.01-.01-.01v-.04s-.01,0-.01-.01v-.03s-.01-.01-.01-.01v-.04s-.01,0-.01-.01v-.03s-.01-.01-.01-.01v-.04s-.01,0-.01-.01v-.03s-.01-.01-.01-.01v-.04s-.01,0-.01-.01v-.03s-.01-.01-.01-.01v-.04s-.01,0-.01-.01v-.03s-.01-.01-.01-.01v-.04s-.01,0-.01-.01v-.03s-.01-.01-.01-.01v-.04s-.01,0-.01-.01v-.03s-.01-.01-.01-.01v-.04s-.01,0-.01-.01v-.03s-.01-.01-.01-.01v-.04s-.01-.01-.01-.01v-.03s-.01-.01-.01-.01v-.04s-.01,0-.01-.01v-.03s-.01-.01-.01-.01v-.04s-.01,0-.01-.01v-.03s-.01-.01-.01-.01v-.04s-.01,0-.01-.01v-.03s-.01-.01-.01-.01v-.04s-.01,0-.01-.01v-.03s-.01-.01-.01-.01v-.04s-.01,0-.01-.01v-.03s-.01-.01-.01-.01v-.04s-.01,0-.01-.01v-.03s-.01-.01-.01-.01v-.05s-.01-.01-.01-.01v-.03s-.02,0-.01-.01l-.75-2.8c-.09-.35-.38-.6-.71-.62h-.67s-.03-.01-.03-.01V.34s.03-.02.03-.02h1.83c.35,0,.66.26.76.62l.85,3.21Z"/>
  <path class="st1" d="M21.3,18.54s.03-.01.04,0h.08s.08.01.12.03h.02s.06.01.06.01h.01s.06.01.06.01h.01s.04.01.04.01h.01s.04.01.04.01h.01s.08.03.08.03c0,0,0,0,0,0h.03s0,.02.01.01h.03s0,.01,0,.01c.04.01.09.03.12.06,0,0,0,0,.01,0,.56.27,1.04.76,1.29,1.38,0,0,0,0,0,.01l.03.06s0,0,0,.01c.03.06.05.13.07.2h0s.02.1.02.1h0s.01.07.01.07h0s.01.07.01.07h0s.01.07.01.07v.03s.01.05.01.08v.04s.01.09.01.13v.07c.01.05.01.11,0,.16v.07s0,.09-.01.13v.04s0,.05-.01.08v.03s-.01.06-.01.06h0s-.01.07-.01.07h0s-.01.06-.01.06h0s-.01.06-.01.06h0s-.01.06-.01.06h0s-.01.04-.01.04h0c0,.05-.02.09-.04.13h0c-.01.06-.03.1-.05.14,0,0,0,0,0,.01-.03.08-.06.15-.11.22,0,0,0,0,0,.01-.22.41-.54.76-.93.99,0,0,0,0-.01,0-.06.05-.13.08-.2.11,0,0,0,0-.01,0-.04.03-.08.05-.12.06h-.01s-.07.04-.11.04h-.01s-.03.01-.03.01c0,0,0,0-.01,0l-.1.03h-.01s-.04.01-.04.01h-.01s-.06.01-.06.01h-.01s-.06.01-.06.01h-.02s-.08.02-.08.02h-.03s-.08.01-.12.01h-.06s-.11.02-.15,0h-.06s-.09,0-.14-.01c0,0-.02,0-.02,0-.03,0-.05,0-.07-.01h-.02s-.06-.01-.06-.01h-.01s-.06-.01-.06-.01h-.01s-.04-.01-.04-.01h-.01s-.1-.03-.1-.03h-.01c-.05,0-.1-.03-.15-.06,0,0,0,0-.01,0h-.03s0-.02,0-.02l-.08-.04s0,0-.01,0c-.44-.21-.82-.57-1.09-1.01,0,0,0-.01,0-.01-.02-.02-.03-.04-.04-.06,0,0,0,0,0,0-.05-.08-.1-.18-.13-.28h0s-.03-.07-.03-.07c0,0,0,0,0-.01l-.04-.1h0s-.01-.04-.01-.04c0,0,0,0,0-.01l-.03-.09h0s-.01-.06-.01-.06h0s-.01-.06-.01-.06h0s-.01-.07-.01-.07c0,0,0,0,0-.01v-.06s-.01-.02-.01-.02v-.08s-.01-.02-.01-.03v-.12s-.01-.05-.01-.05c-.01-.09-.01-.2,0-.29v-.04s.01-.12.01-.12c0,0,0-.02,0-.03,0-.03,0-.05.01-.07v-.03s.01-.06.01-.06h0s.01-.07.01-.07h0s.01-.06.01-.06h0s.01-.06.01-.06h0s.03-.1.03-.1c0,0,0,0,0-.01v-.03s.01,0,.01-.01v-.03s.01,0,.01-.01c.03-.09.06-.18.11-.26v-.04c.24-.49.62-.9,1.08-1.15h.04c.08-.06.16-.1.24-.13,0,0,0,0,.01,0h.03s0-.01.01-.01h.03s0-.01.01-.01l.08-.03h.01s.04-.01.04-.01h.01s.04-.01.04-.01h.01s.05-.01.05-.01h.01s.05-.02.05-.02h.01s.1-.03.13-.02h.4Z"/>
  <path class="st1" d="M8.89,18.56s.03-.02.04,0h.01s.05,0,.08.02h.01s.06.01.06.01h.01s.06.01.06.01h.01s.04.01.04.01h.01s.04.01.04.01h.01s.08.03.08.03c0,0,0,0,0,0h.03s0,.02.01.01h.03s0,.01,0,.01c.04.01.09.03.12.06,0,0,0,0,.01,0,.47.22.89.6,1.15,1.1,0,0,0,0,0,.01.06.11.12.23.16.35,0,0,0,0,0,.01.03.06.05.13.07.2h0s.03.1.03.1h0s.01.07.01.07h0s.01.06.01.06v.02s.01.06.01.06c0,0,0,.02,0,.03v.07s.01.02.01.03c0,.04,0,.09.01.13v.05c.01.06.01.14,0,.2v.06c0,.05,0,.1-.01.15,0,0,0,.02,0,.03,0,.03,0,.05-.01.08v.03s-.01.06-.01.06h0s-.01.07-.01.07h0s-.01.06-.01.06h0s-.01.06-.01.06h0s-.01.06-.01.06h0s-.01.04-.01.04h0c0,.05-.02.09-.04.13h0c-.01.06-.03.1-.05.14,0,0,0,0,0,.01-.03.08-.06.15-.11.22,0,0,0,0,0,.01-.22.41-.54.76-.93.99,0,0,0,0-.01,0-.06.05-.13.08-.2.11,0,0,0,0-.01,0-.04.03-.08.05-.12.06h-.01s-.07.04-.11.04h-.01s-.03.01-.03.01h-.01s-.04.02-.04.02h-.01s-.02.01-.04.01h-.01s-.04.01-.04.01h-.01s-.06.01-.06.01h-.01s-.06.01-.06.01h-.02s-.08.02-.08.02h-.01s-.09.01-.14.01h-.06s-.03.02-.04,0c-.01.01-.05.01-.07,0,0,.02-.03.02-.04,0h-.06s-.09,0-.14-.01c0,0-.02,0-.02,0-.03,0-.05,0-.07-.01h-.02s-.06-.01-.06-.01h-.01s-.06-.01-.06-.01h-.01s-.04-.01-.04-.01h-.01s-.1-.03-.1-.03h-.01c-.05,0-.1-.03-.15-.06h-.01s-.09-.03-.12-.06c0,0,0,0-.01,0-.47-.23-.87-.61-1.12-1.08,0,0,0,0,0-.01-.05-.08-.1-.18-.13-.28h0s-.03-.07-.03-.07c0,0,0,0,0-.01l-.04-.1h0s-.04-.14-.04-.14h0s-.01-.06-.01-.06h0s-.01-.06-.01-.06h0s-.01-.07-.01-.07h0s-.01-.09-.01-.09c0,0,0,0,0-.01v-.07s-.01-.02-.01-.03c0-.04,0-.09-.01-.13v-.05c-.01-.07-.01-.16,0-.23-.01,0,0-.02,0-.03v-.05s.01-.12.01-.12c0,0,0-.02,0-.03,0-.03,0-.05.01-.07v-.03s.01-.06.01-.06h0s.01-.07.01-.07h0s.01-.06.01-.06h0s.01-.06.01-.06h0s.03-.1.03-.1c0,0,0,0,0-.01v-.03s.01,0,.01-.01v-.03s.01,0,.01-.01c.03-.1.07-.2.12-.29,0,0,0-.01,0-.01.23-.49.61-.9,1.07-1.15h.04c.08-.06.16-.1.24-.13,0,0,0,0,.01,0h.03s0-.01.01-.01h.03s0-.01.01-.01l.08-.03h.01s.04-.01.04-.01h.01s.04-.01.04-.01h.01s.05-.01.05-.01h.01s.05-.02.05-.02c0-.01,0-.01.01,0h.07s.02-.02.03-.01c0-.01.02,0,.03,0,.18-.02.36-.02.53,0Z"/>
  <path class="st5" d="M23.25,4.23H6.87s-.03,0-.04-.01h0s.04,0,.07,0h16.34s.02,0,.02.01Z"/>
  <path class="st5" d="M22.84,16.81h-13.38s-.02-.03-.02-.04c.02.03.03.03.07.03h13.31s.02.01.02.01Z"/>
  <path class="st0" d="M15.34,18.54s0,.02-.03.03h-2.24s-.03-.02-.03-.03h2.3Z"/>
  <path class="st5" d="M7.91,18.54s-.05.01-.08,0c-.02-.04-.02-.08-.02-.13v-2.02s.01-2.21.01-2.21v4.31s.06.03.08.04Z"/>
  <path class="st0" d="M18.98,18.54c-.05.03-.12.03-.19.03h-.71s-.07,0-.11,0h-.13s-.57,0-.57,0c-.02,0-.05-.03-.08,0,0,0-.03,0-.03,0,0,0-.01-.01-.01-.02h1.83Z"/>
  <path class="st0" d="M12.79,18.54s-.02.03-.04.03h-.88s-.06-.02-.07-.03h.99Z"/>
  <path class="st0" d="M16.47,18.54s-.02.03-.04.03h-.37s-.04-.01-.04-.03h.45Z"/>
  <path class="st0" d="M19.66,18.54s-.04.03-.07.03h-.21s-.06,0-.06,0c0,0-.02-.01-.02-.03h.36Z"/>
  <path class="st0" d="M15.7,18.54s-.03.03-.05.03h-.23s-.05-.01-.05-.03h.33Z"/>
  <path class="st0" d="M19.19,18.54s-.14.04-.17.03c0,0-.01-.02,0-.03h.17Z"/>
  <path class="st0" d="M21.53,18.53s-.04,0-.06.02c.03,0,.05,0,.07.02-.04,0-.08,0-.12-.02h-.08s-.04,0-.04,0c0-.01.01-.02.03-.02h.2Z"/>
  <polygon class="st0" points="20.9 18.56 20.77 18.57 20.77 18.54 20.91 18.53 20.9 18.56"/>
  <path class="st0" d="M18.74,21.28s-.02-.01-.02-.03v-.23s0-.03.02-.03v.29Z"/>
  <path class="st0" d="M18.99,19.96c.09-.23.25-.42.4-.62.03-.04.05-.07.1-.1.18-.16.36-.33.58-.42-.46.25-.83.66-1.07,1.15Z"/>
  <path class="st5" d="M6.21,21.26s-.01,0-.01-.01v-.21s0-.01.01,0v.23Z"/>
  <path class="st0" d="M21.23,23.74s0,.02-.01.03c0,0-.02,0-.03,0-.04-.02-.07.01-.09,0,0,0-.01-.02-.01-.03h.15Z"/>
  <path class="st5" d="M11.05,21.24v-.2s.01,0,.01.01v.17s0,.02-.01.01Z"/>
  <path class="st5" d="M20.16,13.87s-.01.02-.03.02h-.15s.01-.02.03-.02h.15Z"/>
  <path class="st0" d="M16.87,18.54s-.03.04-.06.03c-.02,0-.04,0-.05-.03h.11Z"/>
  <path class="st0" d="M8.33,18.54s.01,0,0,.01h-.03s-.07.01-.07.01h-.01s-.02.01-.03,0v-.03s.13,0,.13,0Z"/>
  <path class="st5" d="M20.58,13.84s0,.01-.01.01h-.15s.01-.01.03-.01h.13Z"/>
  <path class="st0" d="M16.73,18.54s-.02.03-.05.03-.04,0-.05-.03h.09Z"/>
  <path class="st5" d="M21.17,13.8s0,.01-.01.01h-.13s.1-.01.15-.01Z"/>
  <path class="st0" d="M23.58,21.22v-.16s.02.13,0,.16Z"/>
  <path class="st0" d="M21.02,23.74h-.12s-.01,0-.01-.01c.05,0,.09,0,.14.01Z"/>
  <path class="st5" d="M8.91,23.73s0,.01-.01.01h-.12s.09,0,.14-.01Z"/>
  <path class="st5" d="M8.49,23.74h-.12s-.01,0-.01-.01c.05,0,.09,0,.14.01Z"/>
  <path class="st0" d="M17.12,18.54s-.02.03-.05.03c-.02,0-.03-.01-.03-.03h.08Z"/>
  <path class="st5" d="M11.04,21.44s0-.1.01-.15v.13s0,.02-.01.01Z"/>
  <path class="st5" d="M6.22,21.45s-.01,0-.01-.01v-.12s.01.09.01.13Z"/>
  <path class="st0" d="M21.42,23.73s0,.01-.01.01h-.11s.08-.01.12-.01Z"/>
  <path class="st0" d="M10.15,18.54s-.03.03-.05.03c-.02,0-.04,0-.04-.03h.09Z"/>
  <path class="st5" d="M20.77,13.82s-.08.01-.12.01c.04-.02.08-.01.12-.01Z"/>
  <path class="st5" d="M20.97,13.81s-.08.01-.12.01c.04-.02.08,0,.12-.01Z"/>
  <path class="st5" d="M21.57,13.77s-.08,0-.12.01c.04-.02.08,0,.12-.01Z"/>
  <path class="st0" d="M6.86,19.34s.06-.07.1-.1c-.01.04-.06.09-.1.1Z"/>
  <path class="st5" d="M11.05,20.98s0-.09-.01-.13c0,0,.01,0,.01.01v.12Z"/>
  <path class="st0" d="M23.58,20.99s0-.09-.01-.13c0,0,.01,0,.01.01v.12Z"/>
  <path class="st0" d="M23.57,21.42s0-.09.01-.13v.12s0,.02-.01.01Z"/>
  <path class="st0" d="M11.79,18.54s-.02.03-.03.03-.03-.01-.03-.03c.02,0,.05,0,.07,0Z"/>
  <path class="st5" d="M19.95,13.88s-.07,0-.11,0c.03-.02.07,0,.11,0Z"/>
  <path class="st0" d="M18.75,21.45s0-.08-.01-.12c.02.04,0,.08.01.12Z"/>
  <path class="st5" d="M6.21,20.95s-.01-.09.01-.12c0,.04,0,.08-.01.12Z"/>
  <path class="st0" d="M18.74,20.95s-.01-.09.01-.12c0,.04,0,.08-.01.12Z"/>
  <path class="st5" d="M20.35,13.85s-.06.01-.1.01c.03-.02.06-.01.1-.01Z"/>
  <path class="st5" d="M21.35,13.78s-.06.01-.1.01c.03-.02.06-.01.1-.01Z"/>
  <path class="st5" d="M22.91,18.53s-.05.01-.08.01c.02-.02.05,0,.08-.01Z"/>
  <path class="st5" d="M9,18.55s.03,0,.03.02c-.03,0-.06,0-.08-.02,0-.01.04-.01.05,0Z"/>
  <path class="st0" d="M21.53,23.71s-.05.01-.08.01c.02-.02.05-.01.08-.01Z"/>
  <path class="st5" d="M21.58,13.77c.13-.02.26-.09.34-.22-.06.13-.2.22-.34.22Z"/>
  <path class="st5" d="M9,23.71s-.06.01-.08.01c.02-.02.05-.01.08-.01Z"/>
  <path class="st0" d="M15.93,18.54s-.02.04-.03.03c0,0-.02-.02-.02-.03h.05Z"/>
  <path class="st0" d="M8.71,23.74s0,.02-.02.03c0,0-.01,0-.02-.01-.01,0-.01,0,0-.02h.04Z"/>
  <path class="st0" d="M8.6,23.74s.02,0,0,.02c0,0-.02.02-.03,0,0,0-.01-.02-.01-.02h.04Z"/>
  <path class="st0" d="M20.86,23.73s-.06.01-.07-.01c.02,0,.05,0,.07.01Z"/>
  <path class="st5" d="M8.34,23.73s-.06.01-.07-.01c.02,0,.05,0,.07.01Z"/>
  <path class="st5" d="M23.32,6.13s0-.08.03-.12c0,.04,0,.08-.03.12Z"/>
  <path class="st5" d="M23.57,17.82s0-.05,0-.07c0,.02.01.06,0,.07Z"/>
  <path class="st5" d="M23.34,5.98s0-.08.03-.12c0,.04,0,.08-.03.12Z"/>
  <path class="st0" d="M9,18.54v.02s-.05,0-.05,0h-.01s.04-.03.07-.02Z"/>
  <path class="st5" d="M6.25,21.64s-.02-.05-.01-.07c.01.02.01.05.01.07Z"/>
  <path class="st0" d="M18.76,21.55s-.02-.05-.01-.08c.01.02.01.05.01.08Z"/>
  <path class="st5" d="M6.24,21.55s-.02-.05-.01-.07c.01.02.01.05.01.07Z"/>
  <path class="st0" d="M23.56,21.54s0-.05.01-.08c0,.03.01.06-.01.08Z"/>
  <path class="st5" d="M11.03,21.54s0-.05.01-.08c0,.02.01.06-.01.08Z"/>
  <path class="st0" d="M23.57,20.82s0-.05-.01-.08c.02.01.02.05.01.08Z"/>
  <path class="st5" d="M11.04,20.82s-.01-.05-.01-.07c.02.01.02.05.01.07Z"/>
  <path class="st0" d="M18.75,20.81s-.01-.06.01-.07c0,.03,0,.05-.01.07Z"/>
  <path class="st5" d="M6.23,20.81s-.01-.06.01-.07c0,.03,0,.05-.01.07Z"/>
  <path class="st5" d="M8.67,23.74v.02s-.05,0-.07,0v-.02s.07,0,.07,0Z"/>
  <path class="st5" d="M22.62,9.85s0-.05.01-.06c0,.02,0,.05-.01.06Z"/>
  <path class="st5" d="M22.23,11.93s0-.05.01-.06c0,.02,0,.05-.01.06Z"/>
  <path class="st5" d="M6.24,20.71s0-.05.01-.06c0,.02,0,.04-.01.06Z"/>
  <path class="st0" d="M23.54,20.65s-.01-.04-.01-.06c.02.01.01.04.01.06Z"/>
  <path class="st0" d="M18.78,20.64s0-.05.01-.06c0,.02,0,.04-.01.06Z"/>
  <path class="st5" d="M6.25,20.64s0-.05.01-.06c0,.02,0,.04-.01.06Z"/>
  <path class="st0" d="M23.53,20.58s-.01-.04-.01-.06c.02,0,.02.04.01.06Z"/>
  <path class="st5" d="M11,20.58s-.01-.04-.01-.06c.02,0,.02.04.01.06Z"/>
  <path class="st5" d="M10.74,19.83c-.22-.39-.52-.71-.89-.94l-.26-.15c.27.12.52.3.74.53.16.17.31.35.41.57Z"/>
  <path class="st0" d="M23.4,20.12c-.22-.51-.57-.94-1.02-1.23l-.26-.15c.57.25,1.05.77,1.29,1.38Z"/>
  <path class="st5" d="M6.46,19.96c.09-.23.25-.43.4-.62.04-.03.07-.06.1-.1.18-.16.36-.33.58-.42-.46.26-.83.66-1.07,1.15Z"/>
  <path class="st5" d="M7.65,23.53c-.46-.21-.88-.61-1.12-1.08.27.47.66.85,1.12,1.08Z"/>
  <path class="st5" d="M11.03,20.72s-.01-.04-.01-.06c.02,0,.02.04.01.06Z"/>
  <path class="st0" d="M20.18,23.53c-.45-.21-.83-.57-1.09-1.01.27.44.64.79,1.09,1.01Z"/>
  <path class="st5" d="M9.83,23.42c.38-.24.7-.58.93-.99-.22.42-.54.76-.93.99Z"/>
  <path class="st0" d="M22.35,23.42c.38-.24.7-.58.93-.99-.22.42-.54.76-.93.99Z"/>
  <path class="st0" d="M23.55,20.72s-.01-.04-.01-.06c.02.01.01.04.01.06Z"/>
  <path class="st0" d="M21.69,18.6s-.04,0-.06-.01c.02,0,.05,0,.06.01Z"/>
  <path class="st0" d="M20.69,18.59s-.04.01-.05.01c0-.02.04-.01.05-.01Z"/>
  <path class="st5" d="M9.16,18.6s-.04,0-.06-.01c.02,0,.05,0,.06.01Z"/>
  <path class="st5" d="M8.16,18.59s-.04.01-.05.01c0-.02.04-.01.05-.01Z"/>
  <path class="st0" d="M21.62,18.58s-.04,0-.06-.01c.02,0,.05,0,.06.01Z"/>
  <path class="st0" d="M20.75,18.57s-.04.01-.05.01c0-.02.04-.01.05-.01Z"/>
  <path class="st5" d="M9.09,18.58s-.04,0-.06-.01c.02,0,.05,0,.06.01Z"/>
  <path class="st5" d="M8.2,18.57h.03s-.03.01-.05.02c0-.01.01-.02.03-.02Z"/>
  <path class="st5" d="M23.57,4.76s0-.04.01-.06c0,.02,0,.05-.01.06Z"/>
  <path class="st5" d="M11.02,21.62s0-.04.01-.06c0,.02,0,.05-.01.06Z"/>
  <path class="st0" d="M23.54,21.62s0-.04.01-.06c0,.02,0,.05-.01.06Z"/>
  <path class="st0" d="M18.78,21.64s-.02-.04-.01-.06c0,.02.01.04.01.06Z"/>
  <path class="st5" d="M23.26,18.37s.06-.05.08-.08l.12-.15c-.05.09-.12.18-.2.23Z"/>
  <path class="st5" d="M11,21.69s0-.04.01-.06c0,.02,0,.05-.01.06Z"/>
  <path class="st5" d="M23.58,17.58s-.01-.04-.01-.06c.02.01.01.04.01.06Z"/>
  <path class="st5" d="M8.05,23.67s-.07,0-.1-.03c.03,0,.07.01.1.03Z"/>
  <path class="st0" d="M20.58,23.67s-.07,0-.1-.03c.03,0,.07.01.1.03Z"/>
  <path class="st0" d="M21.83,23.64s-.06.03-.1.03c.03-.02.06-.02.1-.03Z"/>
  <path class="st5" d="M8.17,23.7s-.05,0-.06-.01c.02,0,.04,0,.06.01Z"/>
  <path class="st5" d="M9.15,23.69s-.04.02-.06.01c.01-.01.04-.01.06-.01Z"/>
  <path class="st0" d="M20.7,23.7s-.05,0-.06-.01c.02,0,.04,0,.06.01Z"/>
  <path class="st5" d="M23.22,6.63s0-.05.01-.06c0,.02,0,.05-.01.06Z"/>
  <path class="st0" d="M21.67,23.69s-.04.01-.06.01c.01-.01.04-.01.06-.01Z"/>
  <path class="st5" d="M8.24,23.71s-.05,0-.06-.01c.02,0,.04,0,.06.01Z"/>
  <path class="st5" d="M9.08,23.7s-.04.01-.06.01c.02-.01.04-.01.06-.01Z"/>
  <path class="st0" d="M20.77,23.71s-.05,0-.06-.01c.02,0,.04,0,.06.01Z"/>
  <path class="st5" d="M22.83,8.71s0-.05.01-.06c0,.02,0,.05-.01.06Z"/>
  <path class="st0" d="M21.61,23.7s-.04.01-.06.01c.02-.01.04-.01.06-.01Z"/>
  <path class="st5" d="M22.93,16.82s-.04,0-.06-.01c.02,0,.05,0,.06.01Z"/>
  <path class="st0" d="M23.53,21.69s0-.04.01-.06c0,.02,0,.05-.01.06Z"/>
  <path class="st5" d="M23.29,6.27s0-.05.01-.06c0,.02,0,.05-.01.06Z"/>
  <path class="st5" d="M6.26,21.71s-.02-.04-.01-.06c.01.02.01.04.01.06Z"/>
  <path class="st0" d="M18.79,21.71s-.02-.04-.01-.06c.01.02.01.04.01.06Z"/>
  <path class="st5" d="M22.19,12.15s0-.05.01-.06c0,.02,0,.05-.01.06Z"/>
  <path class="st5" d="M23.25,6.48s0-.05.01-.06c0,.02,0,.05-.01.06Z"/>
  <path class="st0" d="M18.76,20.71s0-.05.01-.06c0,.02,0,.04-.01.06Z"/>
  <path class="st0" d="M18.9,22.08s-.03-.07-.04-.1c.02.03.03.07.04.1Z"/>
  <path class="st5" d="M8.09,18.6s-.03.01-.04.01c0-.02.03-.01.04-.01Z"/>
  <path class="st5" d="M22.77,9.07s0-.03.01-.05c0,.02,0,.04-.01.05Z"/>
  <path class="st5" d="M22.75,9.14s0-.03.01-.04c0,.02,0,.04-.01.04Z"/>
  <path class="st0" d="M23.44,22.04l.04-.12s0,.09-.04.12Z"/>
  <path class="st5" d="M22.74,9.21s0-.03.01-.05c0,.02,0,.04-.01.05Z"/>
  <path class="st5" d="M10.91,22.04l.04-.12s0,.09-.04.12Z"/>
  <path class="st5" d="M22.73,9.28s0-.03.01-.05c0,.02,0,.04-.01.05Z"/>
  <path class="st5" d="M22.71,9.35s0-.03.01-.05c0,.02,0,.04-.01.05Z"/>
  <path class="st5" d="M22.7,9.42s0-.03.01-.05c0,.02,0,.04-.01.05Z"/>
  <path class="st5" d="M22.69,9.5s0-.03.01-.05c0,.02,0,.04-.01.05Z"/>
  <path class="st5" d="M6.33,21.97s-.04-.09-.04-.13c.02.04.04.09.04.13Z"/>
  <path class="st5" d="M22.67,9.57s0-.03.01-.05c0,.02,0,.04-.01.05Z"/>
  <path class="st5" d="M22.66,9.64s0-.03.01-.04c0,.02,0,.04-.01.04Z"/>
  <path class="st0" d="M18.84,21.92s-.02-.06-.03-.09c.02.03.02.06.03.09Z"/>
  <path class="st5" d="M22.65,9.71s0-.03.01-.05c0,.02,0,.04-.01.05Z"/>
  <path class="st5" d="M22.63,9.78s0-.03.01-.05c0,.02,0,.04-.01.05Z"/>
  <path class="st5" d="M22.78,8.99s0-.03.01-.05c0,.02,0,.04-.01.05Z"/>
  <path class="st5" d="M22.61,9.93s0-.03.01-.05c0,.02,0,.04-.01.05Z"/>
  <path class="st5" d="M22.59,10s0-.03.01-.05c0,.02,0,.04-.01.05Z"/>
  <path class="st0" d="M23.49,21.87s0-.03.01-.04c0,.01,0,.04-.01.04Z"/>
  <path class="st5" d="M22.58,10.07s0-.03.01-.05c0,.02,0,.04-.01.05Z"/>
  <path class="st5" d="M22.57,10.14s0-.03.01-.05c0,.02,0,.04-.01.05Z"/>
  <path class="st5" d="M10.96,21.87s0-.03.01-.04c0,.01,0,.04-.01.04Z"/>
  <path class="st5" d="M22.55,10.21s0-.03.01-.05c0,.02,0,.04-.01.05Z"/>
  <path class="st0" d="M18.82,21.82s-.02-.03-.01-.05c.01.01.01.03.01.05Z"/>
  <path class="st5" d="M22.54,10.28s0-.03.01-.05c0,.02,0,.04-.01.05Z"/>
  <path class="st5" d="M6.29,21.82s-.02-.03-.01-.05c.01.01.01.03.01.05Z"/>
  <path class="st5" d="M22.53,10.36s0-.03.01-.05c0,.02,0,.04-.01.05Z"/>
  <path class="st5" d="M22.51,10.43s0-.03.01-.05c0,.02,0,.04-.01.05Z"/>
  <path class="st0" d="M23.5,21.81s0-.03.01-.04c0,.01,0,.04-.01.04Z"/>
  <path class="st5" d="M22.5,10.5s0-.03.01-.05c0,.02,0,.04-.01.05Z"/>
  <path class="st5" d="M10.98,21.81s0-.03.01-.04c0,.02,0,.04-.01.04Z"/>
  <path class="st5" d="M22.49,10.57s0-.03.01-.05c0,.02,0,.04-.01.05Z"/>
  <path class="st5" d="M22.47,10.64s0-.03.01-.05c0,.02,0,.04-.01.05Z"/>
  <path class="st0" d="M18.8,21.77s-.02-.03-.01-.05c0,.01.01.03.01.05Z"/>
  <path class="st5" d="M22.46,10.71s0-.03.01-.04c0,.02,0,.04-.01.04Z"/>
  <path class="st5" d="M6.28,21.77s-.02-.03-.01-.05c0,.01.01.03.01.05Z"/>
  <path class="st5" d="M22.45,10.79s0-.03.01-.05c0,.02,0,.04-.01.05Z"/>
  <path class="st0" d="M23.52,21.75s0-.03.01-.05c0,.01,0,.04-.01.05Z"/>
  <path class="st5" d="M22.43,10.86s0-.03.01-.05c0,.02,0,.04-.01.05Z"/>
  <path class="st5" d="M22.42,10.93s0-.03.01-.05c0,.02,0,.04-.01.05Z"/>
  <path class="st5" d="M10.99,21.75s0-.03.01-.05c0,.02,0,.04-.01.05Z"/>
  <path class="st5" d="M22.41,11s0-.03.01-.05c0,.02,0,.04-.01.05Z"/>
  <path class="st5" d="M23.2,6.77s0-.03.01-.05c0,.02,0,.04-.01.05Z"/>
  <path class="st5" d="M22.39,11.07s0-.03.01-.05c0,.02,0,.04-.01.05Z"/>
  <path class="st5" d="M22.38,11.14s0-.03.01-.05c0,.02,0,.04-.01.05Z"/>
  <path class="st5" d="M22.37,11.22s0-.03.01-.05c0,.02,0,.04-.01.05Z"/>
  <path class="st5" d="M23.18,6.84s0-.03.01-.05c0,.02,0,.04-.01.05Z"/>
  <path class="st5" d="M22.35,11.29s0-.03.01-.05c0,.02,0,.04-.01.05Z"/>
  <path class="st5" d="M22.34,11.36s0-.03.01-.05c0,.02,0,.04-.01.05Z"/>
  <path class="st5" d="M22.33,11.43s0-.03.01-.05c0,.02,0,.04-.01.05Z"/>
  <path class="st5" d="M23.17,6.91s0-.03.01-.05c0,.02,0,.04-.01.05Z"/>
  <path class="st5" d="M22.31,11.5s0-.03.01-.05c0,.02,0,.04-.01.05Z"/>
  <path class="st5" d="M22.3,11.57s0-.03.01-.05c0,.02,0,.04-.01.05Z"/>
  <path class="st5" d="M22.29,11.65s0-.03.01-.05c0,.02,0,.04-.01.05Z"/>
  <path class="st5" d="M23.16,6.99s0-.03.01-.04c0,.02,0,.04-.01.04Z"/>
  <path class="st5" d="M22.27,11.72s0-.03.01-.04c0,.02,0,.04-.01.04Z"/>
  <path class="st5" d="M23.14,7.06s0-.03.01-.05c0,.02,0,.04-.01.05Z"/>
  <path class="st5" d="M22.26,11.79s0-.03.01-.05c0,.02,0,.04-.01.05Z"/>
  <path class="st5" d="M22.25,11.86s0-.03.01-.04c0,.02,0,.04-.01.04Z"/>
  <path class="st5" d="M10.85,22.18l.05-.13s-.02.1-.05.13Z"/>
  <path class="st5" d="M22.22,12s0-.03.01-.05c0,.02,0,.04-.01.05Z"/>
  <path class="st0" d="M23.38,22.18l.05-.13s-.02.1-.05.13Z"/>
  <path class="st5" d="M23.24,6.56s0-.03.01-.04c0,.02,0,.04-.01.04Z"/>
  <path class="st5" d="M23.58,4.61s-.01-.03-.01-.05c.02,0,.01.03.01.05Z"/>
  <path class="st5" d="M23.13,7.13s0-.03.01-.05c0,.02,0,.04-.01.05Z"/>
  <path class="st5" d="M22.21,12.08s0-.03.01-.04c0,.02,0,.04-.01.04Z"/>
  <path class="st5" d="M22.79,8.92s0-.03.01-.05c0,.02,0,.04-.01.05Z"/>
  <path class="st5" d="M23.12,7.2s0-.03.01-.05c0,.02,0,.04-.01.05Z"/>
  <path class="st5" d="M22.18,12.22s0-.03.01-.04c0,.02,0,.04-.01.04Z"/>
  <path class="st5" d="M23.1,7.27s0-.03.01-.05c0,.02,0,.04-.01.05Z"/>
  <path class="st5" d="M22.17,12.29s0-.03.01-.05c0,.02,0,.04-.01.05Z"/>
  <path class="st5" d="M22.15,12.36s0-.03.01-.05c0,.02,0,.04-.01.05Z"/>
  <path class="st5" d="M22.14,12.43s0-.03.01-.05c0,.02,0,.04-.01.05Z"/>
  <path class="st5" d="M23.09,7.34s0-.03.01-.05c0,.02,0,.04-.01.05Z"/>
  <path class="st5" d="M22.13,12.51s0-.03.01-.05c0,.02,0,.04-.01.05Z"/>
  <path class="st5" d="M22.11,12.58s0-.03.01-.05c0,.02,0,.04-.01.05Z"/>
  <path class="st5" d="M22.1,12.65s0-.03.01-.05c0,.02,0,.04-.01.05Z"/>
  <path class="st5" d="M11.01,20.64s-.01-.03-.01-.05c.02,0,.02.03.01.05Z"/>
  <path class="st5" d="M22.09,12.72s0-.03.01-.04c0,.02,0,.04-.01.04Z"/>
  <path class="st5" d="M23.08,7.42s0-.03.01-.05c0,.02,0,.04-.01.05Z"/>
  <path class="st5" d="M22.07,12.79s0-.03.01-.05c0,.02,0,.04-.01.05Z"/>
  <path class="st5" d="M22.06,12.86s0-.03.01-.05c0,.02,0,.04-.01.05Z"/>
  <path class="st5" d="M22.05,12.94s0-.03.01-.05c0,.02,0,.04-.01.05Z"/>
  <path class="st0" d="M18.79,20.57s0-.04.01-.05c0,.02,0,.03-.01.05Z"/>
  <path class="st5" d="M22.03,13.01s0-.03.01-.05c0,.02,0,.04-.01.05Z"/>
  <path class="st5" d="M23.06,7.49s0-.03.01-.05c0,.02,0,.04-.01.05Z"/>
  <path class="st5" d="M22.02,13.08s0-.03.01-.05c0,.02,0,.04-.01.05Z"/>
  <path class="st5" d="M22.01,13.15s0-.03.01-.05c0,.02,0,.04-.01.05Z"/>
  <path class="st5" d="M6.26,20.57s0-.04.01-.05c0,.02,0,.03-.01.05Z"/>
  <path class="st5" d="M21.99,13.22s0-.03.01-.05c0,.02,0,.04-.01.05Z"/>
  <path class="st0" d="M23.51,20.51s-.02-.06-.02-.09c.02.02.02.06.02.09Z"/>
  <path class="st5" d="M21.98,13.29s0-.03.01-.04c0,.02,0,.04-.01.04Z"/>
  <path class="st5" d="M9.21,18.61s-.03,0-.04-.01c.01,0,.04,0,.04.01Z"/>
  <path class="st0" d="M18.8,20.51s0-.04.01-.05c0,.02,0,.03-.01.05Z"/>
  <path class="st5" d="M21.97,13.37s0-.03.01-.05c0,.02,0,.04-.01.05Z"/>
  <path class="st5" d="M21.95,13.44s0-.03.01-.04c0,.02,0,.04-.01.04Z"/>
  <path class="st5" d="M10.99,20.51s-.02-.06-.03-.09c.02.02.02.06.03.09Z"/>
  <path class="st5" d="M6.28,20.51s0-.04.01-.05c0,.02,0,.03-.01.05Z"/>
  <path class="st0" d="M18.82,20.45s0-.07.03-.09c0,.03,0,.06-.03.09Z"/>
  <path class="st5" d="M23.3,4.25s-.03,0-.04-.01c.01,0,.04,0,.04.01Z"/>
  <path class="st5" d="M6.29,20.45s0-.07.03-.09c0,.03,0,.06-.03.09Z"/>
  <path class="st0" d="M23.49,20.41l-.07-.2s.06.15.07.2Z"/>
  <path class="st5" d="M10.96,20.41l-.07-.2s.07.15.07.2Z"/>
  <path class="st5" d="M22.81,8.85s0-.03.01-.05c0,.02,0,.04-.01.05Z"/>
  <path class="st5" d="M23.56,4.84s0-.03.01-.05c0,.02,0,.04-.01.05Z"/>
  <path class="st5" d="M23.26,6.41s0-.03.01-.05c0,.02,0,.04-.01.05Z"/>
  <path class="st5" d="M23.28,6.34s0-.03.01-.05c0,.02,0,.04-.01.05Z"/>
  <path class="st5" d="M23.54,4.91s0-.03.01-.05c0,.02,0,.04-.01.05Z"/>
  <path class="st5" d="M23.3,6.2s0-.03.01-.05c0,.02,0,.04-.01.05Z"/>
  <path class="st0" d="M18.87,20.26c.02-.09.06-.18.11-.26l-.11.26Z"/>
  <path class="st5" d="M6.34,20.26c.02-.1.07-.2.12-.29l-.12.29Z"/>
  <path class="st5" d="M22.82,8.78s0-.03.01-.05c0,.02,0,.04-.01.05Z"/>
  <path class="st5" d="M22.99,16.84s-.03,0-.04-.01c.01,0,.04,0,.04.01Z"/>
  <path class="st5" d="M10.9,20.19l-.16-.35s.03.04.05.07c.04.1.09.18.11.28Z"/>
  <path class="st5" d="M23.05,7.56s0-.03.01-.05c0,.02,0,.04-.01.05Z"/>
  <path class="st5" d="M23.03,7.63s0-.03.01-.05c0,.02,0,.04-.01.05Z"/>
  <path class="st5" d="M23.02,7.7s0-.03.01-.04c0,.02,0,.04-.01.04Z"/>
  <path class="st5" d="M23.01,7.77s0-.03.01-.05c0,.02,0,.04-.01.05Z"/>
  <path class="st5" d="M22.85,8.63s0-.03.01-.04c0,.02,0,.04-.01.04Z"/>
  <path class="st5" d="M23.21,6.7s0-.03.01-.05c0,.02,0,.04-.01.05Z"/>
  <path class="st0" d="M21.73,23.67s-.03.02-.04.01c.01-.01.03-.01.04-.01Z"/>
  <path class="st0" d="M20.63,23.69s-.04,0-.04-.01c.02,0,.03,0,.04.01Z"/>
  <path class="st5" d="M9.2,23.67s-.03.02-.04.01c.01-.01.03-.01.04-.01Z"/>
  <path class="st5" d="M8.11,23.69s-.04,0-.04-.01c.02,0,.03,0,.04.01Z"/>
  <path class="st5" d="M22.99,7.85s0-.03.01-.05c0,.02,0,.04-.01.05Z"/>
  <path class="st5" d="M22.86,8.56s0-.03.01-.05c0,.02,0,.04-.01.05Z"/>
  <path class="st5" d="M9.25,23.66h0s-.04.01-.04.01c.01-.01.03-.01.04-.01Z"/>
  <path class="st5" d="M22.98,7.92s0-.03.01-.05c0,.02,0,.04-.01.05Z"/>
  <path class="st5" d="M22.97,7.99s0-.03.01-.05c0,.02,0,.04-.01.05Z"/>
  <path class="st5" d="M23.53,4.98s0-.03.01-.05c0,.02,0,.04-.01.05Z"/>
  <path class="st5" d="M23.52,5.05s0-.03.01-.05c0,.02,0,.04-.01.05Z"/>
  <path class="st5" d="M23.56,17.44s-.02-.05-.03-.07c.02.01.02.05.03.07Z"/>
  <path class="st5" d="M23.57,17.5s-.01-.03-.01-.04c.02,0,.01.03.01.04Z"/>
  <path class="st5" d="M22.87,8.49s0-.03.01-.05c0,.02,0,.04-.01.05Z"/>
  <path class="st5" d="M23.56,17.89s0-.03.01-.04c0,.02,0,.04-.01.04Z"/>
  <path class="st5" d="M23.5,5.12s0-.03.01-.05c0,.02,0,.04-.01.05Z"/>
  <path class="st5" d="M23.49,5.19s0-.03.01-.05c0,.02,0,.04-.01.05Z"/>
  <path class="st5" d="M22.96,8.06s0-.03.01-.05c0,.02,0,.04-.01.05Z"/>
  <path class="st5" d="M7.79,23.59s-.09-.02-.12-.06l.12.06Z"/>
  <path class="st5" d="M9.6,23.53s-.08.06-.12.06l.12-.06Z"/>
  <path class="st0" d="M22.13,23.53s-.08.06-.12.06l.12-.06Z"/>
  <path class="st5" d="M9.31,23.64s-.02.02-.04.02c.01-.01.02-.01.04-.02Z"/>
  <path class="st0" d="M20.34,18.68l-.24.12c.07-.06.16-.1.24-.12Z"/>
  <path class="st5" d="M7.81,18.68l-.24.12c.07-.06.16-.1.24-.12Z"/>
  <path class="st0" d="M20.47,23.64c-.05,0-.11-.02-.15-.06l.15.06Z"/>
  <path class="st5" d="M6.37,22.08s-.04-.07-.04-.1c.02.03.03.07.04.1Z"/>
  <path class="st0" d="M22.1,18.74l-.12-.06s.09.02.12.06Z"/>
  <path class="st5" d="M7.95,23.64c-.05,0-.11-.02-.15-.06l.15.06Z"/>
  <path class="st0" d="M21.99,23.59s-.07.04-.11.04l.11-.04Z"/>
  <path class="st5" d="M9.47,23.59s-.07.04-.11.04l.11-.04Z"/>
  <path class="st5" d="M9.57,18.74l-.12-.06s.09.02.12.06Z"/>
  <path class="st0" d="M21.89,18.66s-.06-.01-.08-.03c.03,0,.06,0,.08.03Z"/>
  <path class="st0" d="M20.51,18.63s-.05.03-.08.03c.02-.03.05-.03.08-.03Z"/>
  <path class="st5" d="M9.36,18.66s-.06-.01-.08-.03c.03,0,.06,0,.08.03Z"/>
  <path class="st5" d="M23.02,18.5s-.03.02-.04.01c.01-.01.03-.01.04-.01Z"/>
  <path class="st5" d="M22.97,18.51s-.03.02-.04.01c.01-.01.03-.01.04-.01Z"/>
  <path class="st5" d="M7.99,18.63s-.05.03-.08.03c.02-.03.05-.03.08-.03Z"/>
  <path class="st5" d="M22.89,8.42s0-.03.01-.05c0,.02,0,.04-.01.05Z"/>
  <path class="st5" d="M23.37,5.84s0-.03.01-.05c0,.02,0,.04-.01.05Z"/>
  <path class="st5" d="M23.38,5.77s0-.03.01-.05c0,.02,0,.04-.01.05Z"/>
  <path class="st0" d="M21.79,18.63s-.03,0-.04-.01c.01,0,.04,0,.04.01Z"/>
  <path class="st5" d="M23.4,5.7s0-.03.01-.05c0,.02,0,.04-.01.05Z"/>
  <path class="st0" d="M20.57,18.61s-.03.01-.04.01c0-.02.03-.01.04-.01Z"/>
  <path class="st5" d="M23.41,5.62s0-.03.01-.05c0,.02,0,.04-.01.05Z"/>
  <path class="st5" d="M23.42,5.55s0-.03.01-.05c0,.02,0,.04-.01.05Z"/>
  <path class="st5" d="M9.27,18.63s-.03,0-.04-.01c.01,0,.04,0,.04.01Z"/>
  <path class="st0" d="M19.27,18.54s-.01.01-.02.02c-.01,0-.02-.01-.02-.01h.04Z"/>
  <path class="st5" d="M23.44,5.48s0-.03.01-.05c0,.02,0,.04-.01.05Z"/>
  <path class="st5" d="M23.45,5.41s0-.03.01-.05c0,.02,0,.04-.01.05Z"/>
  <path class="st5" d="M23.46,5.34s0-.03.01-.05c0,.02,0,.04-.01.05Z"/>
  <path class="st5" d="M22.9,8.35s0-.03.01-.05c0,.02,0,.04-.01.05Z"/>
  <path class="st5" d="M23.48,5.27s0-.03.01-.05c0,.02,0,.04-.01.05Z"/>
  <path class="st5" d="M8.04,18.61s-.03.01-.04.01c0-.02.03-.01.04-.01Z"/>
  <path class="st5" d="M22.91,8.28s0-.03.01-.05c0,.02,0,.04-.01.05Z"/>
  <path class="st0" d="M21.74,18.61s-.03,0-.04-.01c.01,0,.04,0,.04.01Z"/>
  <path class="st5" d="M22.93,8.2s0-.03.01-.05c0,.02,0,.04-.01.05Z"/>
  <path class="st0" d="M20.62,18.6s-.03.01-.04.01c0-.02.03-.02.04-.01Z"/>
  <path class="st5" d="M22.94,8.13s0-.03.01-.05c0,.02,0,.04-.01.05Z"/>
  <path class="st0" d="M12.98,18.54s0,.01-.02.01c0,0,0,0-.01-.01h.03Z"/>
  <path class="st5" d="M23.09,18.47s-.03.03-.06.03c.02-.02.04-.03.06-.03Z"/>
  <path class="st5" d="M23.1,18.47l.07-.04s-.04.04-.07.04Z"/>
  <path class="st5" d="M7.9,18.66s-.02.01-.03.01c0-.01.02-.02.03-.01Z"/>
  <path class="st5" d="M9.4,18.67s-.02,0-.03-.01c.01,0,.03,0,.03.01Z"/>
  <path class="st0" d="M20.42,18.66s-.02.01-.03.01c0-.01.02-.02.03-.01Z"/>
  <path class="st0" d="M21.93,18.67s-.02,0-.03-.01c.01,0,.03,0,.03.01Z"/>
  <path class="st5" d="M7.85,18.67s-.02.01-.03.01c0-.02.02-.02.03-.01Z"/>
  <path class="st5" d="M9.44,18.69s-.02,0-.03-.01c.01,0,.03,0,.03.01Z"/>
  <path class="st0" d="M20.38,18.67s-.02.01-.03.01c0-.02.02-.02.03-.01Z"/>
  <path class="st0" d="M21.97,18.69s-.02,0-.03-.01c.01,0,.03,0,.03.01Z"/>
  <path class="st5" d="M23.18,18.42s.05-.04.07-.06c-.01.03-.04.05-.07.06Z"/>
  <path class="st5" d="M9.35,23.63s-.02.02-.03.01c0,0,.02-.01.03-.01Z"/>
  <path class="st0" d="M21.87,23.63s-.02.02-.03.01c0,0,.02-.01.03-.01Z"/>
  <path class="st0" d="M20.31,23.58s-.03,0-.03-.01c.01,0,.02,0,.03.01Z"/>
  <path class="st5" d="M23.46,18.12l.07-.13s-.03.1-.07.13Z"/>
  <path class="st0" d="M20.28,23.57s-.07-.01-.08-.04c.03,0,.06.02.08.04Z"/>
  <path class="st0" d="M22.14,23.53l.2-.11s-.04.04-.07.05c-.05.02-.09.06-.13.06Z"/>
  <path class="st5" d="M9.61,23.53l.2-.11s-.04.04-.07.05c-.05.02-.09.06-.13.06Z"/>
  <path class="st5" d="M23.53,17.98s0-.02.01-.03c0,.01,0,.03-.01.03Z"/>
  <path class="st5" d="M23.54,17.94s0-.02.01-.03c0,.01,0,.03-.01.03Z"/>
  <path class="st5" d="M23.53,17.35s-.02-.04-.03-.06c.02.01.03.04.03.06Z"/>
  <path class="st5" d="M23.5,17.28l-.06-.11s.06.06.06.11Z"/>
  <path class="st5" d="M23.44,17.17s-.03-.04-.05-.06l-.08-.1c.05.04.1.1.13.16Z"/>
  <path class="st5" d="M23.29,17.01l-.12-.1s.1.05.12.1Z"/>
  <path class="st0" d="M19.1,22.51s-.04-.03-.04-.06c.02.02.03.04.04.06Z"/>
  <path class="st0" d="M19.06,22.44s-.02-.01-.03-.03l-.09-.19s-.01-.04-.01-.06l.13.28Z"/>
  <path class="st5" d="M6.53,22.44s-.02-.01-.03-.03l-.09-.19s-.01-.04-.01-.06l.13.28Z"/>
  <path class="st0" d="M23.27,22.41l.11-.22c0,.05-.04.09-.06.14-.01.03-.02.07-.05.08Z"/>
  <path class="st5" d="M23.1,16.88s-.04-.01-.06-.03c.02,0,.05,0,.06.03Z"/>
  <path class="st5" d="M10.75,22.41l.11-.22c0,.05-.04.09-.06.14-.01.03-.02.07-.05.08Z"/>
  <path class="st0" d="M18.92,22.15s-.03-.04-.03-.06c.01.02.02.04.03.06Z"/>
  <path class="st5" d="M6.4,22.15s-.03-.04-.03-.06c.01.02.02.04.03.06Z"/>
  <path class="st5" d="M23.03,16.85s-.02,0-.03-.01c.01,0,.03,0,.03.01Z"/>
  <path class="st0" d="M23.42,20.19s-.02-.04-.03-.06c.02,0,.03.04.03.06Z"/>
  <path class="st5" d="M6.33,20.31s0-.03.01-.03c0,.01,0,.02-.01.03Z"/>
  <path class="st0" d="M18.86,20.31s0-.03.01-.03c0,.01,0,.02-.01.03Z"/>
  <path class="st5" d="M6.32,20.35s0-.03.01-.03c0,.01,0,.02-.01.03Z"/>
  <path class="st0" d="M18.84,20.35s0-.03.01-.03c0,.01,0,.02-.01.03Z"/>
  <path class="st5" d="M23.5,4.39c-.05-.06-.12-.1-.19-.14.08.02.15.08.19.14Z"/>
  <path class="st5" d="M6.82,4.19s-.01-.02-.01-.03c.01,0,.02.02.01.03Z"/>
  <path class="st5" d="M21.94,13.48s0-.02.01-.03c0,.01,0,.02-.01.03Z"/>
  <path class="st5" d="M23.57,4.54s-.01-.02-.01-.03c0,.01.01.02.01.03Z"/>
  <path class="st0" d="M6.21,21.04h-.01s0-.03.02-.03v.03Z"/>
  <path class="st5" d="M10.95,21.91s0-.02.01-.03c0,.01,0,.03-.01.03Z"/>
  <path class="st0" d="M23.48,21.91s0-.02.01-.03c0,.01,0,.03-.01.03Z"/>
  <path class="st0" d="M18.86,21.97s-.02-.02-.01-.03c0,0,.01.02.01.03Z"/>
  <path class="st5" d="M23.53,4.44s-.02-.02-.03-.03c.01,0,.02.02.03.03Z"/>
  <polygon class="st0" points="9.25 23.67 9.25 23.66 9.27 23.66 9.25 23.67"/>
  <path class="st2" d="M3.38.32v1.73s-2.46,0-2.46,0c-.45,0-.79-.43-.77-.89S.51.32.96.32h2.42Z"/>
  <path class="st5" d="M6.46,9.09s-.02-.03-.01-.05c.01.01.01.03.01.05Z"/>
  <path class="st5" d="M6.49,9.19s-.02-.03-.01-.05c.01.01.01.03.01.05Z"/>
  <path class="st5" d="M6.52,9.29s-.02-.03-.01-.04c.01.01.01.03.01.04Z"/>
  <path class="st5" d="M6.54,9.39s-.01-.03-.01-.04c.01.01.01.03.01.04Z"/>
  <path class="st5" d="M6.57,9.49s-.02-.03-.01-.04c.01.01.01.03.01.04Z"/>
  <path class="st5" d="M6.6,9.59s-.02-.03-.01-.04c.01.01.01.03.01.04Z"/>
  <path class="st5" d="M6.62,9.69s-.02-.03-.01-.04c.01.01.01.03.01.04Z"/>
  <path class="st5" d="M6.65,9.79s-.02-.03-.01-.04c.01.01.01.03.01.04Z"/>
  <path class="st5" d="M6.68,9.9s-.02-.03-.01-.04c.01.01.01.03.01.04Z"/>
  <path class="st5" d="M6.7,10s-.02-.03-.01-.04c.01.01.01.03.01.04Z"/>
  <path class="st5" d="M6.73,10.1s-.02-.03-.01-.04c.01.01.01.03.01.04Z"/>
  <path class="st5" d="M6.76,10.2s-.02-.03-.01-.04c.01.01.01.03.01.04Z"/>
  <path class="st5" d="M6.78,10.3s-.02-.03-.01-.04c.01.01.01.03.01.04Z"/>
  <path class="st5" d="M6.81,10.4s-.02-.03-.01-.04c.01.01.01.03.01.04Z"/>
  <path class="st5" d="M6.84,10.5s-.02-.03-.01-.04c.01.01.01.03.01.04Z"/>
  <path class="st5" d="M6.86,10.6s-.02-.03-.01-.04c.01.01.01.03.01.04Z"/>
  <path class="st5" d="M6.89,10.7s-.02-.03-.01-.04c.01.01.01.03.01.04Z"/>
  <path class="st5" d="M6.92,10.8s-.02-.03-.01-.04c.01.01.01.03.01.04Z"/>
  <path class="st5" d="M6.94,10.9s-.02-.03-.01-.04c.01.01.01.03.01.04Z"/>
  <path class="st5" d="M6.97,11s-.02-.03-.01-.04c.01.01.01.03.01.04Z"/>
  <path class="st5" d="M7,11.1s-.02-.03-.01-.04c.01.01.01.03.01.04Z"/>
  <path class="st5" d="M5.85,6.78s-.02-.03-.01-.04c.01.01.01.03.01.04Z"/>
  <path class="st5" d="M7.02,11.2s-.02-.03-.01-.04c.01.01.01.03.01.04Z"/>
  <path class="st5" d="M7.05,11.3s-.02-.03-.01-.04c.01.01.01.03.01.04Z"/>
  <path class="st5" d="M5.88,6.88s-.02-.03-.01-.04c.01.01.01.03.01.04Z"/>
  <path class="st5" d="M7.08,11.4s-.02-.03-.01-.04c.01.01.01.03.01.04Z"/>
  <path class="st5" d="M7.1,11.5s-.02-.03-.01-.04c.01.01.01.03.01.04Z"/>
  <path class="st5" d="M5.9,6.99s-.02-.03-.01-.04c.01.01.01.03.01.04Z"/>
  <path class="st5" d="M7.13,11.6s-.01-.03-.01-.04c.01.01.01.03.01.04Z"/>
  <path class="st5" d="M7.16,11.7s-.02-.03-.01-.04c.01.01.01.03.01.04Z"/>
  <path class="st5" d="M7.18,11.8s-.02-.03-.01-.04c.01.01.01.03.01.04Z"/>
  <path class="st5" d="M5.93,7.09s-.02-.03-.01-.04c.01.01.01.03.01.04Z"/>
  <path class="st5" d="M7.21,11.9s-.02-.03-.01-.04c.01.01.01.03.01.04Z"/>
  <path class="st5" d="M6.44,8.99s-.02-.03-.01-.04c.01.01.01.03.01.04Z"/>
  <path class="st5" d="M7.24,12s-.02-.03-.01-.04c.01.01.01.03.01.04Z"/>
  <path class="st5" d="M5.77,6.48s-.02-.03-.01-.04c.01.01.01.03.01.04Z"/>
  <path class="st5" d="M5.96,7.19s-.02-.03-.01-.04c.01.01.01.03.01.04Z"/>
  <path class="st5" d="M7.27,12.1s-.02-.03-.01-.04c.01.01.01.03.01.04Z"/>
  <path class="st5" d="M7.29,12.2s-.02-.03-.01-.04c.01.01.01.03.01.04Z"/>
  <path class="st5" d="M7.32,12.3s-.01-.03-.01-.04c.01.01.01.03.01.04Z"/>
  <path class="st5" d="M5.98,7.29s-.02-.03-.01-.04c.01.01.01.03.01.04Z"/>
  <path class="st5" d="M7.35,12.4s-.02-.03-.01-.04c.01.01.01.03.01.04Z"/>
  <path class="st5" d="M7.37,12.5s-.02-.03-.01-.04c.01.01.01.03.01.04Z"/>
  <path class="st5" d="M6.01,7.39s-.02-.03-.01-.04c.01.01.01.03.01.04Z"/>
  <path class="st5" d="M7.4,12.6s-.02-.03-.01-.04c.01.01.01.03.01.04Z"/>
  <path class="st5" d="M7.43,12.71s-.02-.03-.01-.04c.01.01.01.03.01.04Z"/>
  <path class="st5" d="M7.45,12.81s-.02-.03-.01-.04c.01.01.01.03.01.04Z"/>
  <path class="st5" d="M6.04,7.49s-.02-.03-.01-.04c.01.01.01.03.01.04Z"/>
  <path class="st5" d="M7.48,12.91s-.02-.03-.01-.04c.01.01.01.03.01.04Z"/>
  <path class="st5" d="M7.51,13.01s-.01-.03-.01-.04c.01.01.01.03.01.04Z"/>
  <path class="st5" d="M7.53,13.11s-.02-.03-.01-.04c.01.01.01.03.01.04Z"/>
  <path class="st5" d="M7.56,13.21s-.02-.03-.01-.04c.01.01.01.03.01.04Z"/>
  <path class="st5" d="M7.61,13.41s-.01-.03-.01-.04c.01.01.01.03.01.04Z"/>
  <path class="st5" d="M7.64,13.51s-.01-.03-.01-.04c.01.01.01.03.01.04Z"/>
  <path class="st5" d="M7.67,13.61s-.01-.03-.01-.04c.01.01.01.03.01.04Z"/>
  <path class="st5" d="M6.41,8.89s-.02-.03-.01-.04c.01.01.01.03.01.04Z"/>
  <path class="st5" d="M7.69,13.71s-.01-.03-.01-.04c.01.01.01.03.01.04Z"/>
  <path class="st5" d="M7.72,13.81s-.01-.03-.01-.04c.01.01.01.03.01.04Z"/>
  <path class="st5" d="M5.74,6.38s-.02-.03-.01-.04c.01.01.01.03.01.04Z"/>
  <path class="st5" d="M5.72,6.28s-.01-.03-.01-.04c.01.01.01.03.01.04Z"/>
  <path class="st5" d="M7.75,13.91s-.01-.03-.01-.04c.01.01.01.03.01.04Z"/>
  <path class="st5" d="M5.69,6.18s-.02-.03-.01-.04c.01.01.01.03.01.04Z"/>
  <path class="st5" d="M7.77,14.01s-.01-.03-.01-.04c.01.01.01.03.01.04Z"/>
  <path class="st5" d="M7.8,14.11s-.01-.03-.01-.04c.01.01.01.03.01.04Z"/>
  <path class="st5" d="M6.38,8.79s-.02-.03-.01-.04c.01.01.01.03.01.04Z"/>
  <path class="st5" d="M5.66,6.08s-.02-.03-.01-.04c.01.01.01.03.01.04Z"/>
  <path class="st5" d="M6.06,7.59s-.02-.03-.01-.04c.01.01.01.03.01.04Z"/>
  <path class="st5" d="M6.09,7.69s-.02-.03-.01-.04c.01.01.01.03.01.04Z"/>
  <path class="st5" d="M6.36,8.69s-.02-.03-.01-.04c.01.01.01.03.01.04Z"/>
  <path class="st5" d="M5.8,6.58s-.02-.03-.01-.04c.01.01.01.03.01.04Z"/>
  <path class="st5" d="M6.12,7.79s-.02-.03-.01-.04c.01.01.01.03.01.04Z"/>
  <path class="st5" d="M5.82,6.68s-.02-.03-.01-.04c.01.01.01.03.01.04Z"/>
  <path class="st5" d="M6.33,8.59s-.02-.03-.01-.04c.01.01.01.03.01.04Z"/>
  <path class="st5" d="M6.14,7.89s-.02-.03-.01-.04c.01.01.01.03.01.04Z"/>
  <path class="st5" d="M6.17,7.99s-.01-.03-.01-.04c.01.01.01.03.01.04Z"/>
  <path class="st5" d="M6.3,8.49s-.02-.03-.01-.04c.01.01.01.03.01.04Z"/>
  <path class="st5" d="M5.64,5.98s-.02-.03-.01-.04c.01.01.01.03.01.04Z"/>
  <path class="st5" d="M5.61,5.88s-.02-.03-.01-.04c.01.01.01.03.01.04Z"/>
  <path class="st5" d="M6.28,8.39s-.02-.03-.01-.04c.01.01.01.03.01.04Z"/>
  <path class="st5" d="M5.58,5.78s-.02-.03-.01-.04c.01.01.01.03.01.04Z"/>
  <path class="st5" d="M5.56,5.68s-.02-.03-.01-.04c.01.01.01.03.01.04Z"/>
  <path class="st5" d="M5.53,5.58s-.02-.03-.01-.05c.01.01.01.03.01.05Z"/>
  <path class="st5" d="M6.25,8.29s-.02-.03-.01-.04c.01.01.01.03.01.04Z"/>
  <path class="st5" d="M6.22,8.19s-.02-.03-.01-.04c.01.01.01.03.01.04Z"/>
  <path class="st5" d="M6.2,8.09s-.01-.03-.01-.04c.01.01.01.03.01.04Z"/>
  <path class="st5" d="M7.59,13.31s-.02-.03-.01-.04c.01.01.01.03.01.04Z"/>
  <path class="st5" d="M6.24,8.23s-.01-.02-.01-.03c0,0,.01.02.01.03Z"/>
  <path class="st5" d="M6.26,8.33s-.01-.02-.01-.03c0,0,.01.02.01.03Z"/>
  <path class="st5" d="M5.52,5.52s-.02-.02-.01-.03c0,0,.01.02.01.03Z"/>
  <path class="st5" d="M5.54,5.62s-.01-.02-.01-.03c0,0,.01.02.01.03Z"/>
  <path class="st5" d="M5.57,5.72s-.01-.02-.01-.03c0,0,.01.02.01.03Z"/>
  <path class="st5" d="M5.6,5.82s-.01-.02-.01-.03c0,0,.01.02.01.03Z"/>
  <path class="st5" d="M5.62,5.92s-.02-.02-.01-.03c0,0,.01.02.01.03Z"/>
  <path class="st5" d="M5.65,6.02s-.02-.02-.01-.03c0,0,.01.02.01.03Z"/>
  <path class="st5" d="M6.29,8.43s-.01-.02-.01-.03c0,0,.01.02.01.03Z"/>
  <path class="st5" d="M6.45,9.04s-.01-.02-.01-.03c0,0,.01.02.01.03Z"/>
  <path class="st5" d="M6.18,8.03s-.01-.02-.01-.03c0,0,.01.02.01.03Z"/>
  <path class="st5" d="M6.16,7.93s-.01-.02-.01-.03c0,0,.01.02.01.03Z"/>
  <path class="st5" d="M6.32,8.53s-.01-.02-.01-.03c0,0,.01.02.01.03Z"/>
  <path class="st5" d="M6.13,7.83s-.01-.02-.01-.03c0,0,.01.02.01.03Z"/>
  <path class="st5" d="M5.81,6.63s-.01-.02-.01-.03c0,0,.01.02.01.03Z"/>
  <path class="st5" d="M6.34,8.63s-.01-.02-.01-.03c0,0,.01.02.01.03Z"/>
  <path class="st5" d="M6.1,7.73s-.02-.02-.01-.03c0,0,.01.02.01.03Z"/>
  <path class="st5" d="M5.84,6.73s-.01-.02-.01-.03c0,0,.01.02.01.03Z"/>
  <path class="st5" d="M6.21,8.13s-.01-.02-.01-.03c0,0,.01.02.01.03Z"/>
  <path class="st5" d="M6.08,7.63s-.01-.02-.01-.03c0,0,.01.02.01.03Z"/>
  <path class="st5" d="M6.37,8.73s-.02-.02-.01-.03c0,0,.01.02.01.03Z"/>
  <path class="st5" d="M6.05,7.53s-.01-.02-.01-.03c0,0,.01.02.01.03Z"/>
  <path class="st5" d="M7.81,14.15s-.01-.02-.01-.03c0,0,.01.02.01.03Z"/>
  <path class="st5" d="M7.79,14.05s-.01-.02-.01-.03c0,0,.01.02.01.03Z"/>
  <path class="st5" d="M7.76,13.95s-.01-.02-.01-.03c0,0,.01.02.01.03Z"/>
  <path class="st5" d="M5.68,6.13s-.02-.02-.01-.03c0,0,.01.02.01.03Z"/>
  <path class="st5" d="M5.7,6.23s-.01-.02-.01-.03c0,0,.01.02.01.03Z"/>
  <path class="st5" d="M6.4,8.83s-.01-.02-.01-.03c0,0,.01.02.01.03Z"/>
  <path class="st5" d="M7.73,13.85s-.01-.02-.01-.03c0,0,.01.02.01.03Z"/>
  <path class="st5" d="M5.73,6.33s-.02-.02-.01-.03c0,0,.01.02.01.03Z"/>
  <path class="st5" d="M7.71,13.75s-.01-.02-.01-.03c0,0,.01.02.01.03Z"/>
  <path class="st5" d="M7.68,13.65s-.01-.02-.01-.03c0,0,.01.02.01.03Z"/>
  <path class="st5" d="M7.65,13.55s-.01-.02-.01-.03c0,0,.01.02.01.03Z"/>
  <path class="st5" d="M7.63,13.45s-.01-.02-.01-.03c0,0,.01.02.01.03Z"/>
  <path class="st5" d="M7.6,13.35s-.01-.02-.01-.03c0,0,.01.02.01.03Z"/>
  <path class="st5" d="M7.57,13.25s-.01-.02-.01-.03c0,0,.01.02.01.03Z"/>
  <path class="st5" d="M7.55,13.15s-.01-.02-.01-.03c0,0,.01.02.01.03Z"/>
  <path class="st5" d="M7.52,13.05s-.02-.02-.01-.03c0,0,.01.02.01.03Z"/>
  <path class="st5" d="M7.49,12.95s-.01-.02-.01-.03c0,0,.01.02.01.03Z"/>
  <path class="st5" d="M7.47,12.85s-.01-.02-.01-.03c0,0,.01.02.01.03Z"/>
  <path class="st5" d="M6.02,7.43s-.01-.02-.01-.03c0,0,.01.02.01.03Z"/>
  <path class="st5" d="M7.44,12.75s-.01-.02-.01-.03c0,0,.01.02.01.03Z"/>
  <path class="st5" d="M7.41,12.65s-.01-.02-.01-.03c0,0,.01.02.01.03Z"/>
  <path class="st5" d="M7.38,12.55s-.01-.02-.01-.03c0,0,.01.02.01.03Z"/>
  <path class="st5" d="M7.36,12.45s-.02-.02-.01-.03c0,0,.01.02.01.03Z"/>
  <path class="st5" d="M6,7.33s-.02-.02-.01-.03c0,0,.01.02.01.03Z"/>
  <path class="st5" d="M7.33,12.35s-.01-.02-.01-.03c0,0,.01.02.01.03Z"/>
  <path class="st5" d="M7.3,12.25s-.01-.02-.01-.03c0,0,.01.02.01.03Z"/>
  <path class="st5" d="M5.97,7.23s-.01-.02-.01-.03c0,0,.01.02.01.03Z"/>
  <path class="st5" d="M7.28,12.15s-.01-.02-.01-.03c0,0,.01.02.01.03Z"/>
  <path class="st5" d="M5.76,6.43s-.01-.02-.01-.03c0,0,.01.02.01.03Z"/>
  <path class="st5" d="M5.94,7.13s-.01-.02-.01-.03c0,0,.01.02.01.03Z"/>
  <path class="st5" d="M6.42,8.94s-.01-.02-.01-.03c0,0,.01.02.01.03Z"/>
  <path class="st5" d="M5.78,6.53s-.01-.02-.01-.03c0,0,.01.02.01.03Z"/>
  <path class="st5" d="M7.25,12.05s-.01-.02-.01-.03c0,0,.01.02.01.03Z"/>
  <path class="st5" d="M7.22,11.95s-.01-.02-.01-.03c0,0,.01.02.01.03Z"/>
  <path class="st5" d="M7.2,11.85s-.01-.02-.01-.03c0,0,.01.02.01.03Z"/>
  <path class="st5" d="M7.17,11.74s-.01-.02-.01-.03c0,0,.01.02.01.03Z"/>
  <path class="st5" d="M5.92,7.03s-.01-.02-.01-.03c0,0,.01.02.01.03Z"/>
  <path class="st5" d="M7.14,11.64s-.01-.02-.01-.03c0,0,.01.02.01.03Z"/>
  <path class="st5" d="M7.12,11.54s-.01-.02-.01-.03c0,0,.01.02.01.03Z"/>
  <path class="st5" d="M5.89,6.93s-.01-.02-.01-.03c0,0,.01.02.01.03Z"/>
  <path class="st5" d="M7.09,11.44s-.01-.02-.01-.03c0,0,.01.02.01.03Z"/>
  <path class="st5" d="M7.06,11.34s-.01-.02-.01-.03c0,0,.01.02.01.03Z"/>
  <path class="st5" d="M7.04,11.24s-.02-.02-.01-.03c0,0,.01.02.01.03Z"/>
  <path class="st5" d="M5.86,6.83s-.01-.02-.01-.03c0,0,.01.02.01.03Z"/>
  <path class="st5" d="M7.01,11.14s-.01-.02-.01-.03c0,0,.01.02.01.03Z"/>
  <path class="st5" d="M6.98,11.04s-.01-.02-.01-.03c0,0,.01.02.01.03Z"/>
  <path class="st5" d="M6.96,10.94s-.02-.02-.01-.03c0,0,.01.02.01.03Z"/>
  <path class="st5" d="M6.93,10.84s-.01-.02-.01-.03c0,0,.01.02.01.03Z"/>
  <path class="st5" d="M6.9,10.74s-.01-.02-.01-.03c0,0,.01.02.01.03Z"/>
  <path class="st5" d="M6.88,10.64s-.02-.02-.01-.03c0,0,.01.02.01.03Z"/>
  <path class="st5" d="M6.85,10.54s-.01-.02-.01-.03c0,0,.01.02.01.03Z"/>
  <path class="st5" d="M6.82,10.44s-.01-.02-.01-.03c0,0,.01.02.01.03Z"/>
  <path class="st5" d="M6.8,10.34s-.01-.02-.01-.03c0,0,.01.02.01.03Z"/>
  <path class="st5" d="M6.77,10.24s-.01-.02-.01-.03c0,0,.01.02.01.03Z"/>
  <path class="st5" d="M6.74,10.14s-.01-.02-.01-.03c0,0,.01.02.01.03Z"/>
  <path class="st5" d="M6.72,10.04s-.01-.02-.01-.03c0,0,.01.02.01.03Z"/>
  <path class="st5" d="M6.69,9.94s-.01-.02-.01-.03c0,0,.01.02.01.03Z"/>
  <path class="st5" d="M6.66,9.84s-.01-.02-.01-.03c0,0,.01.02.01.03Z"/>
  <path class="st5" d="M6.64,9.74s-.01-.02-.01-.03c0,0,.01.02.01.03Z"/>
  <path class="st5" d="M6.61,9.64s-.02-.02-.01-.03c0,0,.01.02.01.03Z"/>
  <path class="st5" d="M6.58,9.54s-.01-.02-.01-.03c0,0,.01.02.01.03Z"/>
  <path class="st5" d="M6.56,9.44s-.01-.02-.01-.03c0,0,.01.02.01.03Z"/>
  <path class="st5" d="M6.53,9.34s-.01-.02-.01-.03c0,0,.01.02.01.03Z"/>
  <path class="st5" d="M6.5,9.24s-.01-.02-.01-.03c0,0,.01.02.01.03Z"/>
  <path class="st5" d="M6.48,9.14s-.02-.02-.01-.03c0,0,.01.02.01.03Z"/>
  <polygon class="st0" points="16.43 7.69 13.75 7.69 13.52 5.09 16.67 5.09 16.43 7.69"/>
  <path class="st0" d="M7.73,7.69l-.67-2.56s0-.02,0-.02c0,0,.02,0,.04,0h2.41s.46,2.6.46,2.6h-2.19s-.04,0-.05,0Z"/>
  <polygon class="st0" points="16.11 11.17 14.06 11.17 13.83 8.56 16.35 8.56 16.11 11.17"/>
  <polygon class="st0" points="12.94 7.69 10.79 7.69 10.33 5.09 12.71 5.09 12.94 7.69"/>
  <polygon class="st0" points="19.38 7.69 17.24 7.69 17.48 5.09 19.86 5.09 19.38 7.69"/>
  <path class="st0" d="M8.65,11.17l-.68-2.58s0-.02,0-.02c0,0,.01-.01.03-.01h2.13s.46,2.6.46,2.6h-1.94Z"/>
  <polygon class="st0" points="21.56 11.16 21.07 11.17 19.55 11.16 20.03 8.56 22.04 8.56 21.56 11.16"/>
  <polygon class="st0" points="22.2 7.7 20.2 7.69 20.68 5.09 22.69 5.09 22.2 7.7"/>
  <polygon class="st0" points="13.25 11.16 11.41 11.17 10.95 8.56 13.02 8.56 13.25 11.16"/>
  <polygon class="st0" points="18.73 11.16 17.59 11.17 16.92 11.16 17.16 8.56 19.21 8.56 18.73 11.16"/>
  <path class="st0" d="M9.33,13.78l-.46-1.74s.02-.01.03-.01h1.83s.29,1.62.29,1.62l-1.04.08-.45.03c-.08,0-.15,0-.22.02Z"/>
  <polygon class="st0" points="13.45 13.48 11.84 13.6 11.56 12.03 13.33 12.03 13.45 13.48"/>
  <polygon class="st0" points="15.91 13.3 14.26 13.42 14.14 12.03 16.03 12.03 15.91 13.3"/>
  <polygon class="st0" points="18.36 13.13 16.72 13.25 16.84 12.03 18.56 12.03 18.36 13.13"/>
  <polygon class="st0" points="21.23 12.92 19.2 13.07 19.39 12.03 21.39 12.03 21.23 12.92"/>
  <path class="st5" d="M9,18.54s-.05,0-.07.02h-.04s-.03-.03-.03-.03h.12s.01,0,.01,0Z"/>
  <path class="st5" d="M8.36,18.56h-.03s0-.02,0-.02c.01,0,.02,0,.03.02Z"/>
  <path class="st4" d="M21.05,20.28c.45-.07.85.27.91.74s-.25.91-.69.98-.84-.26-.91-.72.23-.92.69-.99Z"/>
  <path class="st3" d="M21.42,18.55s-.06.01-.08-.01c.03,0,.05,0,.08.01Z"/>
  <path class="st4" d="M8.52,20.28c.45-.07.85.27.91.74s-.25.91-.69.98-.84-.26-.91-.72.23-.92.69-.99Z"/>
  <path class="st5" d="M8.31,18.56s-.04.01-.07.01c.02-.02.04-.01.07-.01Z"/>
</svg>