<?xml version="1.0" encoding="UTF-8"?>
<svg id="_レイヤー_1" data-name="レイヤー_1" xmlns="http://www.w3.org/2000/svg" version="1.1" viewBox="0 0 24 24">
  <!-- Generator: Adobe Illustrator 30.3.0, SVG Export Plug-In . SVG Version: 2.1.3 Build 182)  -->
  <defs>
    <style>
      .st0 {
        fill: #ffe754;
      }

      .st1 {
        fill: #be844a;
      }

      .st2 {
        fill: #842792;
      }

      .st3 {
        fill: #603813;
      }

      .st4 {
        fill: #fed10a;
      }

      .st5 {
        fill: #bd3244;
      }

      .st6 {
        fill: #dcedc5;
      }

      .st7 {
        fill: #9e6837;
      }

      .st8 {
        fill: #c1e079;
      }

      .st9 {
        fill: #ffd10a;
      }

      .st10 {
        fill: #efbb72;
      }

      .st11 {
        fill: #dcb420;
      }

      .st12 {
        fill: #d57527;
      }

      .st13 {
        fill: #c3c3c3;
      }

      .st14 {
        fill: #613914;
      }

      .st15 {
        fill: #dca262;
      }

      .st16 {
        fill: #613813;
      }

      .st17 {
        fill: #e1f0cf;
      }

      .st18 {
        fill: #a17c2f;
      }

      .st19 {
        fill: #68923e;
      }

      .st20 {
        fill: #dce7bc;
      }

      .st21 {
        fill: #de444e;
      }

      .st22 {
        fill: #a3d26d;
      }

      .st23 {
        fill: #d97527;
      }

      .st24 {
        fill: #f18e3d;
      }

      .st25 {
        fill: #fefefe;
      }

      .st26 {
        fill: #754c24;
      }

      .st27 {
        fill: #613913;
      }

      .st28 {
        fill: #e9b71f;
      }

      .st29 {
        fill: #6f207b;
      }

      .st30 {
        fill: #333;
      }

      .st31 {
        fill: #d6f691;
      }

      .st32 {
        fill: #577c37;
      }

      .st33 {
        fill: #ea575d;
      }
    </style>
  </defs>
  <path class="st25" d="M.37,13.64V-.62h23.63v10.77s0,.01,0,0l-.03-.04c-.05-.5-.42-.74-.81-.9-.49-.28-.27-.67-.03-1.07.18-.34.19-.62-.1-.9-.23-.28-.09-.6.04-.88.06-.21,0-.37-.15-.52-.23-.22-.52-.25-.8-.13-.23.05-.29-.1-.3-.32v-.31c.07-1.07-1.44-1.4-2.1-.84h-.05s0,.04,0,.04c-.15.14-.27.3-.37.48l-.04.02s0,0-.01,0h-.02s-.07-.03-.07-.03c-.25-.18-.53-.31-.82-.4l-.24-1.15c-.08-.27-.27-.93-.57-1.02-.11-.03-.22,0-.31.06h-.06s0,.04,0,.04c-.2.14-.36.45-.19.68l.35.34c.11.09.35.54.32.66,0,0,0,.02-.01.03v.07s-.27-.05-.29-.08h-.04c-.17-.2-.39-.31-.63-.32h-.52c-.45-.05-.42-.52-.38-.9,0-.39-.09-.65-.47-.75-.33-.13-.36-.48-.36-.8-.04-.22-.16-.34-.36-.39-.33-.08-.58.05-.79.32-.17.14-.28,0-.37-.15l-.21-.44c-.2-.31-.47-.4-.82-.39-.53.02-1.11.32-1.34.86l-.04.03v.05c-.06.24-.1.48-.11.73-.06.41-.27.58-.64.4l-.35-.19c-.45-.21-.81-.2-1.23.06-.6.38-1.1,1.14-1.17,1.89l-.03.06-.03.06c-.22.18-.4.41-.56.64-.21-.12-.43-.23-.65-.33-.6-.26-.79-.15-.39.45.09.13.18.25.27.37.06.07.05.1,0,.11-.37.14-.72.32-1.04.54l-.05.02v.03c-.13.12.08.15.17.17l.26.02.02.03s.01.03,0,.05c-.29.2-.54.47-.72.8l-.05.04v.08c-.25.49-.35,1.05-.31,1.6l-.02.08s-.03.04-.04,0h-.02s0,.03,0,.03c-.14.03-.28.05-.43.06-.06-.06-.12-.13-.18-.19h-.02c-.05.08-.1.17-.15.26l-.87.23c-.07-.04-.13-.09-.2-.12h-.01c-.02.08-.04.15-.07.22-.23.1-.46.21-.69.33-.07-.03-.15-.06-.22-.1h-.02c-.02.1-.03.21-.05.31-.21.18-.39.41-.45.69l-.03.03.02.05c-.11.52.27.89.69,1.06.03.08.07.15.1.23h.02c.06-.04.12-.09.18-.14.25.06.5.1.75.12.04.07.09.13.13.19h.02c.05-.06.1-.12.15-.17h.58s.01.03.01.03v.08c-.24.46-.35.98-.33,1.5l-.02.07s0,.06.02.08l-.02.02h-.91c.02.24.05.47.08.71l-.02.02-.02.02-1.65-.98c-.11-.04-.23.03-.26.14h-.03s-.02.04-.03.02Z"/>
  <path class="st25" d="M24,10.6v14.05H.37v-10.92s.01-.01.02.01h.03c.02.06.04.1.09.13l1.89,1.13s.02.03.03.05h.03c.04.25.07.49.09.74h.44s.03.03.01.05v.04s.03,0,.03,0l.2,1.81-.02.02s0,.04-.02.05c-.13,0-.27,0-.4,0l.24,2.06h.39s.04.02.03.06c0,.02.02.03.03.04l.19,1.75-.02.02s0,.06.01.09h-.03c-.13.01-.25.01-.37.02l.24,2.07h6.73s.02.03.02.03l.03-.03h9.47s.33-2.08.33-2.08c-.14,0-.29,0-.44,0-.03,0-.05-.02-.02-.05h-.02c.1-.63.19-1.25.29-1.87h.03s.02-.05.06-.04h.42s.33-2.08.33-2.08c-.15,0-.3,0-.45,0l-.02-.03s-.03-.02,0-.03v-.07s0-.01,0-.01l.28-1.79h.03s0-.04,0-.04h.47s.11-.66.11-.66h.03s.03-.06.03-.06l2.03-1.21c.19-.15.05-.46-.17-.4l-1.74,1.03h-.03s-.04-.03-.04-.06l.12-.73h-.82s-.01-.03-.01-.03c-.01,0-.01,0,0-.01l.04-.03c1.49-.3,3.23-1.28,3.41-3.02l.02-.02s0-.01.01,0Z"/>
  <path class="st22" d="M23.99,10.15s0,.03,0,.05v.33s0,.04-.01.06c.01.14-.11.59-.19.78-.26.66-.8,1.18-1.37,1.55s-1.24.62-1.92.74c-.02,0-.04,0-.06.01,0,.01,0,.03-.01.03-.08,0-.23,0-.31,0-.04,0-.06,0-.07-.03l-.02-.02.17-.52h.03c.86-.5,1.64-1.16,1.86-2.24.12-.58.1-1.22-.45-1.52l-.38-.19c-.29-.19-.29-.44-.14-.74.24-.38.49-.82.08-1.18-.15-.19-.15-.37-.09-.6l.13-.3c.14-.46-.39-.79-.77-.71-.18.07-.43.15-.47-.13v-.56c-.01-.31-.13-.5-.36-.69v-.03c.16-.13.33-.22.52-.26.43-.1.89-.01,1.27.24.16.11.3.26.36.45.15.41-.07.87.14,1,.12.08.27-.05.45-.06.25-.01.5.12.64.34.09.14.11.3.04.45l-.1.22c-.07.15-.08.33-.01.49.03.08.09.14.14.2.15.16.2.39.13.62-.08.26-.27.47-.35.71-.05.18,0,.36.13.47.18.15.43.19.64.38.19.17.3.41.32.67Z"/>
  <path class="st13" d="M.39,13.74h-.02v-.11h.03s.02.09,0,.11Z"/>
  <path class="st17" d="M24,10.6h-.01s0-.05.01-.07v.07Z"/>
  <path class="st6" d="M24,10.21s0-.04,0-.05h0v.05Z"/>
  <path class="st10" d="M3.23,13.67c4.17,0,8.34.01,12.51,0v.03s-1.11,2.09-1.11,2.09l-.04.02v.03s-.35,0-1.03,0v-.03s-.03.03-.03.03h-3.49s-.02-.03-.02-.03v.03c-1.17,0-2.33,0-3.49,0l-.02-.03v.03s-3.49,0-3.49,0l-.03.03s0-.03-.01-.05h-.47s-.08-.65-.08-.65l-.02-.12-.03-.04-.06-.55.02-.02-.09-.75h.95s0-.07,0-.07c.04-.02.05.05.01.06Z"/>
  <path class="st8" d="M16.05,5.5v.03s-.04.07-.15.2c-.07.12-.01.16.17.13l.02.03h.05s0-.02.01-.01c0,0,.02.02.02.03s.01.02.01.03c.1.54.03,1.02-.15,1.54,0,0-.01.02-.02.03s-.02.02-.03.02l-.04-.05c-.09-.25-.21-.48-.36-.69l-.02-.07.02-.02c.06,0,.31.03.34-.03.01-.03-.05-.1-.07-.11v-.04c-.08-.03-.15-.07-.22-.13-.28-.16-.56-.32-.84-.47-.02-.03-.02-.05.02-.06.15-.05.29-.11.43-.18.07-.03.38-.18.36-.28-.02-.11-.33-.16-.4-.17-.32-.04-.61-.04-.92.03-.11-.31-.21-.6-.35-.89-.04-.07-.15-.25-.24-.24-.09.02-.14.25-.16.34-.04.21-.06.43-.07.65,0,.03-.02.04-.05.04l-.42-.17v-.03s0-.03,0-.06c-.06-.57-.96-1.27-1.45-.82l-.3.31c-.11.07-.19.03-.25-.08-.08-.18-.16-.31-.35-.37-.38-.13-.48.11-.59.43-.1.17-.25.23-.43.21-.22.02-.33.16-.39.38l-.03.02s-.01.02-.02.02c-.03,0-.27-.04-.28-.05,0,0-.01-.02-.01-.03v-.03s.27-.23.24-.3c-.01-.03-.1-.03-.13-.03l-.03-.02-.07.03c-.37.07-.73.17-1.09.3-.11.04-.14.05-.1-.07.11-.23.22-.46.29-.71.02-.05.04-.2,0-.24-.09-.08-.41.16-.47.22l-.06.02c.03-.37.14-.73.33-1.05.39-.65,1.09-1.32,1.84-1.11.3.09.51.27.76.35.21.07.4-.05.46-.28.07-.3.03-.59.16-.94h.03c.47.04.65.43.82.82.09.16.17.26.32.12.21-.26.46-.38.79-.3.39.09.44.36.43.72.04.23.1.38.31.47.54.12.54.65.49,1.14,0,.3.09.5.39.53l.42-.02c.54-.02.89.42,1.05.92l-.02.04Z"/>
  <path class="st22" d="M17.35,3.98l.06.04c.08.11.15.23.19.36-.07.06-.15.1-.24.14-.48.23-.86.57-1.25.93-.02.02-.05.04-.08.05,0-.03,0-.05-.01-.08-.19-.52-.5-.89-1.06-.86l-.38.02c-.22,0-.37-.16-.41-.38-.04-.25.04-.53,0-.8-.04-.23-.19-.4-.4-.46-.09-.03-.18-.07-.25-.15-.09-.11-.14-.24-.15-.39v-.25c-.02-.15-.1-.28-.22-.35s-.25-.1-.39-.1c-.41,0-.5.29-.65.37-.08.04-.16.01-.22-.06-.05-.06-.08-.13-.11-.2l-.15-.33c-.12-.22-.31-.36-.55-.4-.03,0-.06,0-.09-.03.22-.59.86-.91,1.44-.92.16,0,.31.03.45.1s.24.17.33.3l.16.34c.04.08.07.15.11.21.07.09.18.12.26.04l.1-.11c.12-.15.29-.23.47-.24.31-.02.6.13.62.48v.21c.02.27.16.47.4.54.22.07.38.25.41.5.04.31-.05.57.02.84.05.17.18.29.35.3h.34c.14-.02.28-.02.41.02.18.05.32.17.44.31Z"/>
  <path class="st0" d="M7.86,7.96v.05c-.11.21-.14.46-.14.7-.05.05-.1.1-.15.15-.02.02-.02.04,0,.06.07.03.13.08.18.13.02.05.02.09,0,.12,0,.07-.02.13-.05.19-.04.09-.09.19-.16.25l-.05.04c-.26.08-.51.22-.74.38h-.03c-.17-.23-.35-.44-.56-.62-.13-.11-.43-.35-.42,0,.01.28.1.54.18.81,0,.05,0,.08-.05.07-.31,0-.61.03-.92.06h-.04s-.06-.06-.06-.06c-.28-.38-.46-.92-.52-1.39,0-.01,0-.03,0-.04s0-.03.01-.04c-.06-.61.05-1.22.32-1.76.85-.52,2.26-.8,2.92.18.11.16.26.47.28.67,0,.02,0,.05-.01.07Z"/>
  <path class="st8" d="M20.24,13.13v-.07c.4-1.35.57-2.72.42-4.13-.12-1.1-.39-2.19-.89-3.15v-.05s0-.03,0-.03c.24-.04.11-.26.01-.39-.14-.18-.3-.34-.48-.48l-.03-.05c.08-.14.16-.29.27-.4l.13-.13s.03.04.05.05c.13.11.24.25.29.42.04.15.04.3.03.46v.33c0,.07.03.13.07.16.13.1.3-.06.5-.06.24,0,.47.13.61.34.09.13.11.29.05.43l-.12.29c-.08.22-.03.46.13.62.17.17.22.42.14.65-.09.25-.26.44-.33.67s.01.45.21.55l.35.17c.44.22.59.69.54,1.19-.03.33-.11.64-.24.94s-.32.56-.54.79l-.3.29c-.27.23-.55.42-.86.58,0,0-.01,0-.02,0Z"/>
  <path class="st33" d="M6.48,13.68c-1.06.01-2.19.01-3.26,0,0-.02,0-.05-.01-.06-.04-.58.09-1.15.35-1.65,0-.01,0-.03,0-.04s0-.02,0-.03c.12-.21.28-.43.45-.59,0,0,.02-.01.03-.02s.02,0,.03,0c.03-.02.07-.03.11-.04.36-.07.89,0,1.24.09,1,.3,1.43,1.1,1.12,2.18-.01.07-.04.13-.08.17Z"/>
  <path class="st19" d="M4.3,8.82h.02s.04,0,.04,0c.05.55.24,1.07.56,1.52-.06,0-.12,0-.17.04,0,.03-.02.06-.06.08,0,.04.02.08.08.12.1.06.19.11.29.15v.03c-.05.04-.12.07-.19.08l-.28.11c-.05.04-.11.06-.17.07l-.1.03c-.8.09-1.65.1-2.44,0-.33-.05-.7-.16-.95-.41v-.05c.02-.12.05-.23.12-.35.09-.15.2-.28.33-.39l.03-.29s.04-.05.07-.03l.2.1c.22-.13.44-.24.68-.33l.06-.2s.05-.04.07-.02l.17.12c.29-.09.57-.16.86-.23l.13-.24s.06-.02.08,0l.15.17.42-.07Z"/>
  <path class="st19" d="M17.18,2.26c.06-.04.13,0,.19.04.11.07.23.23.28.35.26.57.38,1.18.47,1.8.51.13,1.02.47,1.37.88.09.11.19.24.2.39-.04.02-.08.03-.13.02,0,0,0,.02-.01.02-.07,0-.19-.02-.26-.03l-.75-.18v.13s-.03.02-.03.02c.04.22.02.48,0,.71-.18,1.51-.97-.53-1.11-.95l-.21.09h-.03c-.32.14-.65.27-.99.35l-.02-.02s0,0-.01,0h-.05s-.16.02-.16.02c-.03,0-.06-.01-.06-.03-.05-.09.1-.26.19-.36.28-.3.6-.57.94-.79.21-.13.41-.24.62-.33,0-.02.01-.04.05-.05v-.15c-.02-.06-.02-.13-.01-.18-.05-.27-.17-.52-.36-.7l-.3-.29c-.19-.19-.07-.53.12-.68l.07-.06Z"/>
  <path class="st9" d="M8.27,5.28h.05c.67.58,1.12,1.48,1.09,2.42l-.04.02s-.14.07-.15.07c-.24-.14-.51-.23-.79-.18-.02-.01-.04-.02-.07-.01l-.03.03c-.18.05-.33.15-.44.31l-.04.02c-.2-1-.91-1.45-1.86-1.34-.46.05-.9.21-1.31.44-.01,0-.02,0-.03,0,.17-.34.42-.62.72-.84.02-.02.04-.03.05-.05l.07-.03c.44,0,.86-.11,1.26-.29.23.18.46.35.71.5.48.29.62.17.44-.35h0s-.01-.04-.01-.04c-.01,0-.01,0,0,0v-.02s-.02-.01-.01-.01c0,0-.02,0-.03,0-.03-.05-.21-.44-.19-.46h.06s.05-.05.05-.05c.14-.03.27-.07.4-.13h.06Z"/>
  <path class="st19" d="M8.96,4.52s0,.02-.01.03,0,.02-.02.03c-.37.36-.81.59-1.29.69l.08.15s.03,0,.04.02l-.04.02.2.45h0c.17.44-.08.5-.43.31-.28-.15-.55-.34-.79-.56-.5.25-1.06.34-1.61.29-.01,0-.02,0-.04-.01s-.02-.01-.03-.02c.09-.09.19-.14.31-.21.27-.15.54-.26.82-.38-.14-.19-.28-.36-.39-.56-.06-.11-.12-.21-.14-.33,0-.05,0-.09.03-.12.02-.02.06-.04.09-.04.13,0,.25.03.37.07.27.1.52.24.78.39.16-.27.37-.49.6-.68.1-.08.2-.16.32-.22.08-.04.18-.08.23-.03.02.02.03.05.03.08,0,.1-.02.19-.06.29-.08.24-.18.45-.3.68.3-.1.59-.2.89-.27.13-.03.24-.06.37-.07Z"/>
  <path class="st32" d="M4.41,11.02s-.02.04-.03.05c-.08.07-.2.15-.29.2-.21.2-.38.43-.53.69h-.59s-.12.14-.12.14c-.02.03-.07.05-.09.01l-.11-.18c-.25-.02-.49-.06-.74-.12l-.13.11s-.08.04-.1,0l-.09-.22c-.48-.19-.81-.56-.69-1.12.25.3.7.4,1.08.45.78.11,1.63.05,2.41-.02Z"/>
  <path class="st32" d="M19.24,4.77h.02s0,.01.01.01c.15.12.31.25.44.41.1.12.26.33.2.45-.03.06-.1.08-.16.09-.04.05-.16.06-.2,0h.11c-.01-.2-.2-.41-.34-.54-.35-.34-.76-.6-1.22-.73-.1-.6-.21-1.23-.45-1.77-.11-.22-.24-.43-.47-.44.09-.08.22-.13.34-.11.21.04.35.33.45.54.1.26.19.53.24.81l.16.84c.32.09.61.24.87.43Z"/>
  <path class="st30" d="M2.36,14.43l.07.61-1.92-1.14c-.06-.04-.09-.09-.11-.16-.01-.04,0-.08,0-.12.02-.07.06-.13.11-.16.07-.04.15-.05.22,0l1.64.97Z"/>
  <path class="st32" d="M7.91,5.92s0,0,0,.01v.02s.01,0,.01,0c0,.01,0,.02.01.03.06.15.15.42.05.51-.05.04-.11.03-.17.02-.14-.04-.27-.1-.39-.18-.23-.14-.44-.3-.64-.47-.42.21-.88.3-1.33.3-.16,0-.49-.01-.51-.12-.01-.05.04-.09.07-.12.56.07,1.16-.02,1.68-.27.24.19.48.37.74.52.11.06.22.12.35.14.04,0,.08,0,.11-.03.07-.06.04-.22.01-.34,0-.01,0-.02.01-.02Z"/>
  <path class="st8" d="M17.65,4c.02.11.03.22.03.34,0,.03-.05.03-.07.04-.01,0-.03,0-.03-.02-.06-.14-.13-.27-.22-.37.09.02.19.03.29.07v-.05Z"/>
  <path class="st0" d="M4.3,8.82s0,0,.02,0c0,0,0,0-.02,0Z"/>
  <path class="st8" d="M19.26,4.78s0,0-.02-.01c0,0,.01,0,.02.01Z"/>
  <path class="st10" d="M3.21,17.73c3.46-.01,6.91-.01,10.36,0v.02s-1.12,2.09-1.12,2.09l-.04.02v.03c-.79,0-1.57,0-2.37,0l-.03-.02h-3.49s0,.02-.02,0c-1.02,0-2.04,0-3.06,0v.02s-.04-.03-.07-.03h-.39s-.25-2.13-.25-2.13h.42s.03,0,.04-.03c.03-.03.05.01,0,.03Z"/>
  <path class="st15" d="M10.24,23.9l-.02-.02.54-1.02c0-.07,0-.1.04-.09.02.02.03.06.02.11l.02.07s-.01.02,0,.04c.03,0,.07.02.1.06l.07.02h1.43c.22-.02.29-.25.13-.41v-.03s-.05,0-.08,0c-.49,0-.98,0-1.48,0-.03.01-.06,0-.07-.01-.03-.01-.03-.03-.01-.05l.4-.74H3.67s-.05-.02-.02-.04c0-.02,0-.02.01,0v-.02c.94-.01,1.89-.01,2.83,0l.02.03v-.03c1.17,0,2.33,0,3.49,0l.02.03s0-.03,0-.03c1.16,0,2.33,0,3.5,0l.02.03v-.03c1.16,0,2.31,0,3.46,0l.02.03v-.03s2.51,0,2.51,0c.03,0,.06,0,.08,0,0,.01,0,.02.02.02h.46s-.34,2.13-.34,2.13h-9.52Z"/>
  <path class="st15" d="M6.52,17.72v-.03c1.17,0,2.33,0,3.49,0l.02.03v-.03c1.18,0,2.34,0,3.51,0l.02.03v-.03c1.16,0,2.31,0,3.46,0l.02.03v-.03s1.08,0,3.21,0l.02.03h.5s-.34,2.13-.34,2.13h-.44s-.06,0-.06,0v.03c-.96,0-1.91,0-2.86,0l-.02-.03c-1.16,0-2.32,0-3.48,0v.02s-1.12,0-1.12,0v-.03s1.13-2.13,1.13-2.13H3.21s.01-.03.01-.03h3.28s.02.01.02.01Z"/>
  <path class="st10" d="M3.66,21.72s.01,0,0,.01c0,.01,0,.02,0,.03,0,0,0,0,0,.01h7.72s-.41.77-.41.77c-.01.02-.02.04-.02.06,0,.02-.01.04-.04.06l-.06.07s-.02.04-.04.05c-.03.02,0,.07-.02.1l-.55,1.03H3.48s-.25-2.13-.25-2.13h.41s0-.08,0-.08c.03-.02.04,0,.01.03Z"/>
  <path class="st15" d="M6.48,13.68s0-.02.01-.03h1.45s.01.03.01.03l.02-.03c.6,0,1.2,0,1.8,0v.03s.02-.03.02-.03h.91s.04.03.04.03c0-.01,0-.03,0-.03.1,0,.24,0,.34,0,.05,0,.08,0,.09.03l.02-.02c2.17,0,4.34,0,6.52,0l.02.03.02-.02c.76,0,1.51,0,2.27,0l.02.03h.39s.05-.01.06,0h.87s-.12.75-.12.75c0,.03,0,.05,0,.06.01.02.01.04,0,.07l-.08.53-.03.04-.11.69h-.5s-.01.03-.01.03h-3.49s-.02-.03-.02-.03v.03c-.81,0-1.62,0-2.42,0v-.03s1.13-2.13,1.13-2.13H3.24s-.02,0-.02-.01h3.26Z"/>
  <path class="st1" d="M6.52,15.81l.02.03v1.86s-.02.02-.02.02h-3.31s0-.01,0-.01l-.2-1.84s0-.03,0-.05h3.51Z"/>
  <path class="st1" d="M20.54,15.82l-.28,1.81v.07s-.01.03-.01.03h-3.22s-.02-.01-.02-.01v-1.88s.02-.02.02-.02h3.51Z"/>
  <path class="st1" d="M6.51,19.86v.03s-3.02,0-3.02,0c0,.02-.01.02-.01,0h2.97s.03.01.04.04v1.76s0,.01-.02.04c-.93,0-1.87.01-2.8,0h-.01s0-.03-.01-.04l-.2-1.81s0-.03,0-.03h3.06Z"/>
  <path class="st1" d="M19.9,19.86l-.29,1.88s-.04.02-.08.02h-2.51s-.02,0-.02,0v-1.87s.03-.02.03-.02c-.01,0-.01,0,0-.01h2.88Z"/>
  <path class="st30" d="M21.15,15.12l.09-.57s0-.05.03-.07l1.73-1.03c.11-.07.25,0,.3.12s.03.26-.08.32l-2.06,1.23Z"/>
  <path class="st20" d="M20.51,13.66h0s-.06.01-.06.01c.01-.02.04-.01.06-.01Z"/>
  <path class="st15" d="M20.24,17.69s0-.05.01-.07c0,.02,0,.05-.01.07Z"/>
  <path class="st29" d="M19.56,5.74c.06,0,.13,0,.2,0,.48.84.74,1.89.88,2.87.12.83.13,1.67.03,2.51-.08.69-.23,1.37-.43,2.02l-.18.55h-2.3s.02-.09.04-.14c.23-.51.44-.99.61-1.53.5-1.55.68-3.11.44-4.73-.08-.54-.21-1.07-.34-1.58v-.18s.78.19.78.19l.27.03Z"/>
  <path class="st1" d="M13.54,15.81h.02c0,.64,0,1.26,0,1.89l-.02.02h-3.52s-.02-.01-.02-.01v-1.88s.03-.02.03-.02h3.52Z"/>
  <path class="st7" d="M10.03,15.81v1.9s-3.51,0-3.51,0v-1.32s0-.53,0-.53c0-.02,0-.04,0-.05h3.51Z"/>
  <polygon class="st7" points="14.58 15.81 17.02 15.81 17.02 17.72 13.55 17.72 13.54 15.81 14.58 15.81"/>
  <path class="st26" d="M12.58,14.48v.02c.06.18-.06.34-.23.36-.51,0-1.01,0-1.5,0-.06-.08-.06-.17-.02-.27.03-.07.11-.14.2-.14h1.45s.07.02.11.04Z"/>
  <path class="st26" d="M5.59,14.48c.02.08.02.15-.02.24-.04.07-.11.12-.18.13h-1.47s-.05-.01-.07-.03c-.04-.08-.04-.17,0-.26.03-.06.1-.12.19-.12h1.45s.07.02.11.04Z"/>
  <path class="st27" d="M5.59,14.48c.09.06.13.18.1.29s-.12.18-.23.18h-1.43c-.08,0-.15-.06-.18-.13h.07s1.43,0,1.43,0c.08,0,.15-.05.19-.11.05-.07.06-.16.02-.24.01,0,.02,0,.03,0Z"/>
  <path class="st27" d="M12.58,14.48c.09.06.13.18.1.29s-.12.18-.23.18h-1.42c-.07,0-.14-.04-.18-.1,0,0,0-.01,0-.02,0-.01.02,0,.03,0h1.46c.08,0,.14-.06.18-.11.05-.07.05-.15.02-.23.01,0,.02,0,.03,0Z"/>
  <path class="st23" d="M12.47,5.22l.07.03c.3.29.65.51,1.03.66.04.28.11.56.18.83.19.64.34.44.54,0-.03-.02-.02-.03.01-.03,0,0,0,0,0-.01,0,0-.02,0-.02-.02.01-.08.08-.31.11-.38h.03s0,0,0,0h.01s.07.03.07.03c.3.2.64.31.99.36l.06.03c.19.24.33.51.43.81.02.02.03.04.04.06.07.15.1.45.11.62.02.12.02.24-.01.35l-.02.06c-.43.79-1.02,1.48-1.69,2.05l-.06.03h-.03c-.07-.23-.13-.45-.19-.68.06-.07.1-.14.13-.22-.07-.03-.15-.07-.22-.1l-.17-.53v-.04s.14-.18.14-.18v-.03c-.09-.04-.18-.07-.27-.12l-.35-.86c.02-.06.04-.13.07-.19.02-.04.01-.06-.01-.07l-.19-.03s-.07-.08-.04-.11v-.05c.16-1.13-.94-1.86-1.83-2.12-.02-.01-.03-.02,0-.05,0,0,.02-.02.02-.03s.02-.01.03-.02c.24-.09.71-.13.96-.06l.06.03Z"/>
  <path class="st31" d="M12.98,4.94l-.02.02c-.2-.08-.4-.14-.6-.18l-.03-.02-.02.03s-.08,0-.09.04c-.02.09.21.32.27.38v.03c-.37-.07-.73-.05-1.07.07l-.05.05c-.27.1-.53.26-.75.45l-.07.02h-.03c-.34-.36-.77-.68-1.26-.82l-.06-.04c.06-.25.21-.44.46-.42.17.01.33-.08.39-.24l.08-.21c.05-.12.15-.2.28-.21.15-.01.3.04.42.13.15.12.15.32.26.37.05.03.12,0,.16-.04l.17-.18c.08-.09.16-.17.27-.22.49-.22,1.29.38,1.34,1.01-.02,0-.03,0-.04,0Z"/>
  <path class="st19" d="M15.84,6.51s-.02.01-.03.02-.02,0-.03,0c-.46,0-.89-.16-1.28-.41l-.04.16h-.03s-.12.41-.12.41c0,0,0,0,0,.01v.03c-.18.42-.37.29-.5-.11-.09-.29-.16-.59-.2-.9-.36-.11-.66-.33-.95-.58-.08-.07-.28-.26-.33-.35,0-.01,0-.03,0-.05.08,0,.15.02.23.04l.42.15.45.18c.01-.27.06-.96.24-1.02.03-.01.07,0,.1.02.08.07.14.16.19.25.14.27.24.56.33.86.37-.09.74-.08,1.11,0,.09.02.22.08.23.15,0,.03,0,.06-.03.08-.06.07-.14.12-.22.16-.19.1-.38.17-.59.25l.68.37c.14.08.26.16.38.26Z"/>
  <path class="st28" d="M9.19,4.95c.43.11.81.34,1.14.65l.2.21-.03.06c-.56.54-.91,1.32-.86,2.13l-.02.07s-.11-.05-.11-.09v-.23s-.05-.04-.12,0l-.02-.02s.02-.03.02-.05c0-.92-.4-1.76-1.05-2.35-.02-.02-.04-.04-.07-.04l.05-.05c.18-.1.36-.21.53-.33h.04s.31.05.31.05Z"/>
  <path class="st22" d="M17.16,5.54v.08c-.09.17-.15.34-.2.51l-.28,1.15c-.1.44-.27.84-.49,1.23,0,.01-.01.02-.02.03s-.02.02-.03.02c0-.35-.04-.7-.15-1.03.19-.52.28-1.09.16-1.65l.33-.1.66-.25s.01,0,.01.01Z"/>
  <path class="st32" d="M8.88,4.89c-.19.15-.39.29-.61.39-.17.08-.34.13-.52.17-.01,0-.03,0-.05.01l-.11-.22c.52-.09.99-.36,1.36-.73.05,0,.13-.02.17.03.07.07-.14.27-.25.35Z"/>
  <path class="st32" d="M15.84,6.51s.1.08.1.15c0,.08-.25.07-.38.06-.4-.04-.78-.17-1.11-.41h-.01s0-.01,0-.01l.06-.22c.41.3.88.43,1.36.44Z"/>
  <path class="st22" d="M16.13,5.88s-.03.01-.05.01c.01-.02.03-.02.05-.01Z"/>
  <path class="st32" d="M8.37,7.6c.05,0,.07,0,.07.03-.13.29-.1.65-.04.95.18.89.54,1.71.93,2.52l.76,1.45c.2.37.42.72.66,1.06l.02.05h-.96s-.02-.07-.02-.07c.09-1.09-.41-2.23-1.34-2.73-.19.07-.4.12-.6.12l-.03-.02c-.09,0-.17,0-.26,0l-.02.02-.22-.02v-.03s-.04-.01-.04-.01c0,.03-.01.03-.02,0h-.03s-.03-.22,0-.24c0,0,.03,0,.04,0,.32.07.63.04.94-.02.08-.02.29-.07.35-.11.02-.01-.4-.07-.44-.07-.03,0-.03-.02-.02-.05-.03,0-.04-.02-.03-.09h-.03s-.05-.15-.05-.15l-.17-.07s-.05-.03-.02-.06c-.02-.01-.02-.03,0-.05.11-.1.18-.22.23-.36-.02-.06-.07-.09-.17-.07-.03,0-.04-.02-.03-.07-.01,0-.01,0,0-.01v-.04s-.04,0-.04,0c-.03-.08-.04-.19-.03-.27l-.02-.12-.16-.1s-.03-.04-.03-.06c0-.02.01-.04.03-.06l.14-.14c0-.26.03-.53.16-.74.12-.19.3-.31.51-.36Z"/>
  <path class="st19" d="M7.53,9.61l.04-.04.22-.05.02-.02.03.04c.08,0,.17,0,.19.05.05.1-.12.3-.22.42l-.02.04v.03s-.29.3-.29.3l.43.03v.03c.07-.01.12-.01.17,0,0,0,.02.02.04.02.17.02.33.04.5.09-.12.06-.24.1-.37.13-.34.09-.69.11-1.04.03l.03.23s.02.01.03.02c0,.02.04.35.03.37,0,.01-.01.02-.02.02.03.45-.18.54-.46.2-.2-.24-.38-.5-.53-.78-.4.05-.78-.04-1.15-.16-.07-.02-.35-.13-.39-.18-.04-.05.05-.08.09-.09.02,0,.04,0,.07,0,.33-.05.66-.06,1-.07-.1-.3-.22-.66-.19-.96,0-.04.03-.08.05-.09.18-.1.64.4.8.6l.16.2c.24-.19.51-.31.79-.4Z"/>
  <path class="st4" d="M7.8,9.45v.04s0,0,.01.01c0,0,0,.04,0,.04l-.27.06c.08-.14.16-.28.21-.43l.06.28Z"/>
  <path class="st21" d="M7.29,11.33l-.03-.4h.02s.03.01.03.01l.25.03c.09,0,.18,0,.27,0l.03.02c.43.8.52,1.78.16,2.63,0,.01-.01.02-.02.03s-.02.02-.03.03h-1.48s0-.05.02-.07c.12-.31.17-.64.12-.98-.16-1.22-1.55-1.51-2.53-1.35.1-.09.21-.18.32-.25.2-.12.42-.21.64-.26,0-.02.01-.03.03-.03.4.16.82.22,1.24.2.15.24.3.47.47.69.43.56.49.19.49-.29Z"/>
  <path class="st32" d="M4.91,10.33l-.16.05c.11.08.23.12.36.17.38.15.78.21,1.19.18.16.27.32.52.52.75.08.09.15.16.25.21.07.03.13,0,.15-.07.04-.09.05-.18.05-.28,0-.01,0-.02.01-.03.02.18.03.52-.09.59-.04.03-.09.01-.13,0-.09-.05-.16-.12-.24-.21-.19-.23-.35-.48-.51-.75-.4.03-.79-.03-1.17-.17-.03-.01-.06-.03-.09-.02l-.2-.1c-.08-.04-.16-.08-.2-.16-.02-.05.04-.08.06-.1.03-.04.05-.07.09-.08s.07,0,.11.02Z"/>
  <path class="st32" d="M3.19,10.24c.08-.02.15.03.16.1.02.08-.02.15-.09.18s-.14-.02-.16-.09c-.02-.07.01-.16.09-.19Z"/>
  <path class="st32" d="M3.73,9.44c.08-.02.15.03.16.1.02.08-.02.15-.09.18s-.14-.02-.16-.09.01-.16.09-.19Z"/>
  <path class="st32" d="M3.88,10.64c.08-.02.14.04.16.11.02.08-.03.16-.1.17-.07.02-.14-.03-.16-.1-.02-.07.02-.16.1-.17Z"/>
  <path class="st32" d="M1.86,10.29c.08-.01.14.05.15.12.01.09-.04.15-.11.16-.07.01-.14-.04-.15-.11s.03-.15.11-.17Z"/>
  <path class="st32" d="M2.46,9.69c.08-.02.15.04.16.11.02.08-.03.15-.1.17s-.14-.03-.16-.1c-.02-.07.02-.16.1-.18Z"/>
  <path class="st2" d="M18.51,5.69s.01.02.02.04c.17.57.29,1.15.37,1.74.1.72.11,1.44.04,2.17-.14,1.42-.56,2.78-1.18,4.03h-6.55s0-.03,0-.04,0-.03,0-.04c.2-.45.55-.89.92-1.2,0,0,.02-.01.03-.02s.03,0,.04,0v-.03c.14-.11.28-.23.42-.34h.03s0-.02,0-.02l.76-.55.08-.03s.03-.07.06-.04c0-.02.01-.04.03-.06l.79-.62h.03c.7-.6,1.29-1.29,1.76-2.12.12-.22.24-.43.33-.67.11-.28.18-.56.25-.85l.19-.8c.06-.25.14-.48.25-.7,0-.02.03-.04.06-.05l.19-.08c.13.35.55,1.48.84,1.51.26.03.26-.95.26-1.24Z"/>
  <path class="st19" d="M9.37,7.73l.1-.03s.04,0,.05.01c0,0,.02.02.02.04v.24s.08.07.08.07c.04.01.07.03.1.06l.35.38h.18c.05,0,.08.01.08.07-.01.08-.03.17-.04.25l.06.04.45.67.26.04.03.07v.04c-.05.14-.08.21-.08.21.02.03.03.06.04.08v.02c.05.05.15.24.17.3,0,0,0,.02,0,.02.01.01.03.03.04.06l.02-.02c.09,0,.26.01.25.13-.03.07-.06.14-.08.21l.41.8.26.06s.03.02.04.05c.01.07-.08.22-.12.28l.18.46-.02.02c-.19.15-.36.33-.52.52-.2.24-.36.5-.48.78h-.44c-.25-.35-.49-.71-.7-1.1l-.76-1.46c-.35-.73-.75-1.66-.91-2.45-.07-.34-.12-.76.03-1.05h-.05c.31-.08.58,0,.86.17l.14-.05Z"/>
  <path class="st19" d="M7.94,5.98s-.01,0-.01,0v-.02s0,.02.01.03Z"/>
  <path class="st19" d="M7.92,5.94s-.01,0-.01-.02c0,0,.01,0,.01.02Z"/>
  <path class="st1" d="M12.41,19.86h1.13s3.48,0,3.48,0h0s-.01.04-.01.04h-3.43s0,0,0,0v1.84s-.02.02-.02.02h-2.18s-1.34,0-1.34,0h-.02c0-.63,0-1.25,0-1.87h-3.44s0,0,0,0v1.84s-.03.02-.03.02h-2.85s-.01-.01-.01-.03h0s.06-.03.11-.02h2.69s0-1.79,0-1.79h-3s0-.03,0-.05h3.05s5.9-.01,5.9-.01Z"/>
  <path class="st26" d="M6.11,18.58c.02.09.02.15-.02.24-.05.09-.13.13-.22.14h-1.44s-.03-.02-.04,0c-.06-.07-.07-.17-.02-.27.03-.06.1-.14.19-.14h1.46s.07.02.11.04Z"/>
  <path class="st26" d="M12.58,18.58c.02.1.02.19-.05.27-.05.07-.12.1-.2.1h-1.43s-.04-.02-.05,0c-.06-.07-.07-.17-.02-.27.03-.06.1-.14.19-.14h1.46s.07.02.11.04Z"/>
  <path class="st27" d="M12.58,18.58c.09.05.13.16.1.27-.02.09-.1.19-.2.19h-1.46c-.07,0-.13-.05-.17-.1,0,0,0-.01,0-.02,0-.01.03,0,.03,0h1.44c.09,0,.15-.04.2-.11.05-.07.06-.16.02-.24.01,0,.02,0,.03,0Z"/>
  <path class="st14" d="M6.11,18.58c.09.06.13.16.1.27-.02.09-.1.19-.2.19h-1.46c-.07,0-.13-.05-.17-.1,0,0,0-.01,0-.02,0-.01.03,0,.03,0h1.45c.08,0,.15-.05.19-.11.05-.07.06-.16.02-.24.01,0,.02,0,.03,0Z"/>
  <rect class="st7" x="6.52" y="19.87" width="3.51" height="1.89"/>
  <rect class="st7" x="14.34" y="19.08" width="1.89" height="3.48" transform="translate(-5.56 36.07) rotate(-89.9)"/>
  <path class="st26" d="M18.53,22.62c.06.19-.03.35-.23.38h-1.46s-.03-.02-.04,0c-.06-.08-.06-.18-.02-.27.04-.08.12-.13.22-.13h1.42s.07.02.1.04Z"/>
  <path class="st26" d="M12.58,22.62c.01.06.02.12,0,.18-.03.1-.1.17-.19.19h-1.51s-.04-.02-.03,0c-.05-.06-.05-.14-.04-.21s.08-.14.15-.18c.02,0,.05-.01.07-.01h1.44s.08.02.12.04Z"/>
  <path class="st3" d="M16.8,22.99s0-.02,0-.02c0,0,.02,0,.03,0h1.47c.15,0,.25-.17.21-.31,0-.02,0-.03.01-.04.09.06.14.17.11.28-.03.1-.11.18-.22.18h-1.42c-.08,0-.14-.04-.19-.1Z"/>
  <path class="st3" d="M12.58,22.62c.09.06.13.18.1.29-.03.1-.12.18-.23.18h-1.42c-.08,0-.13-.05-.18-.1v-.02s.02,0,.03,0h1.48c.08,0,.15-.06.18-.11.04-.07.05-.15.02-.23.01,0,.02,0,.03,0Z"/>
  <path class="st1" d="M3.66,21.76h-.01s0-.03,0-.03c0,0,0,.02.01.03Z"/>
  <path class="st26" d="M19.08,18.58v.02c.05.2-.07.33-.25.36-.49,0-.97,0-1.46,0-.01,0-.03-.02,0-.02.02,0,.02.03,0,.03-.06-.07-.08-.17-.04-.27.03-.07.11-.15.2-.15h1.45s.08.02.12.04Z"/>
  <path class="st27" d="M19.08,18.58c.09.07.13.18.09.29-.03.1-.11.17-.22.17h-1.42c-.07,0-.13-.03-.18-.09,0-.01,0-.02-.01-.04h.1s1.39,0,1.39,0c.08,0,.15-.05.19-.1.05-.07.06-.16.03-.24.01,0,.02,0,.03,0Z"/>
  <path class="st26" d="M6.4,22.62c.06.14-.02.33-.18.37h-1.51s-.04-.02-.04-.02c-.05-.08-.05-.17-.01-.26.04-.07.11-.13.2-.13h1.44s.07.02.1.04Z"/>
  <path class="st16" d="M4.67,22.98h1.52c.07,0,.14-.06.17-.11.05-.07.05-.15.03-.23,0,0,0-.02.02-.02.09.06.14.17.11.29-.02.09-.11.18-.21.18h-1.45c-.08,0-.14-.05-.18-.11Z"/>
  <path class="st5" d="M9.8,13.68h-1.84c.4-.87.31-1.87-.14-2.7h-.24s-.02,0-.02-.01h.31c.2,0,.39-.06.58-.12.26.13.48.32.68.55.52.62.76,1.46.68,2.28Z"/>
  <path class="st26" d="M19.61,14.48c.06.2-.04.35-.23.38h-1.46s-.03-.02-.04,0c-.05-.07-.06-.17-.02-.26.03-.07.1-.14.2-.14h1.45s.07.02.1.04Z"/>
  <path class="st27" d="M17.89,14.85s0-.01,0-.02c0-.02.03,0,.03,0h1.46c.07,0,.14-.05.17-.1.05-.07.06-.15.04-.23,0-.01,0-.03.02-.03.09.06.14.17.11.29-.03.09-.11.18-.21.18h-1.42c-.08,0-.15-.03-.2-.1Z"/>
  <path class="st19" d="M13.24,7.51s.02.07.05.09l.18.03c.1.02.03.15-.03.28l.35.87.25.1s.03.06.01.08l-.14.19.17.54.19.07c.09.04,0,.16-.09.27l.19.67-.84.67s-.04,0-.01-.07c0-.32-.39-.04-.12.08.04,0,.06,0,.07.03l-.83.61h-.03c-.47-1.4-.9-2.89-1.02-4.44-.03-.39,0-.85.19-1.19.02-.03.04-.07.08-.08.06-.04.17,0,.23.01.2.06.38.18.53.33l.24-.02c.14.01.06.24.02.32.12.15.24.32.33.5,0,0,0,.02.01.03s0,.03,0,.04Z"/>
  <path class="st24" d="M11.41,5.29s.01.02.03.03c.68.2,1.47.68,1.75,1.39.1.26.12.53.06.8-.11-.19-.23-.38-.37-.56.05-.14.09-.31,0-.3l-.25.02c-.13-.13-.28-.23-.45-.3-.1-.04-.21-.06-.31-.07l-.04.02c-.5-.02-.78.41-.86.9-.07.04-.14.09-.2.14v.02c.05.06.1.11.16.17-.01.27,0,.54.01.81-.05.06-.1.11-.15.17v.02c.05.05.11.1.18.15l.04.23-.02.02c.02.07-.03.09-.15.05l-.41-.11s-.08-.03-.12-.07c0-.01-.02-.02-.02-.05l.03-.19s0-.04-.01-.05c0-.01-.03-.02-.05-.02l-.19.02c-.14-.17-.29-.32-.44-.47-.07-.86.31-1.7.91-2.26.26-.23.55-.41.87-.53Z"/>
  <path class="st32" d="M12.33,4.75c.07.13.18.23.29.33.29.28.63.5,1.01.64.04.28.09.54.17.81.04.14.09.27.17.38.03.03.06.06.09.07.09.01.17-.12.22-.24,0-.01.02-.01.02,0-.05.16-.15.44-.29.44-.04,0-.08-.03-.11-.06-.07-.09-.11-.18-.14-.29-.1-.29-.15-.59-.2-.9-.41-.15-.77-.4-1.08-.71-.1-.1-.33-.34-.28-.44.03-.05.09-.04.13-.04Z"/>
  <path class="st32" d="M14.3,6.71s-.01-.02,0-.01h0Z"/>
  <path class="st19" d="M14.45,6.31s0,0-.01-.01c0,0,.01,0,.01.01Z"/>
  <path class="st9" d="M7.78,10.05s.04.04.07.05l.15.06.06.17c.03.1-.05.1-.13.1l-.5-.04.35-.34Z"/>
  <path class="st11" d="M8.09,10.43s-.04.02-.07,0c-.04.01-.06,0-.09,0,.06,0,.12-.03.13-.1l.03.09Z"/>
  <path class="st19" d="M7.81,9.49s0-.03-.01-.04c.01,0,.02.03.01.04Z"/>
  <path class="st19" d="M7.3,10.94s-.02,0-.03-.01c.01,0,.02,0,.03.01Z"/>
  <path class="st32" d="M11.86,6.3s-.02.04-.04.06c-.21.31-.22.82-.2,1.21.05,1,.34,2.2.61,3.17l.38,1.23s.01.02.02.04l-.45.36-.19-.49c.07-.1.16-.28.11-.3l-.27-.06-.42-.83.09-.21s0-.07-.04-.08l-.2-.03s-.03-.06-.02-.09h-.02c-.03-.08-.05-.16-.07-.25-.05-.01-.09-.04-.1-.07-.03-.01-.06-.05-.07-.09.05-.08.08-.16.11-.25-.01-.02-.01-.03,0-.04v-.03s-.04,0-.04,0l-.1-.57s.02-.03.02-.05l-.03-.24-.16-.11s-.03-.03-.03-.05c0-.02,0-.04.02-.06l.14-.13c-.02-.27-.03-.53-.01-.8l-.13-.13s-.03-.04-.03-.07c0-.02.02-.04.04-.05l.17-.11c.03-.17.08-.32.15-.47.16-.31.45-.47.77-.44Z"/>
  <path class="st32" d="M13.53,11.36l-.06.04c-.07,0-.13,0-.17-.07-.04-.06-.02-.15.03-.18.06-.04.12-.04.17,0,.05.05.06.12.02.19,0,0,0,.01,0,.01Z"/>
  <path class="st23" d="M10.98,8.95l.11.63v.03s.01.04.01.04c0-.01-.02-.04-.04-.05l-.26-.04-.49-.74c.22.08.43.14.66.17.01,0,.02-.04.02-.05Z"/>
  <path class="st32" d="M9.31,10.51c.07-.03.15.01.17.08s0,.16-.08.18c-.06.02-.14,0-.17-.07s0-.16.07-.19Z"/>
  <path class="st32" d="M9.62,8.74c.08-.02.15.03.16.1.02.08-.02.16-.09.18-.07.02-.14-.02-.16-.09s0-.16.09-.19Z"/>
  <path class="st32" d="M10.89,11.95c.08-.02.15.03.16.1.02.08-.02.15-.09.18s-.14-.02-.16-.09,0-.16.09-.19Z"/>
  <path class="st32" d="M10.3,9.91c.07-.03.15.02.17.09s-.01.15-.08.18-.14,0-.17-.07c-.03-.07,0-.16.08-.2Z"/>
  <path class="st32" d="M9.95,11.31c.07-.03.15,0,.18.07.03.07,0,.16-.07.19s-.14,0-.17-.06-.01-.16.06-.2Z"/>
  <path class="st32" d="M11.67,12.26c.08-.03.15.01.18.08s0,.15-.07.18-.14,0-.17-.08c-.02-.06,0-.15.07-.18Z"/>
  <path class="st32" d="M10.97,11.1c.08-.02.15.04.16.11.02.08-.03.15-.1.17-.07.02-.14-.03-.16-.1-.02-.08.02-.16.1-.18Z"/>
  <path class="st32" d="M11.03,13.11c.07-.03.15,0,.18.07s0,.16-.07.19c-.06.03-.14,0-.17-.06s-.02-.16.06-.2Z"/>
  <path class="st32" d="M9.41,9.68c.07-.03.15.02.17.09s-.01.15-.09.18c-.06.02-.14-.01-.16-.08s0-.16.08-.19Z"/>
  <path class="st32" d="M8.86,8.36c.08-.03.15.03.17.09.02.07-.02.15-.09.18s-.14-.02-.16-.08c-.03-.07,0-.16.08-.19Z"/>
  <path class="st12" d="M11.24,10.3s0,.05-.02.03l-.18-.33s0-.02.01-.01l.12.04.06.27Z"/>
  <path class="st18" d="M11.27,10.39s-.03-.04-.04-.06c.01,0,.02-.02.02-.03l.02.09Z"/>
  <path class="st32" d="M12.39,8.57c.07-.03.15.01.17.08s0,.16-.08.18c-.06.02-.14,0-.17-.07s0-.16.07-.19Z"/>
  <path class="st32" d="M12.13,9.36c.08-.03.15.01.17.09.02.07-.01.15-.08.18-.06.03-.14,0-.17-.07-.03-.07,0-.16.07-.19Z"/>
  <path class="st32" d="M12.11,7.16c.07-.03.15,0,.18.08s0,.15-.08.19c-.05.02-.13,0-.16-.08-.03-.06,0-.16.07-.19Z"/>
  <path class="st32" d="M12.63,10.28c.08-.01.14.05.15.12.01.08-.04.15-.12.16s-.14-.04-.15-.12.03-.16.12-.17Z"/>
  <path class="st32" d="M12.79,7.7c.08-.02.14.04.16.11.02.08-.03.16-.1.17-.07.02-.14-.03-.16-.1-.02-.07.02-.15.1-.17Z"/>
  <path class="st32" d="M13.62,10.32c.08-.03.15.02.17.09s-.02.15-.09.18c-.06.02-.14-.02-.16-.08-.03-.07,0-.16.08-.19Z"/>
  <path class="st32" d="M13.22,9c.08-.03.15.03.17.09.02.08-.02.15-.09.18s-.14-.02-.16-.08c-.03-.07,0-.16.08-.19Z"/>
  <path class="st19" d="M11.09,9.61s0-.02,0-.03c.01,0,0,.02,0,.03Z"/>
</svg>