<?xml version="1.0" encoding="UTF-8"?>
<svg id="_レイヤー_1" data-name="レイヤー_1" xmlns="http://www.w3.org/2000/svg" version="1.1" viewBox="-9.24 -10.44 110.34 110.34">
  <!-- Generator: Adobe Illustrator 30.3.0, SVG Export Plug-In . SVG Version: 2.1.3 Build 182)  -->
  <defs>
    <style>
      .st0 {
        fill: #f0c292;
      }

      .st1 {
        fill: #ebf2ce;
      }

      .st2 {
        fill: #dac38d;
      }

      .st3 {
        fill: #fafcf2;
      }

      .st4 {
        fill: #9c7875;
      }

      .st5 {
        fill: #498144;
      }

      .st6 {
        fill: #e5eebf;
      }

      .st7 {
        fill: #6f96ac;
      }

      .st8 {
        fill: #d8d4cd;
      }

      .st9 {
        fill: #d2e287;
      }

      .st10 {
        fill: #f79551;
      }

      .st11 {
        fill: #ccc9c0;
      }

      .st12 {
        fill: #c0beb3;
      }

      .st13 {
        fill: #6b605c;
      }

      .st14 {
        fill: #fff;
      }

      .st15 {
        fill: #3fae49;
      }

      .st16 {
        fill: #ecdec1;
      }

      .st17 {
        fill: #f1e7da;
      }

      .st18 {
        fill: #9ab1bd;
      }

      .st19 {
        fill: #d23146;
      }

      .st20 {
        fill: #e6efc0;
      }

      .st21 {
        fill: #72bf44;
      }

      .st22 {
        fill: #563c3b;
      }

      .st23 {
        fill: #996a65;
      }

      .st24 {
        fill: #e5efbf;
      }

      .st25 {
        fill: #fff1d1;
      }

      .st26 {
        fill: #dfcb9d;
      }

      .st27 {
        fill: #eea456;
      }

      .st28 {
        fill: #dd746c;
      }

      .st29 {
        fill: #8e7764;
      }

      .st30 {
        fill: #f47944;
      }

      .st31 {
        fill: #6a504c;
      }

      .st32 {
        fill: #fdfdfd;
      }
    </style>
  </defs>
  <polygon class="st32" points=".03 26.39 0 26.39 0 -3.25 24.11 -3.25 24.11 26.39 .03 26.39"/>
  <path class="st15" d="M18.07,1.62l.02.03c-.04.15-.06.33.02.46v.04s.03,0,.03,0c.23.27.55.32.85.31.01,0,.02,0,.03.01.02.04-.14.32-.17.38-.07.12-.15.24-.24.34.21.06.44.06.66.04.04,0,.04,0,.04.05,0,.07-.1.26-.13.33-.08.16-.18.3-.31.4.23.15.49.21.75.26-.04.18-.13.37-.21.54-.07.14-.15.28-.25.4.16.08.33.09.5.09.03,0,.03.02.02.05-.02.09-.2.35-.26.43-.13.19-.29.36-.47.47.15.16.33.28.52.35.08.03.06.08-.06.15-.16.11-.46.27-.64.3h-.06s-.06-.02-.06-.02c-.34-.21-.72-.3-1.1-.32l-.78-.03c-.29-.03-.58-.12-.84-.28,0,0-.02-.02-.03-.03s-.01-.02-.02-.04c.04-.02.08-.03.12-.04.71-.09,1.42-.18,2.07-.46.05-.06.02-.17-.06-.16-.76.3-1.62.44-2.41.44l-.07-.02s-.01.02-.02.02c-.1-.06-.22-.16-.32-.24-.03-.01-.05-.04-.04-.07v-.03c.22-.38.46-.75.7-1.11.85-.07,1.73-.38,2.49-.8.06-.06.04-.16-.05-.16-.69.36-1.48.65-2.24.76-.04,0-.04-.02-.05-.06l1.32-2.11c.03-.1-.05-.16-.12-.09l-1.34,2.13s-.04.02-.06-.02c-.04-.07-.07-.28-.09-.37-.11-.69-.18-1.44-.12-2.14-.02-.07-.08-.1-.12-.04-.02.03-.05.32-.05.37.02.81.04,1.64.28,2.41-.23.38-.46.76-.7,1.13h-.03s-.01.02-.02.02c-.11-.07-.26-.17-.37-.26-.03-.01-.04-.03-.03-.06l-.06-.08c-.27-.77-.49-1.63-.5-2.45-.02-.1-.13-.1-.15,0,0,.75.21,1.5.4,2.22.01.04.02.09.02.14h-.06c-.61-.37-1.26-.64-1.92-.83l-.05-.03c-.05-.01-.35-.3-.35-.33,0-.04-.01-.06.03-.07.19,0,.38-.03.56-.09-.12-.1-.23-.22-.32-.36-.05-.07-.29-.43-.27-.47.05-.02.11-.02.17,0,.18-.02.36-.05.53-.1-.04-.16-.09-.37-.08-.55l.02-.02s-.01-.02-.02-.03c-.02-.06.01-.43.04-.48,0,0,.01-.02.02-.03,0-.02,0-.03.02-.05,0,.05.04.05.05.07.08.04.15.09.22.16.1.06.2.12.29.19-.02-.03-.01-.08,0-.13.01-.07.03-.2.09-.22.11-.26.25-.5.43-.73l.36.55.09-.19c.14-.24.3-.47.48-.7.13.27.32.49.54.66.05-.3.26-.57.47-.76.04.14.08.27.15.39l.18.33c.09-.27.27-.52.45-.73.11.28.26.51.46.68.24.21.49.09.7-.14l.6-.66c.09-.1.23-.24.29-.19.06.04,0,.22-.05.34l-.2.51-.13.36Z"/>
  <path class="st31" d="M23.84,16.92s0,.01,0,.02v.06c-.2,1.28-.61,2.55-1.29,3.57-.5.76-1.13,1.35-1.86,1.73l-.1.06s-.03.03-.04.04-.03.02-.05.03c-.66.31-1.31.42-1.99.46-.53.04-1.19-.04-1.72-.19-.29-.08-.59-.18-.85-.33,0-.02-.02-.04-.04-.05-1.24-.62-2.14-1.81-2.69-3.3-.24-.64-.4-1.31-.5-2-.01-.05,0-.08.01-.1l.05.07c.31,1.02,1.03,1.76,1.8,2.26,1.82,1.14,4.12,1.33,6.07.65,1.24-.43,2.58-1.31,3.11-2.82l.05-.07v-.03s0,0,.01-.01v-.03s0-.01.01-.02c0-.03.02-.03.02,0Z"/>
  <path class="st7" d="M11.25,16.93s0,0,0,.01v.05c-.32,1.3-.84,2.55-1.6,3.54-.47.6-1.02,1.08-1.64,1.41-.01.01-.02.03-.04.04s-.03.02-.04.03c-1.3.66-3,.66-4.29,0-.01,0-.03-.02-.04-.03s-.03-.03-.04-.04l-.25-.15c-1.04-.63-1.83-1.71-2.38-2.97-.25-.57-.44-1.17-.59-1.78v-.03s0-.03,0-.03c-.02-.06,0-.04.03,0,.01,0,.01,0,0,.01v.02s.07.06.07.06c.4.82,1.07,1.4,1.77,1.8,1.27.72,2.89,1,4.26.86,1.3-.13,2.65-.5,3.72-1.43.42-.36.79-.81,1.02-1.37.04-.05.05-.05.04,0Z"/>
  <path class="st16" d="M12.59,1.86c-.03.18-.05.36-.05.54,0,.04-.02.04-.05.04-3.15,0-6.35-.23-9.67-.5-.13,0-.23.12-.25.28-.04,2.29-.09,4.7-.26,7.1-.06.84-.15,1.65-.27,2.44,0,.21.09.35.27.37.9-.06,1.81-.11,2.72-.15l.02.03s-.07.04-.11.04c-.71.11-1.4.22-2.07.52-.11.06-.22.1-.34.12l-.15.04-.72.04c-.11-.01-.18-.05-.24-.14l-.02-.06c-.04-.12-.06-.22-.04-.35.07-.41.12-.81.16-1.23.08-.83.14-1.66.18-2.49l.05-.98.03-.59.03-.69v-.36s.07-1.96.07-1.96l.02-1.09.02-1.17c0-.26.19-.36.38-.34,2.06.18,4.11.33,6.17.44l.78.04.74.03.77.02,1.79.02s.03-.01.04-.02Z"/>
  <path class="st16" d="M22.77,12.63c-.05.1-.12.14-.24.15l-.75-.05-.12-.04s0,.01-.01,0l-.05-.03h-.06c-.32-.17-.64-.3-.97-.42-.13-.03-.26-.08-.38-.15l-.05-.02s0,.01-.01,0c-.06-.02-.07-.04-.04-.07l1.83.1c.15-.03.23-.18.22-.36l-.15-1.12-.18-2.22c-.1-2.07-.17-4.13-.2-6.17-.02-.22-.12-.31-.29-.32-1.07.09-2.14.17-3.21.24l-.02-.02c-.1-.13-.08-.38-.03-.54.02,0,.05.01.08.01l.46-.03.54-.04,1.19-.09,1.63-.13c.17-.01.3.17.31.37l.02,1.4v.71s.04,1.08.04,1.08l.02.84.02.66.03.65.03.57.16,2.65.22,1.92c.01.09.03.18,0,.26l-.06.18Z"/>
  <path class="st28" d="M20.13,12.09s0,0,.01,0l.05.02c.49.13.96.32,1.42.57l.05.03h.01s.12.04.12.04c.21.11.47.31.66.47.01,0,.02.02.03.04s.02.03.02.05c.26.23.51.48.73.78.47.64.75,1.4.68,2.28l-.05.48s-.01-.02-.01-.04c0,0,0,.14-.03.14,0,0,0,.01,0,.02v.03s-.01.01-.01.01v.03c-.32,1.02-1.06,1.78-1.84,2.28-1.09.7-2.37,1.01-3.59,1.03h-.57c-.8-.06-1.58-.23-2.33-.55s-1.59-.87-2.15-1.63c-.27-.36-.48-.76-.6-1.22h-.01s-.01-.08-.03-.11l-.07-.61c-.02-.5.08-.98.27-1.42.32-.74.85-1.29,1.42-1.72.01-.02.02-.03.03-.05s.02-.03.04-.04c.29-.21.6-.38.91-.52l.14-.03.05-.04c.44-.19.92-.36,1.38-.43.06,0,.12-.02.18,0,.03,0,.05-.02.05-.04.98-.13,1.99-.14,2.98.14l.05.04Z"/>
  <path class="st8" d="M5.9,11.97c.79-.02,1.66.11,2.45.4.02,0,.04.02.06.03s.04.03.05.04c.21.04.42.12.62.23.21.1.41.22.6.34l.02.03s0,.02.02.03c.31.21.61.44.87.74l.17.2c.21.26.38.55.51.89.23.6.24,1.27.03,1.88l-.04.15v-.03c-.17.42-.41.77-.7,1.08-.73.78-1.7,1.25-2.64,1.52-.62.18-1.25.26-1.88.28h-.49c-.77-.03-1.54-.15-2.29-.41-.48-.17-.95-.39-1.39-.68-.6-.4-1.17-.95-1.49-1.68v-.02s-.01,0-.01-.01l-.02-.02s-.02-.06-.03-.07l-.02-.09c-.21-.59-.21-1.24,0-1.83.25-.73.75-1.27,1.29-1.69l.05-.05.04-.05c.27-.2.55-.4.86-.49.8-.39,1.67-.61,2.52-.69,0-.01,0-.03.01-.03.25-.04.58-.05.82-.04l.02.03Z"/>
  <path class="st2" d="M15.42,12.42c-.39.17-.77.38-1.12.64-.01-.01-.02-.02-.04-.02h-1.75s-2.21-.01-2.21-.01h-.6s-.05,0-.08-.02c-.37-.23-.76-.42-1.15-.57v-.03c2.32-.05,4.63-.06,6.95-.02l.02.03Z"/>
  <path class="st22" d="M20.59,22.36s0,.02,0,.02v.05c-.3,1.02-1.45,1.36-2.25,1.33h-.46c-.56-.06-1.17-.24-1.58-.71-.17-.19-.3-.41-.36-.67.02-.02.03,0,.05,0,.59.28,1.2.43,1.83.47h.19s.5.01.5.01h.2c.65-.05,1.28-.22,1.88-.51Z"/>
  <path class="st11" d="M8.01,21.95c-.03.21-.12.38-.23.54-.39.54-1,.74-1.58.8-.8.08-1.88-.03-2.42-.82-.11-.16-.19-.33-.22-.53.49.26,1,.42,1.53.49.98.13,2.02,0,2.92-.49Z"/>
  <path class="st2" d="M22.77,12.63l-.11.39c-.03.11-.08.2-.16.25-.26-.23-.55-.41-.83-.59l.77.06c.12,0,.23,0,.31-.12,0,0,.01-.01.02,0Z"/>
  <path class="st2" d="M2.52,12.7c-.31.15-.61.34-.9.54-.05-.07-.08-.14-.11-.22l-.1-.37s.01-.02.02,0c.08.09.17.12.27.11l.82-.05Z"/>
  <path class="st16" d="M13.26,1.88c-.05.11-.07.23-.08.37-.16-.07-.32-.17-.46-.29l-.06-.07h.6Z"/>
  <path class="st4" d="M12.72,16.92s-.02.07-.01.1l-.03-.22s.03.07.04.11Z"/>
  <path class="st23" d="M23.85,16.82l-.02.1h-.02s.03-.14.03-.14c.01.01,0,.03.01.04Z"/>
  <path class="st18" d="M.36,16.98l-.02-.02s-.01.01,0,.02c-.02-.02-.02-.06-.03-.09,0-.02.01-.02.02,0l.04.1Z"/>
  <path class="st23" d="M23.83,17s0-.05,0-.06c0,.02,0,.04,0,.06Z"/>
  <path class="st8" d="M11.24,16.99s0-.04.01-.05c0,.02,0,.04-.01.05Z"/>
  <path class="st31" d="M20.58,22.43s0-.04.01-.05c0,.02,0,.03-.01.05Z"/>
  <path class="st18" d="M.35,17.04s-.01-.02-.01-.03c.01,0,.01.02.01.03Z"/>
  <path class="st26" d="M12.54,2.4v.17c.02.15.05.29.11.43l-.44.09c-.1.02-.19.01-.29,0,.11.2.22.38.35.55.08.11.17.2.28.28-.22.08-.43.11-.65.11l.35.37h-.06c-1.54-.29-3.16-.34-4.69-.08-.9.16-1.94.45-2.68,1.13-.47.43-.65.91-.88,1.56-.14.41-.24.77-.34,1.2,0,.03-.02.05-.03.07v.06s0,0,0,.01c0,.12-.01.24-.03.35l.03.05c0,1,.8,1.54,1.51,1.72,1.21.31,2.48.56,3.72.64.64.04,1.25-.08,1.84-.36l.93-.43c1.29-.52,2.71-.53,4.06-.42.65.1,1.29.16,1.95.17.05-.01.09,0,.11.02.02.02.03.06.02.12v.08c-.03.07-.06.14-.06.22.02.12.07.23.15.34.03.11.07.21.13.3l.24.14c.1.09.21.18.34.13.1.04.21.06.31.07l.07.03c.2.19.44.18.64,0,.08-.03.16,0,.24.08.05.03.1.05.16.05.31.02.66-.14.95-.28.13-.06.22-.16.28-.32.04-.06.1-.1.17-.11.3-.17.29-.5.09-.77,0-.32-.14-.65-.38-.79-.06-.08-.09-.17-.11-.29-.03-.08-.08-.14-.14-.19-.09-.15-.2-.26-.33-.35-.07-.28-.28-.4-.5-.47-.07-.12-.16-.17-.26-.15l-.32.06-.02-.03-.02-.02c-.11-.35-.34-.65-.61-.84l-.03-.06c.27-.07.54-.22.8-.39-.24-.08-.43-.22-.61-.4.33-.17.58-.56.77-.93-.2.01-.38,0-.56-.11.22-.24.37-.6.5-.93-.27,0-.55-.12-.79-.26.25-.15.38-.46.49-.76-.25.03-.51.01-.76-.04.21-.19.34-.47.47-.73-.31.03-.63-.04-.86-.29-.03,0-.03-.05-.04-.06l.25-.02,1.82-.13,1.12-.09c.18-.02.35.11.35.35v.88s.02.54.02.54l.03,1.07.15,3.67.18,2.22.15,1.12c.03.2-.11.4-.27.39l-.64-.04-1.18-.07s.04.01.05.04c-.47-.13-.95-.2-1.43-.23h-.85s-.8.09-.8.09c-.02-.03.05-.03.05-.03,0,.01-.19.02-.21.02-3.46-.1-6.98-.1-10.44.03-.18,0-.37,0-.55,0h-.42s-.24.02-.24.02l-.2.02h-.2s-.15,0-.15,0l-1.53.08-.82.06c-.09,0-.18-.03-.24-.11s-.09-.19-.08-.31l.13-.94c.08-.69.13-1.37.17-2.06.09-1.39.14-2.77.17-4.16v-.45s.02-.69.02-.69v-.6s.02-.62.02-.62c0-.16.14-.33.29-.32,2.06.17,4.11.32,6.17.41l.41.02.44.02h.38s.61.03.61.03h.7s.94.02.94.02c.02,0,.04,0,.05-.01Z"/>
  <path class="st13" d="M12.25,4.39c.7.18,1.39.45,2.03.86l.02-.02c.07.03.21.13.26.2l.42.3s.02-.02.02-.02c.02.01.07.05.1.07.03.01.05.04.04.07l.38.28c.07.02.14.06.21.12.06.03.1.06.13.11.3.2.64.31.98.32l.5.02c.26,0,.52.03.78.1.2.06.39.14.57.26.28.19.51.46.64.82.01.03.03.06.02.09,0,.01,0,.03,0,.03-.03.02-.13.07-.15.03h-.05c-.27-.28-.65-.31-1-.3-.49.03-.97.06-1.45.07-.51,0-.96-.21-1.42-.49-1.37-.67-2.83-1.24-4.28-1.51-.79-.15-1.46-.14-2.25-.04-1.21.16-2.49.47-3.61,1.04-.58.3-1.28.75-1.52,1.5l-.04.04v.05s0,.01-.02.02c-.02,0-.02-.02-.01-.07,0,0,0,0,0-.01v-.06c.1-.62.37-1.33.6-1.91.11-.28.25-.51.43-.72,1.05-1.2,3.19-1.47,4.59-1.52.67-.02,1.33,0,1.99.08.37.04.72.1,1.08.19Z"/>
  <path class="st21" d="M15.15,5.84l-.16-.12.7-1.13c-.08-.24-.13-.48-.17-.74-.08-.58-.12-1.15-.12-1.74l.03-.29c.02-.06.08-.09.12-.07.05.02.07.09.06.16-.02.12-.02.23-.02.36,0,.53.04,1.04.12,1.55.03.19.06.37.12.55l1.35-2.14c.03-.05.1-.05.14-.01.03.03.06.1.02.15l-1.33,2.11c.21-.02.4-.07.6-.12.44-.12.86-.27,1.28-.45l.35-.18c.06-.03.11-.03.15.04.02.05.02.13-.03.16l-.29.16c-.53.24-1.06.42-1.61.56-.2.05-.39.08-.59.08l-.71,1.12Z"/>
  <path class="st21" d="M15.86,6.36c-.12-.05-.23-.14-.34-.23,0,0,0-.01.01-.01l.55-.02c.54-.05,1.07-.15,1.6-.31l.31-.12c.05-.02.1.02.12.07s0,.13-.05.15l-.38.14c-.6.18-1.2.28-1.81.32Z"/>
  <path class="st21" d="M14.56,5.43l-.29-.18c-.21-.65-.36-1.32-.43-2.02v-.32c-.02-.07.04-.12.09-.11.05,0,.09.05.09.12v.24c.08.77.27,1.59.54,2.28Z"/>
  <path class="st23" d="M23.79,17.01s0-.03.01-.03c0,.01,0,.03-.01.03Z"/>
  <path class="st23" d="M23.8,16.97s0-.03.01-.03c0,.01,0,.03-.01.03Z"/>
  <path class="st18" d="M.37,17.01s0-.01-.01-.02c0,0,0,.01.01.02Z"/>
  <path class="st26" d="M20.19,12.1s-.04,0-.05-.02c.02,0,.04,0,.05.02Z"/>
  <path class="st2" d="M21.66,12.69s-.04-.01-.05-.03c.02,0,.04,0,.05.03Z"/>
  <path class="st19" d="M23.13,17.46l-.03-.06c-.08-1.19-.9-2.15-1.73-2.67-1.91-1.2-4.54-1.2-6.41.14-.81.58-1.53,1.55-1.54,2.75l-.02.08s0,.03,0,.06c-.5-.75-.67-1.69-.36-2.6.27-.78.8-1.36,1.38-1.8,1.04-.77,2.32-1.12,3.52-1.18h.69c1.19.06,2.45.4,3.48,1.15.36.26.68.57.96.95.76,1.04.82,2.33.11,3.44,0,.03-.03.01-.02,0v-.23s0-.03-.01-.03Z"/>
  <path class="st27" d="M23.13,17.46v.33c-.12.18-.24.33-.38.48-1.03,1.1-2.57,1.62-3.91,1.72.01-.05.04-.1.09-.13.23-.14.47-.27.71-.38.14-.08.29-.19.38-.35h.03s.04-.02.04-.02c.25.21.92.19.85-.33s-.79-.75-1.04-.31h-.04s-.02.04-.02.04c-.2-.08-.6-.27-.75-.42-.02-.02-.04-.04-.04-.08.02-.03.05-.05.1-.06l.16-.09s.07-.06.11-.07h.03c.05.11.12.19.2.24h.05c.33-.1.66-.22,1-.35l.18-.1h.06s.02.02.02.02c-.03.08-.06.15-.07.23.04.04.08.07.13.09v.04s.08-.02.08.02c0-.05.14.01.15.02,0,.02,0,.03.03.04,0-.04.01-.04.02,0h.01s0,0,.01.02c0-.01.01-.02.02-.02,0,0,.15.05.14.09.02-.04.04-.03.04.02.02,0,.03,0,.04-.02,0,0,.15.05.14.09,0-.04.05-.03.05.02.04-.01.08-.01.12,0,.03,0,.05,0,.07,0,.06-.19.12-.38.18-.58-.03-.05-.07-.08-.14-.11v-.04s-.04.03-.04-.02c-.02,0-.04,0-.05,0-.01,0-.14-.05-.13-.09,0,.02,0,.02-.01,0h-.01s-.02.02-.02-.02c-.05.02-.16,0-.18-.06-.01.04-.06.03-.06-.01-.02,0-.02,0,0-.02v-.03c.32-.04.62-.09.92-.2.03-.02.03-.07.02-.11l-.35-1.24c-.04-.1-.06-.15-.16-.15l-.76.12c-.12.03-.25.07-.36.13h-.06s-.02,0-.03-.01c-.02-.24-.03-.5-.03-.74-.01-.1,0-.18.01-.27-.04,0-.04-.03,0-.05v-.04s-.05-.01-.07-.04c-.39-.15-.79-.29-1.19-.42-.04-.01-.09-.01-.12.03l-.52.89h-.03s0,.09,0,.14c.01,0,0,.01,0,.01l.04.08c.04.27.08.53.14.79.08.11.18.19.32.22v.04s0,.03,0,.03c-.09.04-.18.1-.25.16,0,.09.03.19.07.28l-.02.03-.04.02c-.45-.08-.93.37-.55.89v.05s-.04.06-.06.08c-.17.13-.38.26-.57.35l-.03-.02s-.02-.01-.02-.02c0-.12.05-.37.08-.47.02-.04.04-.08.05-.13-.04,0-.04-.07,0-.08v-.03s-.02,0-.01-.01v-.02s-.04,0-.04,0l-.49-.85c-.04-.06-.07-.09-.13-.08l-.52.18-.02-.02h-.03s-.29-.43-.29-.43c-.02-.03-.03-.05-.01-.07l.02-.03.88.21c.06-.03.1-.09.14-.16h.03s.03,0,.03,0c.22.25.79.25.95-.08s-.17-.65-.42-.67l-.03-.03h-.1c-.02-.27-.04-.54-.05-.81.02-.06.02-.12.01-.18-.02.01-.04,0-.06-.04l-.03-.02-1.2-.23c-.05,0-.08.01-.12.06-.18.29-.36.59-.52.89,0,.04-.01.07-.03.09l.04.09.07.41-.02.02s-.08-.03-.12-.07c-.19-.13-.53-.36-.74-.38-.06,0-.12.05-.16.09-.28.26-.55.54-.8.85-.06.14.01.23.11.29.12.06.24.13.35.21.16.17.31.36.44.57l.14.36c.05.09.13.14.22.13l.48-.21.02.02.02.02c0,.1,0,.19-.02.28h-.05s-.04.03-.04.03c-.31-.04-.75.16-.7.62.07.58.7.47,1.01.24h.04s.03,0,.03,0l.25.33s.05.04.08.03l.24-.11.03.02s.03,0,.03,0c.1.22.2.47.28.7v.07c-1.31-.21-2.82-.85-3.69-2.12,0-.03-.01-.08-.01-.1,0-.45.08-.89.25-1.28.31-.72.84-1.26,1.42-1.65,1.81-1.23,4.49-1.24,6.31-.05.64.42,1.25,1.03,1.55,1.84.11.29.19.6.19.92Z"/>
  <path class="st16" d="M17.04,11.95c-.55.09-1.09.24-1.61.47h-.36s-.68,0-.68,0h-1.14s-2.32-.01-2.32-.01h-1.14s-.59.02-.59.02l-.74.02c-.69-.26-1.41-.4-2.13-.45h-.3s-.14-.02-.14-.02c0-.01.02-.01.04-.01h.32s.44-.02.44-.02l.98-.03h.47s.75-.03.75-.03h.7s1.54-.03,1.54-.03h1.92s1.54.02,1.54.02h.7s.76.03.76.03h.46s.58.03.58.03c-.02,0-.05,0-.05.03Z"/>
  <path class="st5" d="M18.47,17.91h.04c.16.08.33.1.51.07l.04.02c.15.16.33.25.52.34l.29.14h.02c-.06.25-.05.47.15.6v.04c-.05.16-.25.32-.4.39l-.49.24c-.12.06-.22.13-.32.23-.59.04-1.16.02-1.74-.07-.07-.14-.12-.29-.18-.44l-.13-.33s-.09-.12-.09-.15c-.03-.12.03-.19.12-.24.35-.09.67-.24.98-.45l.02.02.19-.11c.14-.08.27-.15.39-.25.03-.02.05-.05.08-.06Z"/>
  <path class="st14" d="M10.61,17.44l-.04.1c-.83,1.03-2.14,1.57-3.29,1.79-1.39.27-2.91.17-4.25-.36-.69-.27-1.41-.7-1.94-1.31l-.03-.09s-.02,0-.03-.02c-.06-.15.05-.49.17-.57-.21-.33-.03-.87.32-.9-.1-.35.11-.71.41-.7-.08-.37.15-.7.46-.68-.06-.4.25-.71.56-.62.05-.37.45-.58.68-.32.02-.4.41-.55.66-.34.13-.34.53-.42.73-.12.18-.31.55-.31.72,0,.19-.24.46-.27.64,0,.18-.34.6-.33.77.02.24-.25.63-.08.7.29.29-.15.62.08.63.48.3-.1.57.22.54.59.28-.05.49.21.49.55h.01c.32-.03.56.35.47.72.31.05.48.46.33.8.15.05.26.2.3.38.02.08.03.23-.03.28Z"/>
  <path class="st12" d="M10.61,17.44c.07-.29-.06-.58-.31-.65.09-.17.1-.36.02-.53-.07-.15-.2-.26-.35-.27.07-.18.04-.38-.06-.52s-.24-.22-.41-.18c.01-.16-.03-.31-.12-.44s-.23-.16-.38-.13c.03-.18-.01-.36-.12-.48s-.27-.17-.42-.1c.01-.14-.02-.25-.08-.35-.13-.2-.36-.26-.54-.13-.03-.22-.16-.38-.33-.42-.13-.03-.26,0-.37.13-.02-.08-.05-.13-.11-.18-.2-.19-.52-.14-.64.16-.13-.19-.29-.28-.48-.17-.07.04-.13.09-.18.17-.07-.17-.21-.26-.36-.26s-.28.09-.36.26c-.08-.15-.23-.23-.37-.21-.16.02-.29.13-.35.32-.16-.19-.44-.14-.57.04-.06.08-.07.19-.09.3-.06-.06-.12-.13-.2-.14-.23-.04-.46.16-.48.45-.12-.06-.23-.04-.34.03-.17.11-.26.34-.21.58-.15-.03-.3.03-.39.17s-.12.32-.07.5c-.15-.02-.28.06-.37.2-.09.15-.1.33-.04.51-.17-.01-.3.09-.37.26s-.08.36,0,.52l.06.08c-.17.1-.24.37-.19.59,0,.01,0,.02,0,.04-.81-.95-.92-2.18-.16-3.24l.28-.35c.62-.67,1.45-1.1,2.24-1.36.75-.24,1.51-.35,2.28-.36h.16c1.31,0,2.81.36,3.95,1.2.51.38.99.9,1.23,1.58.3.86.08,1.71-.42,2.38-.01,0,0-.02-.01-.03Z"/>
  <path class="st10" d="M19.2,8.03s-.04.07-.08.1l-.07.09c-.15.04-.22.18-.29.35-.09.11-.19.2-.32.25l-.09.08h-.03s-.03-.06-.03-.06c-.01-.13-.18-.71-.25-.74-.05-.02-.1.04-.08.1.13.3.22.63.24.97l.02.03c-.08.13-.13.28-.17.43-.1.1-.25.25-.31.39,0,.04-.02.06-.04.06-.01,0-.03.01-.05.01-.45,0-.88-.02-1.33-.08-.69-.1-1.37-.16-2.06-.14-.52.02-1.03.06-1.55.15-.44.07-.85.19-1.26.39l-.77.36c-.51.24-1.12.41-1.68.39-.4-.01-.78-.05-1.18-.11-.89-.12-1.77-.29-2.65-.51-.26-.07-.49-.15-.73-.29-.39-.22-.74-.57-.86-1.09-.03-.15-.04-.3-.04-.45l.02-.28h.01s0-.02,0-.02v-.05c.07-.25.19-.45.34-.64.4-.49,1.01-.84,1.55-1.08,1.14-.51,2.52-.82,3.73-.94.4-.04.78-.05,1.18,0,.49.05.97.16,1.46.29.98.27,1.94.61,2.89,1.04.33.15.64.31.95.49.33.19.68.27,1.04.28l.87-.04c.53-.02,1.16-.15,1.57.26.02.02.03.03.06.03Z"/>
  <path class="st14" d="M17.69,10.08c0-.09.05-.14.1-.21.07-.09.14-.19.23-.26l.07-.24.1-.2c-.02-.05.06-.24.09-.27h.03c.19-.23.37-.14.47-.45.04-.13.14-.23.25-.26.04-.08.09-.13.16-.16l.15-.07.2-.04c.1-.02.2-.07.3,0l.11.12c.24.08.43.18.5.48.1.07.2.15.27.26.04.07.07.11.13.16.07.05.1.17.12.26.04.2.14.16.23.3.08.11.15.24.19.38.03.09.02.18.03.27,0,.06.21.25.13.53-.04.15-.15.28-.28.31-.06.02-.1.05-.13.12-.06.16-.18.25-.31.31-.23.11-.45.21-.69.25h-.12c-.34.07-.36-.24-.54-.09-.15.12-.37.15-.52.04-.07-.05-.13-.12-.22-.11-.08-.02-.17-.03-.25-.07-.15.05-.25-.05-.35-.14l-.24-.14c-.07-.08-.1-.18-.13-.29-.04-.13-.28-.3-.09-.6-.02-.07,0-.14,0-.19Z"/>
  <path class="st29" d="M3.57,8.41l-.02.21s0,.06-.01.08c0-.12,0-.24.03-.35,0,.02,0,.05.01.07Z"/>
  <path class="st29" d="M3.56,8.33s0-.05,0-.06c0,.02,0,.05,0,.06Z"/>
  <path class="st29" d="M3.57,8.39s0-.04.01-.05c0,.02,0,.04-.01.05Z"/>
  <path class="st5" d="M21.47,17.3s-.03.03-.05.03c-.03,0-.13-.02-.14-.06,0,.04-.01.04-.02,0-.04,0-.07,0-.11,0h-.05s-.12.3-.12.3h-.03c-.13.1-.27.17-.42.22l-.79.27c-.07.02-.14-.01-.18-.08l-.12-.19v-.04c.22-.34-.05-.68-.34-.76l-.03-.04c-.04-.15-.15-.31-.02-.38l.22-.13s0-.02.01-.03.01-.02.02-.02c.11-.07.23-.12.35-.15.38-.08.73-.22,1.06-.44l.03.02c.15-.09.32-.15.49-.17l.67-.11c.11-.02.16.07.19.17l.35,1.25c.02.07-.01.15-.07.16l-.48.12-.41.06Z"/>
  <path class="st5" d="M15.94,15.82s.02-.02.03-.01c.12.11.3.31.39.45v.04s.03.05.03.05l.31.45v.03c-.24.07-.47.16-.7.26l-.02.03s-.03.07-.05.08c.01.16.01.32,0,.48l-.03.02-.46.2c-.13.06-.25-.03-.3-.18l-.1-.26c-.04-.12-.11-.2-.19-.29l-.24-.29c-.19-.19-.46-.21-.52-.38-.02-.06-.03-.16.02-.21l.27-.34.5-.49c.07-.07.14-.13.23-.11.14.02.27.1.39.18.15.1.31.17.44.3Z"/>
  <path class="st25" d="M17.89,17.56v.02s.01.01.01.01v.03s.01.08.01.08c-.01.07-.03.12-.07.15l-1.23.56c-.08.02-.12,0-.18-.07l-.5-1.01s-.02-.1-.02-.15c0-.08.04-.15.12-.17l.66-.23.52-.18c.08-.03.13.02.18.09l.5.86Z"/>
  <path class="st25" d="M20.66,14.71v.04s.02.03.02.05l-.02.13-.48.97c-.05.07-.1.1-.18.08l-1.17-.53s-.06-.06-.08-.11h0c0-.06-.01-.11,0-.15l.53-.91c.03-.05.1-.05.15-.04l1.15.39s.07.05.09.09Z"/>
  <path class="st25" d="M17.82,14.53c0,.06,0,.12-.01.18l-.48.93c-.06.09-.1.13-.19.11l-1.22-.36s-.05-.06-.06-.11c-.01-.07,0-.13.05-.19l.48-.81c.03-.05.09-.09.14-.08l1.2.23s.07.06.08.09Z"/>
  <path class="st0" d="M17.96,15.52l-.03.03c-.36-.05-.71.27-.49.72v.04s-.07.1-.07.1c-.03.04-.07.1-.12.09l-.89-.21-.17-.22-.11-.12-.13-.13-.09-.53s.03.07.07.08l1.21.35c.08.02.14-.04.17-.12l.49-.96s0-.09.01-.13l.05.98s.06,0,.08.02Z"/>
  <path class="st0" d="M17.91,17.7l-.1.63-.39.23c-.19.12-.39.17-.6.23-.07.02-.15.12-.11.2l.07.16-.26.12s-.09,0-.12-.04l-.25-.33v-.04c.3-.34.05-.75-.29-.8l-.02-.03s.03-.01.03-.03c0-.01,0-.03,0-.04v-.24s.03-.4.03-.4v-.09s.02.09.05.13l.5,1.01c.03.06.1.08.15.06l1.22-.56c.05-.02.06-.08.08-.13Z"/>
  <path class="st0" d="M20.73,15.82l-.3.18c-.41.25-.78.2-1.17.45l-.19-.08c-.09-.04-.17-.12-.18-.23l-.13-.81s.05.07.1.09l1.16.53c.06,0,.12,0,.15-.07l.48-.96s.04-.08.04-.12l.04,1.03Z"/>
  <path class="st9" d="M15.85,18c.25.04.5.26.46.58-.01.12-.07.23-.15.31-.22.21-.6.27-.86.14-.19-.09-.32-.56-.1-.8.18-.2.42-.27.65-.23Z"/>
  <path class="st9" d="M19.06,16.95c.13.03.25.1.35.2.16.17.18.44.03.64-.1.12-.23.19-.37.21-.2.04-.41.02-.59-.1-.08-.09-.13-.19-.15-.31-.04-.23.05-.44.21-.54s.35-.15.53-.1Z"/>
  <path class="st9" d="M20.05,19.12c-.19-.12-.26-.28-.21-.55l.03-.1c.06-.14.16-.22.28-.25.24-.06.49.01.67.22.16.19.22.48.05.66-.21.23-.57.16-.82,0Z"/>
  <path class="st9" d="M17.96,15.52c.17.02.33.11.44.27.12.18.1.42-.05.56-.26.27-.8.17-.93-.04-.1-.18-.12-.45.01-.61s.33-.2.52-.18Z"/>
  <path class="st9" d="M21.76,18.22c.07-.23.14-.47.2-.71h.03s.13.07.13.07c.02.01.04.05.03.08l-.16.54c-.03.1-.12.05-.23.02Z"/>
  <path class="st9" d="M21.95,17.48s0,.03-.02.03l-.18.68h-.03s-.18-.07-.18-.07c0-.02,0-.03.02-.03l.18-.68h.03s.18.07.18.07Z"/>
  <path class="st9" d="M21.71,17.39c-.07.23-.13.47-.2.7l-.02.02-.16-.06-.02-.02.19-.69h.03s.18.05.18.05Z"/>
  <path class="st9" d="M21.26,17.27s0,.03-.03.03l-.17.65h-.03s-.13-.06-.13-.06c-.04-.02-.04-.07-.03-.12l.07-.19.13-.31s.12-.02.18,0Z"/>
  <path class="st9" d="M21.47,17.3v.02c-.06.24-.12.48-.19.72l-.17-.06-.02-.02c.06-.23.13-.46.19-.69l.09.02s.07.02.1.01Z"/>
  <path class="st9" d="M14.38,18.03l.34-.55c.05.04.09.1.13.17-.09.17-.18.32-.3.47-.07,0-.11-.06-.16-.09Z"/>
  <path class="st9" d="M14.68,17.45h.01c-.1.19-.2.37-.31.55l-.02.02-.14-.12c.1-.18.21-.36.31-.54h.03s.12.1.12.1Z"/>
  <path class="st9" d="M14.52,17.32v.03s-.31.51-.31.51h-.03s-.11-.09-.11-.09c0,0-.02-.02-.02-.03.09-.17.2-.35.3-.51h.02s.14.09.14.09Z"/>
  <path class="st9" d="M14.35,17.19c-.1.16-.21.33-.31.51l-.03.03-.14-.11v-.03c.1-.17.21-.34.31-.51l.16.11Z"/>
  <path class="st9" d="M14.16,17.07v.03s-.3.49-.3.49h-.03s-.08-.08-.08-.08c-.02-.02-.03-.05-.03-.08,0-.02.02-.04.03-.06l.28-.36s.09.04.12.06Z"/>
  <path class="st6" d="M21.95,17.48l.04.02-.19.7s-.03.02-.04.02l-.05-.02.18-.68s0-.03.01-.04c.01,0,.03,0,.04,0Z"/>
  <path class="st20" d="M21.71,17.39s.01,0,.02,0h.01s.01.01.01.01l-.19.71s-.03.02-.04.02l-.04-.02s0-.04,0-.06l.17-.63s.02-.04.04-.03Z"/>
  <path class="st24" d="M21.47,17.32h.06s-.2.73-.2.73h-.01s-.01-.02-.01-.02h-.02s-.02-.02-.02-.02l.18-.66s.01-.04.03-.04Z"/>
  <path class="st6" d="M21.26,17.27h.02s.02.05,0,.08l-.17.63-.08-.02.18-.68s.04,0,.05,0Z"/>
  <path class="st6" d="M14.52,17.32l.04.03s-.01.05-.03.07l-.27.45s-.02.03-.04.03l-.04-.03s.02-.05.03-.07l.28-.46s.02-.02.03-.02Z"/>
  <path class="st24" d="M14.71,17.48s.01.02,0,.03l-.3.51s-.01.02-.02.02-.02,0-.02,0h-.02s0-.07.02-.09l.3-.49.04.03Z"/>
  <path class="st24" d="M14.35,17.19l.03.02s0,.04-.02.06l-.29.49h-.01s-.01-.02-.01-.02h-.02s0-.04,0-.07l.27-.45s.04-.04.06-.04Z"/>
  <path class="st6" d="M14.16,17.07h.03s.01.04,0,.04l-.28.47s-.02.03-.04.04l-.05-.03.28-.48s.02-.04.05-.04Z"/>
  <path class="st0" d="M18.76,15.31s-.02-.1,0-.14v.14Z"/>
  <path class="st0" d="M17.91,17.62s-.01-.02-.01-.03c.01,0,.01.02.01.03Z"/>
  <path class="st0" d="M20.68,14.75s-.01-.02-.01-.04c0,.01.02.02.01.04Z"/>
  <path class="st9" d="M14.05,17.76s-.01,0-.01-.02c0,0,.01,0,.01.02Z"/>
  <path class="st9" d="M21.32,18.05s-.01,0-.01-.01c0,0,.01,0,.01.01Z"/>
  <path class="st0" d="M17.9,17.58v-.02s0,.02,0,.02Z"/>
  <path class="st9" d="M21.75,17.41s-.01,0-.01-.01c0,0,.01,0,.01.01Z"/>
  <path class="st17" d="M4.9,14.45c-.07.09-.15.08-.22.02-.11-.08-.21-.19-.26-.34-.03-.08-.03-.16.01-.23.04-.06.11-.1.18-.08.24.07.44.44.29.62Z"/>
  <path class="st17" d="M8.98,18.1c-.14.24-.37.36-.49.2-.04-.05-.06-.15-.03-.22.1-.25.38-.46.5-.33.09.09.08.24.02.35Z"/>
  <path class="st17" d="M5.85,14.54c-.1.04-.18,0-.22-.11-.02-.06-.03-.11,0-.17.06-.17.18-.33.33-.37.08-.02.16.02.2.1.04.09.03.18-.02.27-.07.12-.16.23-.28.28Z"/>
  <path class="st17" d="M7.82,18.75c-.15.2-.46.27-.55.07-.03-.07-.04-.18.01-.24.16-.19.49-.28.57-.08.03.08.03.18-.03.25Z"/>
  <path class="st17" d="M4.99,18.85c-.09.09-.18.16-.3.18-.08.01-.14,0-.19-.08-.04-.07-.05-.17,0-.25.08-.15.22-.25.36-.27.1,0,.18.05.2.15.03.11,0,.2-.08.27Z"/>
  <path class="st17" d="M6.19,15.57c.04.09.04.18,0,.25-.05.08-.12.09-.2.08-.14-.02-.28-.08-.36-.23-.03-.06-.03-.15,0-.21.08-.15.22-.13.36-.08.08.03.16.09.2.18Z"/>
  <path class="st17" d="M2.47,16.31c-.15.12-.37.21-.47.07-.08-.11-.05-.28.08-.39.1-.08.22-.14.33-.11.08.02.14.09.16.17.02.11-.02.2-.1.26Z"/>
  <path class="st17" d="M8.39,16.95c-.04.07-.11.07-.16.06-.17-.05-.2-.43-.11-.65.04-.11.14-.18.23-.13.08.04.11.13.12.23.02.17.02.35-.07.5Z"/>
  <path class="st17" d="M5.73,17.22c-.18.15-.39-.13-.44-.38-.02-.1,0-.21.06-.27.09-.08.18-.05.24.03.09.11.17.23.19.39.01.08,0,.17-.05.22Z"/>
  <path class="st17" d="M6.57,17.46c.12.23-.13.54-.32.58-.08.02-.16-.02-.2-.1-.04-.09-.03-.18.02-.26.08-.13.17-.23.3-.28.07-.03.15-.01.19.07Z"/>
  <path class="st17" d="M4.66,15.85c-.18.06-.45,0-.51-.16-.05-.13.02-.28.13-.31.21-.07.48.03.49.27,0,.09-.05.16-.11.21Z"/>
  <path class="st17" d="M7.37,15.86c-.05.19-.19.33-.34.37-.08.02-.15-.02-.19-.08-.04-.08-.04-.17,0-.25.1-.18.3-.38.44-.31.07.04.12.16.09.27Z"/>
  <path class="st17" d="M9.88,17.64c-.09-.01-.15-.06-.21-.12-.15-.13-.2-.35-.12-.46.03-.04.08-.09.14-.08.24.06.47.36.38.54-.04.08-.1.13-.19.12Z"/>
  <path class="st17" d="M3.71,16.47c-.09.22-.33.45-.47.35-.1-.07-.11-.23-.06-.34.1-.2.29-.38.46-.27.07.05.11.17.07.26Z"/>
  <path class="st17" d="M4.38,16.89c.21.1.43.39.32.58-.04.07-.11.11-.19.09-.14-.04-.26-.17-.32-.33-.04-.09-.03-.21.03-.28.04-.05.11-.08.16-.06Z"/>
  <path class="st17" d="M3.54,14.91c-.15.17-.43.25-.53.11-.08-.11-.05-.27.04-.35.17-.16.43-.21.52,0,.03.07.02.18-.03.24Z"/>
  <path class="st17" d="M8.32,14.64c0,.19-.17.46-.33.49-.07.01-.14-.02-.18-.08-.04-.07-.05-.16-.01-.24.09-.23.29-.47.43-.36.05.04.08.11.08.19Z"/>
  <path class="st17" d="M7.59,17.61c-.16.11-.33-.1-.41-.31-.03-.08-.04-.17-.01-.25s.07-.13.13-.14c.06-.02.11.02.16.08.17.2.29.51.13.62Z"/>
  <path class="st17" d="M7.35,14.62c-.02.08-.08.12-.13.14-.07.02-.12-.02-.17-.08-.15-.21-.25-.52-.11-.64s.27.04.36.24c.05.1.07.23.04.35Z"/>
  <path class="st17" d="M9.21,16.11c-.15,0-.28-.08-.38-.21-.05-.07-.07-.15-.05-.25,0-.07.07-.15.14-.15.24,0,.53.26.44.47-.02.06-.07.12-.15.13Z"/>
  <path class="st17" d="M6.34,19.18c-.11.19-.35.08-.48-.13-.06-.1-.09-.24-.03-.34s.16-.11.24-.06c.11.07.2.15.26.27.04.08.05.17.01.25Z"/>
  <path class="st17" d="M2.2,17.96c-.1-.03-.17-.13-.23-.22s-.09-.2-.08-.32c0-.09.06-.16.11-.18.08-.03.14,0,.19.07.09.11.18.23.2.39.01.07,0,.15-.04.2-.04.04-.1.08-.16.06Z"/>
  <path class="st17" d="M3.58,18.64c-.04.06-.1.06-.16.04-.17-.06-.19-.48-.06-.69.05-.08.12-.12.19-.1.06.02.13.09.13.17v.22c.02.12-.02.25-.09.35Z"/>
  <path class="st30" d="M9.18,7.59c-.13-.43-.44-.96-.85-.95-.22,0-.4.15-.53.35-.14.23-.25.46-.36.71-.29.67-.54,1.34-.76,2.05l-.17.62c-.02.07-.05.11-.11.1-.05-.01-.08-.08-.06-.15.07-.29.15-.56.24-.84.2-.63.43-1.23.69-1.83.11-.27.23-.51.37-.75.27-.46.73-.61,1.12-.31.35.27.54.79.68,1.26.19.66.34,1.33.48,2.01.03.17.07.33.08.51,0,.06-.05.1-.09.1-.06,0-.08-.05-.09-.12l-.07-.42c-.13-.63-.27-1.24-.44-1.86l-.14-.47Z"/>
  <path class="st30" d="M8.72,9.61c-.02-.36-.12-1.35-.44-1.16-.19.11-.32.55-.37.81l-.2,1.04c-.01.07-.06.1-.1.09-.05,0-.08-.07-.07-.14l.13-.71c.04-.24.1-.48.17-.71.09-.29.25-.61.51-.63.11,0,.21.06.28.17.21.31.27,1.02.28,1.45v.38c.02.06,0,.11-.05.13-.04.02-.11,0-.11-.07l-.04-.66Z"/>
  <path class="st30" d="M5.17,9.85c0,.09-.03.14-.1.14-.06,0-.09-.06-.08-.14.05-.79.36-1.54.7-2.2.15-.3.32-.57.49-.85.03-.05.08-.08.13-.04.04.03.06.1.02.16-.17.29-.34.57-.5.87-.31.6-.63,1.36-.67,2.08Z"/>
  <path class="st30" d="M11.19,9.88c.01.08-.02.14-.07.15-.05,0-.09-.03-.1-.1-.16-1.04-.53-2.17-.88-3.15-.02-.07-.02-.14.03-.17.06-.04.1,0,.13.08.35,1.01.72,2.1.89,3.19Z"/>
  <path class="st30" d="M12.49,8.96c.03.27.09.61-.07.56-.05-.02-.07-.06-.07-.13-.04-.71-.22-1.54-.47-2.19-.02-.06-.05-.12-.01-.19.02-.03.06-.04.09-.03.03,0,.05.04.07.08.23.6.39,1.23.47,1.89Z"/>
  <path class="st30" d="M14.01,9.29c0,.08-.04.12-.09.12-.06,0-.09-.06-.09-.13-.02-.55-.1-1.09-.25-1.61-.03-.11-.07-.22-.12-.31-.03-.06-.03-.12.02-.16.04-.04.1-.02.13.04.08.19.15.37.2.58.12.48.18.97.2,1.47Z"/>
  <path class="st30" d="M15.51,9.38c0,.07-.03.11-.06.13-.04.02-.1,0-.11-.06l-.03-.31c-.06-.52-.21-1.01-.42-1.46-.03-.06,0-.12.04-.14.05-.03.1,0,.12.05.25.54.43,1.16.46,1.8Z"/>
  <path class="st30" d="M16.99,9.66c0,.07-.04.13-.08.13-.05,0-.09-.05-.09-.12v-.24c-.02-.46-.12-.89-.31-1.28-.03-.06.02-.13.06-.14.05-.02.09.02.11.07.16.35.26.73.29,1.13l.02.44Z"/>
  <path class="st30" d="M18.32,8.9c-.06.08-.08.18-.12.27,0,0-.01,0-.01,0,0,0,0-.02-.01-.03-.02-.32-.1-.63-.23-.91-.02-.05-.02-.11.01-.14.02-.03.1-.05.12,0,.13.24.21.52.25.8Z"/>
  <path class="st1" d="M16.07,18.68c-.13.22-.47.29-.65.18-.14-.08-.2-.34-.1-.49.17-.25.49-.28.69-.09.11.1.13.27.06.4Z"/>
  <path class="st1" d="M19.36,17.51c-.04.34-.5.45-.75.27-.15-.1-.17-.4-.04-.54.19-.21.49-.21.68-.02.07.07.12.17.11.28Z"/>
  <path class="st1" d="M20.79,18.9c-.1.33-.58.24-.74,0-.09-.14-.04-.39.09-.47.21-.13.46-.04.6.17.06.08.08.2.05.3Z"/>
  <path class="st1" d="M18.23,16.28c-.15.15-.48.14-.63,0-.13-.11-.15-.39-.02-.52.2-.19.5-.15.67.05.11.14.1.34-.02.45Z"/>
  <path class="st3" d="M15.87,18.63c-.08.1-.22.13-.33.07-.08-.05-.09-.2-.03-.27.1-.11.23-.12.33-.03.06.05.09.16.02.23Z"/>
  <path class="st3" d="M19.17,17.49c0,.2-.27.27-.42.16-.09-.06-.09-.23-.02-.31.11-.11.27-.1.38,0,.04.04.06.09.06.15Z"/>
  <path class="st3" d="M20.61,18.83c-.04.15-.29.14-.39,0-.06-.08-.02-.23.06-.26.11-.06.25,0,.32.11.03.05.04.1.02.15Z"/>
  <path class="st3" d="M18.12,16.07c-.02.15-.25.2-.38.1-.07-.06-.08-.21,0-.28.1-.1.25-.08.35.02.04.04.06.1.05.16Z"/>
</svg>