<?xml version="1.0" encoding="UTF-8"?>
<svg id="_レイヤー_1" data-name="レイヤー_1" xmlns="http://www.w3.org/2000/svg" version="1.1" viewBox="-7.23 -5.56 104.56 104.56">
  <!-- Generator: Adobe Illustrator 30.3.0, SVG Export Plug-In . SVG Version: 2.1.3 Build 182)  -->
  <defs>
    <style>
      .st0 {
        fill: #fff;
      }

      .st1 {
        fill: #fefefe;
      }

      .st2 {
        fill: #b3b3b3;
      }

      .st3 {
        fill: #fdfdfd;
      }
    </style>
  </defs>
  <polygon class="st3" points="-1 25.18 -1.04 25.18 -1.04 -1.33 25.24 -1.33 25.24 25.18 -1 25.18"/>
  <path class="st2" d="M9.82,22.18l-.17-.72c-.05-.21-.19-.52-.35-.64-.06-.04-.41.17-.54.28l-.49.46-.48.44c-.19.15-.4.27-.63.36-.22.08-.43.09-.66.05-.12-.02-.23-.04-.34-.08-1-.37-1.88-1.03-2.52-1.89-.17-.23-.26-.48-.25-.77.01-.25.06-.49.15-.73l.28-.6.32-.67c.08-.17.18-.58.03-.71-.19-.17-.7-.1-1.01-.09l-.84.04c-.31,0-.6-.08-.88-.21-.25-.12-.44-.28-.57-.52-.54-.94-.78-2.01-.72-3.09.02-.29.11-.54.31-.75.32-.35.63-.49,1.05-.68l.76-.34c.19-.09.57-.36.49-.59-.05-.14-.13-.25-.24-.35-.53-.55-1.25-.78-1.67-1.55-.13-.23-.17-.48-.13-.75.18-1.09.68-2.1,1.44-2.9.19-.2.42-.32.7-.35.79-.09,1.33.24,2.04.39.24.05.65.09.73-.12.14-.35,0-.87-.1-1.25-.13-.5-.22-.9-.14-1.42.05-.29.2-.53.42-.72.82-.69,1.82-1.13,2.88-1.25.25-.03.47,0,.69.11.8.43,1.01,1.19,1.53,1.77.13.14.39.38.53.31.34-.18.56-.65.72-.99l.26-.53c.14-.28.33-.51.57-.71.2-.17.44-.27.71-.27,1.12-.02,2.21.3,3.14.92.19.12.32.29.4.5.39.97-.17,2.01.1,2.74.04.12.14.18.27.18.17,0,.33-.02.49-.08l.55-.21.66-.27c.18-.07.36-.12.55-.14.61-.07,1.04.3,1.4.75l.49.61c.36.44.68.99.86,1.53.13.41.03.76-.19,1.12-.17.28-.38.52-.62.74l-.39.36c-.2.18-.43.46-.48.72-.06.29.57.53.86.61l.69.2c.17.05.32.11.48.19.18.09.34.2.5.33.2.18.31.41.36.68.19,1.06.07,2.16-.34,3.16-.1.24-.25.41-.45.56-.43.31-.82.38-1.35.42l-.87.06c-.17.01-.34.05-.48.13-.18.1-.02.51.09.72l.34.54.34.52c.16.24.25.5.3.78s.02.54-.12.79c-.56,1-1.41,1.82-2.45,2.31-.24.11-.5.15-.75.12-.28-.04-.52-.15-.76-.29-.4-.23-.76-.6-1.18-.84-.15-.09-.3-.15-.47-.17-.26.29-.28.75-.33,1.13l-.08.74c-.05.26-.12.5-.25.73-.13.25-.33.44-.59.54-.51.2-1.05.31-1.6.36-.63.05-1.26.02-1.88-.14-.18-.05-.33-.13-.47-.26-.21-.21-.36-.47-.46-.75-.07-.19-.11-.38-.16-.58Z"/>
  <path class="st1" d="M10.57,21.68c-.06-.24-.1-.47-.19-.69-.1-.27-.23-.51-.43-.72-.17-.18-.4-.32-.65-.32-.49,0-1,.38-1.34.72l-.41.4-.16.14c-.15.14-.31.25-.49.33-.08.04-.17.05-.25.02l-.16-.02c-.89-.32-1.67-.9-2.23-1.68-.1-.14,0-.52.09-.69l.3-.63c.11-.22.22-.43.3-.67.1-.29.15-.59.11-.9-.07-.57-.55-.91-1.09-.97-.26-.03-.51-.02-.77,0l-.61.04c-.18.01-.34,0-.52-.03-.11-.02-.2-.06-.3-.11-.09-.04-.15-.09-.2-.18-.45-.81-.67-1.74-.6-2.67.01-.21.43-.45.63-.54l.71-.31c.46-.2.85-.43,1.12-.87.16-.26.2-.56.11-.85-.1-.31-.28-.58-.52-.8-.45-.43-1.15-.78-1.44-1.24-.05-.08-.07-.16-.05-.26.16-.91.58-1.76,1.21-2.43.07-.07.14-.1.24-.11.83-.05,1.72.66,2.73.37.3-.09.55-.29.67-.59.23-.55.13-1.08-.01-1.64-.1-.39-.25-.93-.16-1.29.02-.08.08-.13.15-.18.68-.56,1.5-.92,2.37-1.04.14-.02.24,0,.35.09.16.12.3.27.41.44l.37.54.34.47c.38.45.98.83,1.55.57.29-.13.51-.35.7-.61s.3-.51.44-.77l.32-.61c.07-.14.18-.27.3-.37.06-.05.12-.08.21-.08.92,0,1.83.26,2.6.76.07.05.11.11.14.19.05.17.07.33.05.51l-.07.72c-.02.26-.06.5-.05.76.03.64.31,1.29.99,1.38.25.03.48.03.72-.02.19-.04.38-.09.56-.18l.59-.27c.2-.09.4-.18.62-.22.11-.02.21-.01.3.05s.18.13.25.21l.22.27.42.52c.28.35.61.88.72,1.31.02.09-.02.18-.07.26-.15.27-.36.49-.58.7l-.35.33c-.35.33-.65.75-.73,1.23-.04.29.04.57.22.8.17.21.37.37.61.49.23.12.46.19.71.26l.75.23c.16.05.31.13.45.23.09.07.14.14.16.26.16.92.05,1.86-.32,2.72-.03.07-.09.09-.14.14-.08.07-.17.12-.27.15-.21.07-.42.1-.64.11l-.78.04c-.27.02-.52.07-.77.17-.42.16-.69.55-.68,1,0,.3.08.57.21.83.1.2.22.38.34.57l.42.64c.1.15.16.31.2.48.02.09,0,.17-.04.25-.19.34-.42.65-.7.94-.39.4-.83.74-1.33.98-.1.05-.21.08-.31.06-.15-.03-.29-.1-.42-.18-.7-.42-1.23-1.11-2.13-1.13-.1,0-.19.02-.28.06-.09.05-.18.1-.26.18-.22.22-.36.5-.45.8-.07.24-.09.47-.12.72l-.1.81c-.02.17-.07.33-.15.48-.04.08-.1.13-.19.17-.42.16-.84.25-1.29.29-.55.05-1.09.03-1.63-.11-.08-.02-.13-.07-.18-.14-.1-.14-.17-.29-.21-.46l-.17-.67Z"/>
  <path class="st2" d="M18.13,11.97c.03,2.5-1.47,4.76-3.7,5.73-2.38,1.03-5.14.46-6.91-1.44-1.1-1.18-1.69-2.76-1.66-4.38.05-2.44,1.55-4.63,3.75-5.56,2.35-1,5.06-.43,6.82,1.43,1.08,1.13,1.68,2.65,1.7,4.22Z"/>
  <path class="st0" d="M15.77,15.76c-1.55,1.6-3.93,2.04-5.95,1.13-1.91-.87-3.16-2.82-3.12-4.97.03-1.4.61-2.75,1.62-3.74,1.56-1.52,3.89-1.92,5.87-1.01,1.85.85,3.08,2.74,3.09,4.83,0,1.39-.54,2.75-1.52,3.76Z"/>
</svg>